<?xml version="1.0" encoding="UTF-8"?>
<svg xmlns="http://www.w3.org/2000/svg" id="Layer_1" viewBox="0 0 600 400">
  <defs>
    <style>.cls-1,.cls-2{fill:#ebc0c0;}.cls-3,.cls-4,.cls-5{fill:#fff;}.cls-6,.cls-7{fill:#f5abbb;}.cls-8,.cls-9{fill:#c5724a;}.cls-10,.cls-11{fill:#29ae81;}.Graphic_Style_82,.cls-11,.cls-9,.cls-7,.cls-2,.cls-4,.cls-5,.cls-12,.cls-13,.cls-14,.cls-15{stroke-linecap:round;stroke-linejoin:round;stroke-width:.8px;}.Graphic_Style_82,.cls-11,.cls-9,.cls-7,.cls-2,.cls-5,.cls-12,.cls-13{stroke:#000;}.cls-4,.cls-14{stroke:#f5abbb;}.cls-12{fill:#fece00;}.cls-13,.cls-14,.cls-15{fill:none;}.cls-15{stroke:#fff;}</style>
  </defs>
  <rect class="cls-10" x="142.14" y="50.58" width="428.92" height="243.54" rx="121.77" ry="121.77" transform="translate(-36.51 124.08) rotate(-18.8)"></rect>
  <g>
    <path class="cls-10" d="M149.51,280.35h-51.3v-39.29c0-4.55,3.69-8.24,8.24-8.24h31.77"></path>
    <path class="cls-10" d="M161.97,280.35h-51.3v-39.29c0-4.55,3.69-8.24,8.24-8.24h31.77"></path>
    <path class="cls-13" d="M149.51,280.35h-51.3v-39.29c0-4.55,3.69-8.24,8.24-8.24h31.77"></path>
    <path class="cls-13" d="M110.52,280.35v-39.29c0-4.55,3.69-8.24,8.24-8.24h19.46"></path>
    <line class="cls-13" x1="98.21" y1="252.44" x2="133.8" y2="252.44"></line>
    <rect class="cls-11" x="119.11" y="248.29" width="6.23" height="8.29"></rect>
    <path class="cls-13" d="M120.98,232.83v-3.92c0-1.78,1.44-3.22,3.22-3.22h14.66"></path>
  </g>
  <path class="cls-15" d="M239.82,228.66c5.04,55.06,96.93,49.04,96.23-23.34-.47-49.09-45.92-34.18-19.01,8.97,46.3,74.24,184.73,31.61,201.89-46.81,9.01-41.18-19.05-97.09-63.91-98.94"></path>
  <g>
    <path class="cls-1" d="M199.9,234.79c-1.08-7.43-6.83-10.92-13.91-8.51-5.94,2.03-11.07,12.7-11.07,12.7l-5.54-4.32-10.4,15.4c13.24,11.07,31.13,21.04,36.8-15.56"></path>
    <circle class="cls-1" cx="174.92" cy="235.37" r="10.16"></circle>
    <path class="cls-1" d="M169.35,179.49l.16,.51c-3.82-5.19-10.25-8.35-17.37-7.47-9.64,1.19-16.55,9.41-16.29,19.12,.22,7.87,4.56,14.89,11.28,17.56v7.08h7.74v-6c9.5-.89,18.02-9.27,18.26-18.8l.06,.2,6.48-1.96-10.32-10.24Z"></path>
    <path d="M132.23,264.84c.44,6.14,3.76,11.57,8.6,14.93l37.86-.04c5.22-3.23,10.47-8.1,13.48-17.48l-2.22,5.44v11.89l22.9-.36c1.83-17.48,1.69-40.74-13.61-43.99-1.25-.27-2.45-.44-3.61-.52-.88,9.4-6.75,22.16-11.34,23.59-4.59,1.43-9.6,1.29-15.47-1.29,1.15,3.3,.72,8.02,.72,8.02l-37.3-.21Z"></path>
    <path class="cls-6" d="M158.76,217.61c-2.14-2.54-5.34-4.14-8.89-4.14h0c-6.06,0-11.11,4.67-11.57,10.71l-.65,8.35c-.63,8.19-2.95,16.1-6.14,23.67-1.11,2.64-1.67,5.56-1.53,8.64h39.79c.13-2.84-.34-5.55-1.28-8.02l-9.21-6.39,5.42-8.95"></path>
    <path class="cls-6" d="M144.8,236.55c2.35,6.65,6.72,13.46,11.48,17.69l14.72-22.28-12.24-14.34"></path>
    <path class="cls-13" d="M132.23,264.84c.44,6.14,3.76,11.57,8.6,14.93"></path>
    <path class="cls-13" d="M158.76,217.61c-2.14-2.54-5.34-4.14-8.89-4.14h0c-6.06,0-11.11,4.67-11.57,10.71l-.65,8.35c-.63,8.19-2.95,16.1-6.14,23.67-1.11,2.64-1.67,5.56-1.53,8.64h39.79c.13-2.84-.34-5.55-1.28-8.02"></path>
    <path class="cls-13" d="M195.62,234.73c1.16,.08,2.36,.26,3.61,.52,15.3,3.25,15.44,26.51,13.61,43.99"></path>
    <path class="cls-13" d="M192.16,262.26c-3.01,9.38-8.26,14.25-13.48,17.48"></path>
    <path class="cls-13" d="M173.19,191.69c-.34,10.13-8.4,18.29-18.48,18.81"></path>
    <path class="cls-13" d="M144.8,236.55c2.35,6.65,6.72,13.46,11.48,17.69l14.72-22.28-12.24-14.34"></path>
    <path class="cls-13" d="M158.98,250.05c13.24,11.07,31.2,19.85,36.87-16.75"></path>
    <path class="cls-13" d="M169.38,234.65l5.54,4.32s5.13-10.67,11.07-12.7c7.08-2.41,12.83,1.08,13.91,8.51"></path>
    <path class="cls-13" d="M167.63,228c3.37-3.43,11.47-4.36,15.05,.27"></path>
    <line class="cls-13" x1="147.14" y1="213.72" x2="147.15" y2="209.2"></line>
    <line class="cls-13" x1="154.64" y1="210.01" x2="155.16" y2="214.76"></line>
    <polyline class="cls-13" points="169.35 179.49 179.67 189.73 173.19 191.69"></polyline>
    <path class="Graphic_Style_82" d="M169.2,169.7c0-.05,.02-.1,.02-.16,0-3.01-2.44-5.46-5.46-5.46-1.48,0-2.81,.59-3.8,1.55-.77-2.08-2.75-3.56-5.1-3.56s-4.37,1.52-5.12,3.63c-1-1.31-2.55-2.16-4.33-2.16-3.01,0-5.46,2.44-5.46,5.46,0,.21,.04,.42,.06,.63-1.3-.64-2.85-.84-4.54-.13-1.59,.67-2.81,2.08-3.18,3.76-.36,1.62,0,3.14,.82,4.33-.03,0-.06,0-.09,0-3.01,0-5.45,2.44-5.46,5.45,0,1.26,.57,2.44,1.44,3.35,.78,.82,1.5,1.35,2.17,1.67,1.73,.83,2.93,2.45,3.05,4.36,.52,7.8,5.67,14.33,12.69,16.92,4.8,0,8.86-3.33,8.86-10.59l.59-6.13,.87,.79c.8,.72,2.07,.16,2.07-.92v-6.45c0-3.61,2.92-6.53,6.53-6.53h3.37l1.13,.93c2.35-.61,4.09-2.74,4.09-5.28,0-2.94-2.33-5.32-5.24-5.43Z"></path>
    <path class="cls-2" d="M156.32,199.46c-1.89,1.59-4.71,1.35-6.28-.52s-1.32-4.67,.57-6.26c1.89-1.59,4.71-1.35,6.28,.52"></path>
  </g>
  <polyline class="cls-15" points="391.58 116.29 377.49 71.75 343.76 132.43 329.67 87.89 295.94 148.57 281.83 104.04 248.09 164.72 233.98 120.19 200.23 180.88"></polyline>
  <g>
    <path class="cls-8" d="M403.24,186.15c-3.58,3.54-6.94,6.43-10.94,6.69-9.48,.62-19.18-11.01-21.56-16.12-1.5-3.22,1.31-6.92-.32-10.78-1.65-3.9-5.45-2.37-7.77-3.22-3.9-1.45-6.09-5.41-8.92-2.36-1.34,1.44-1.72,6.66,3.8,8.39l3.54,18.44c3.58,9.46,22.64,33.03,42.55,20.85l10.46-5.44-10.84-16.43Z"></path>
    <path class="cls-3" d="M451.91,334.63c-2.12-7.67-3.13-15.6-3.2-23.56l-.13-89.07-21.68-.31h-21.97l-1.02,95.53c-.04,2.9-.22,5.81-.63,8.68-.14,1.01-.31,2.02-.48,3.02-1.2,6.72-3.22,21.56,2.41,21.56h43.64c6.19,0,5.03-8.74,3.06-15.85Z"></path>
    <path class="cls-8" d="M451.48,187.84l-8.45,12.31,6.02,7.31-.13,41.46c-1.58,3.37-9.4,8.45-7.31,11.12,1.83,2.33,6.93-.86,6.93-.86l.11-.11c-1.24,7.09-8.92,13.49-6.34,17.59,.65,1.04,1.91,.7,3.38-.46-.38,2.58,.18,4.14,2.42,3.86l1.72-.84c5.72,.35,10.87-7.99,11.96-14.38,6.21-36.46-.27-62.04-10.32-77Z"></path>
    <path class="cls-13" d="M446.04,276c-.63,1.76-.72,2.83,.14,3.65,3.22,3.06,11.95-10.33,12.73-16.76"></path>
    <path class="cls-8" d="M439.12,144.4c0,10.47-8.1,19.24-18.12,19.32-10.06,.07-17.82-8.64-17.31-19.19,.5-10.25,8.66-18.35,18.22-18.35,9.52,0,17.21,8.05,17.21,18.23Z"></path>
    <polygon class="cls-8" points="423.13 160.85 419.85 179.06 432.69 175.62 431.35 164.23 433.61 156.82 423.13 160.85"></polygon>
    <path d="M436.83,179.65c3.44,18.48,23.2,35.37,11.59,42.03h-43.49c-11.61-6.66,8.15-23.55,11.59-42.03"></path>
    <path d="M427.98,171.99c-12.46,0-19.35,9.01-25.8,15.19l11.11,19.77,29.01-4.51,9.59-13.96c-7.18-11.01-16.28-16.49-23.91-16.49Z"></path>
    <path class="cls-13" d="M404.93,221.68l-1.02,95.53c-.04,2.9-.22,5.81-.63,8.68-.14,1.01-.3,2.02-.48,3.02-1.2,6.72-3.22,21.56,2.41,21.56h22.02"></path>
    <path class="cls-4" d="M422.25,370.1h-38.35c0-8.12,9.09-6.36,17.85-13.93,1.77-1.53,2.82-3.72,3.44-5.69h18.63"></path>
    <path class="cls-14" d="M404.93,221.68l-1.02,95.53c-.04,2.9-.22,5.81-.63,8.68-.14,1.01-.3,2.02-.48,3.02-1.2,6.72-3.22,21.56,2.41,21.56h22.02"></path>
    <path class="cls-6" d="M427.68,356.86l-9.86-6.38h8.5l3.54-.47,1.58,.47c-.56,2.46-1.9,4.61-3.76,6.38Z"></path>
    <path class="cls-4" d="M426.83,350.48c-.62,1.96-1.67,4.16-3.44,5.69-8.76,7.57-17.85,5.81-17.85,13.93h42.77l-.37-19.62"></path>
    <polygon class="cls-6" points="447.93 357.9 436 350.48 447.93 350.48 447.93 357.9"></polygon>
    <polygon class="cls-6" points="405.01 229.23 437.46 221.81 405.01 221.81 405.01 229.23"></polygon>
    <line class="cls-13" x1="448.58" y1="249.22" x2="448.5" y2="221.68"></line>
    <path class="cls-14" d="M426.67,221.68l-1.14,95.53c-.04,2.9-.22,5.81-.63,8.68-.14,1.01-.3,2.02-.48,3.02-1.2,6.72-3.22,21.56,2.41,21.56h22.02c6.19,0,5.03-8.74,3.06-15.85-2.12-7.67-3.13-15.6-3.2-23.56l-.13-30.9"></path>
    <path class="cls-13" d="M436.83,179.65c3.44,18.48,23.2,35.37,11.59,42.03h-43.49c-11.61-6.66,8.15-23.55,11.59-42.03"></path>
    <path class="cls-13" d="M353.73,160.35c2.83-3.04,5.01,.92,8.92,2.36,2.32,.86,6.13-.68,7.77,3.22,1.63,3.86-1.18,7.56,.32,10.78,2.38,5.11,12.09,16.74,21.56,16.12,10.89-.72,17.05-20.85,35.68-20.85s44.42,30.59,33.81,92.85c-1.09,6.39-6.24,14.73-11.96,14.38"></path>
    <path class="cls-13" d="M448.65,259.07c-1.24,7.09-8.92,13.49-6.34,17.59,2.28,3.62,11.75-9.44,12.95-15.81"></path>
    <path class="cls-13" d="M361.07,187.18c3.58,9.46,22.64,33.03,42.55,20.85"></path>
    <line class="cls-13" x1="402.33" y1="187.61" x2="408.57" y2="198.46"></line>
    <line class="cls-13" x1="451.77" y1="189.11" x2="445.1" y2="198.46"></line>
    <rect class="cls-5" x="333.31" y="99.34" width="2.15" height="96.72" rx="1.07" ry="1.07" transform="translate(-6.5 279.71) rotate(-45)"></rect>
    <path class="cls-13" d="M425.34,163.26c-1.01,.14-2.04,.22-3.09,.22-17.69,0-26.4-20.37-9.67-35"></path>
    <line class="cls-13" x1="422.97" y1="163.53" x2="421.04" y2="173"></line>
    <path class="cls-13" d="M415.59,136.57c-1.07,3.44-2.79,6.59-6.95,8.6l7.31,1.72"></path>
    <path class="cls-13" d="M416.28,153.67c3.51-.66,6.73-2.42,8.72-5.59"></path>
    <circle class="Graphic_Style_82" cx="449.25" cy="118.91" r="16.7" transform="translate(31.31 322.13) rotate(-40.76)"></circle>
    <path d="M442.89,142.76c0-14.97-15.15-25.83-30.3-14.29l-.79,.93c2.08,6.52,7.88,12.82,15.62,12.11-2.22-5.87-5.8-13.83-5.8-13.83,3.73,2.29,9.41,8.81,9.41,18.21,.47-1.74,2.06-3.02,3.95-3.02,2.26,0,4.09,1.83,4.09,4.09,0,1.93-1.34,3.54-3.14,3.97l.78,.3c-.45,3.21-2.26,6.02-3.69,8.7,5.9-3.45,9.88-9.83,9.88-17.16Z"></path>
    <path class="cls-13" d="M448.92,248.91c-1.58,3.37-9.4,8.45-7.31,11.12,1.83,2.33,6.93-.86,6.93-.86"></path>
    <g>
      <path class="cls-8" d="M364.35,183c-.79-1.87-3.41-1.86-5.89-1.26l-.05-.1c2.93-.95,5.82-2.09,4.74-4.64-.85-2.01-3.34-2.2-6-1.72l.19-.07c1.79-.5,3.6-1.51,2.72-3.58-.59-1.39-3.12-2.11-5.62-1.65l-2.5-2.61c-3.15,.86-7.86,1.33-5.92,6.84,1.93,5.52,5.98,15.21,10.83,14.01,2.26-.56,8.91-1.87,7.49-5.22Z"></path>
      <path class="cls-13" d="M347.69,172.02c3.34-1.55,10.78-4.18,12.38-.39,.88,2.07-.93,3.08-2.72,3.58"></path>
      <path class="cls-13" d="M349.68,177.93c2.36-1.29,11.65-5.22,13.47-.93,1.79,4.23-7.31,4.59-9.46,6.59"></path>
      <path class="cls-13" d="M352.12,167.05c-1.83,.54-8.03,1.64-6.1,7.16,1.93,5.52,5.98,15.21,10.83,14.01,2.26-.56,8.91-1.87,7.49-5.22-.95-2.24-4.54-1.8-7.37-.84"></path>
    </g>
    <path class="cls-8" d="M353.73,160.35c-1.34,1.44-1.72,6.66,3.8,8.39"></path>
    <path class="cls-13" d="M361.07,169.3c-9.21-.29-8.93-7.25-7.34-8.96"></path>
    <path class="cls-13" d="M411.8,129.4c2.08,6.52,7.88,12.82,15.62,12.11-2.22-5.87-5.8-13.83-5.8-13.83,3.73,2.29,9.41,8.81,9.41,18.21"></path>
    <path class="cls-13" d="M411.76,129.18c15-13.26,31.13-1.75,31.13,13.59,0,7.34-3.98,13.75-9.9,17.2"></path>
    <path class="cls-9" d="M431.58,149.25c.74,1.08,1.98,1.8,3.39,1.8,2.26,0,4.09-1.83,4.09-4.09,0-2.26-1.83-4.09-4.09-4.09-1.89,0-3.48,1.28-3.95,3.02"></path>
    <path class="cls-13" d="M432.28,172.47l-1.05-6.1c-.69-4.77,4.65-9.3,5.47-15.14"></path>
  </g>
  <g>
    <path class="cls-7" d="M155.25,370.1H63.66c-24.97,0-45.21-20.24-45.21-45.21,0-24.97,20.24-45.21,45.21-45.21h91.59v90.42Z"></path>
    <path class="cls-12" d="M158.64,353.55c-15.8,0-28.66-12.86-28.66-28.66,0-15.8,12.86-28.66,28.66-28.66h139.55v-16.55H157.37c-24.97,0-45.21,20.24-45.21,45.21,0,24.97,20.24,45.21,45.21,45.21h140.83v-16.55H158.64Z"></path>
    <path class="cls-5" d="M158.64,296.23h123.91v57.32h-123.91c-15.8,0-28.66-12.86-28.66-28.66,0-15.8,12.86-28.66,28.66-28.66Z"></path>
    <g>
      <line class="cls-5" x1="137.86" y1="305.79" x2="282.56" y2="305.79"></line>
      <line class="cls-5" x1="132.05" y1="315.34" x2="282.56" y2="315.34"></line>
      <line class="cls-5" x1="130.58" y1="324.89" x2="282.56" y2="324.89"></line>
      <line class="cls-5" x1="132.05" y1="334.45" x2="282.56" y2="334.45"></line>
      <line class="cls-5" x1="137.86" y1="344" x2="282.56" y2="344"></line>
    </g>
  </g>
  <polyline class="cls-15" points="472.26 96.25 454.17 68.32 482.08 50.23"></polyline>
</svg>
