<svg xmlns="http://www.w3.org/2000/svg" width="3040" height="326" viewBox="0 0 3040 326"><g fill="none" fill-rule="evenodd" transform="translate(1109.97 .141)"><g transform="translate(0 28.118)"><g transform="translate(369.814 13.497)"><path fill="#0074BF" d="M212.516825,15.9676656 C153.831603,49.3029478 133.281536,123.899804 166.616819,182.584484 L379.133644,61.8676724 C345.798904,3.18245025 271.201506,-17.3676165 212.516825,15.9676656"/><polygon fill="#ACE3FE" points="439.492 168.126 333.234 228.485 272.875 122.226 379.134 61.867"/><polygon fill="#C29171" points="166.617 182.585 60.358 242.943 0 136.685 106.258 76.326"/></g><g transform="translate(852.55 11.697)"><polygon fill="#ACE3FE" points="0 167.707 167.707 167.707 167.707 0 0 0"/><polygon fill="#29AE81" points="167.707 246.542 0 167.707 167.707 167.707"/><polygon fill="#0074BF" points="167.707 109.742 277.449 109.742 277.449 0 167.707 0"/></g><path fill="#FECE00" d="M159.996274,212.088547 C144.191743,254.850498 96.7142218,276.703355 53.9522713,260.898824 C11.1903208,245.094294 -10.6630784,197.616772 5.14145244,154.854822 C20.9465251,112.092871 68.4240465,90.239472 111.185997,106.044545 C153.947948,121.849075 175.800805,169.326597 159.996274,212.088547"/><path fill="#29AE81" d="M245.923903,116.575806 C184.081876,93.7190476 115.419501,125.323233 92.5627423,187.16526 L316.513356,269.936966 C339.370114,208.094398 307.76647,139.432564 245.923903,116.575806"/><polygon fill="#FE8F71" points="159.996 212.089 5.141 154.855 62.376 0 217.23 57.234"/></g><g transform="rotate(165 756.089 223.357)"><path fill="#C29171" d="M68.234873,17.5779998 C3.51019299,54.2751793 -19.1550085,136.396174 17.6108202,201 L252,68.1072747 C215.234171,3.50344879 132.959553,-19.1191796 68.234873,17.5779998"/><polygon fill="#FECE00" points="318 185.344 200.656 252 134 134.656 251.344 68"/></g><g transform="rotate(-177 951.591 137.867)"><path fill="#FECE00" d="M159.996274,212.088547 C144.191743,254.850498 96.7142218,276.703355 53.9522713,260.898824 C11.1903208,245.094294 -10.6630784,197.616772 5.14145244,154.854822 C20.9465251,112.092871 68.4240465,90.239472 111.185997,106.044545 C153.947948,121.849075 175.800805,169.326597 159.996274,212.088547"/><path fill="#FE8F71" d="M245.923903,116.575806 C184.081876,93.7190476 115.419501,125.323233 92.5627423,187.16526 L316.513356,269.936966 C339.370114,208.094398 307.76647,139.432564 245.923903,116.575806"/><polygon fill="#0074BF" points="159.996 212.089 5.141 154.855 62.376 0 217.23 57.234"/></g></g></svg>