<?xml version="1.0" encoding="UTF-8"?>
<svg xmlns="http://www.w3.org/2000/svg" id="Layer_1" viewBox="0 0 550 450">
  <defs>
    <style>.cls-1,.cls-2{fill:#0074bf;}.cls-3,.cls-4{fill:#fff;}.cls-5,.cls-6{fill:#f2d8d8;}.cls-7{fill:#c5724a;}.cls-8{fill:#29ae81;}.cls-9,.cls-10,.cls-11,.cls-12,.cls-6,.cls-4,.cls-13,.cls-2,.cls-14{stroke:#000;stroke-linecap:round;stroke-linejoin:round;}.cls-9,.cls-11,.cls-12,.cls-6,.cls-4,.cls-13,.cls-2,.cls-14{stroke-width:.8px;}.cls-10{stroke-width:4px;}.cls-10,.cls-14{fill:none;}.cls-11{fill:#ace3fe;}.cls-12{fill:#fe8f71;}.cls-13{fill:#fece00;}</style>
  </defs>
  <polygon class="cls-8" points="516.43 287.06 446.65 287.06 512.99 262.06 499.61 164.66 414.74 165.79 495.89 137.58 480.61 26.44 18.45 187.07 31.34 280.87 90.21 280.09 33.69 297.92 47.31 397.06 531.55 397.06 516.43 287.06"></polygon>
  <rect class="cls-3" x="221.19" y="315.36" width="16.86" height="17.27" transform="translate(-95.93 96.59) rotate(-19.74)"></rect>
  <path d="M360.98,101.27c.84-14.06,10.5-13.68,15.05-14.84,5.53-1.41,17.31-12.19,26.4,7.93"></path>
  <path d="M422.57,110.19h-63.15v-7.06c0-.74,.43-1.4,1.11-1.68,10.57-4.36,41.4-8.2,43.99-5.96,3.59,3.1,3.71,11.82,1.87,14.7"></path>
  <path class="cls-5" d="M368.79,110.19h53.78c-1.87,5.12-6.17,9.09-11.52,10.48h0c1.31,13.26-8.69,24.93-21.57,26.1-2.89,.26-5.69,.01-8.31-.68-6.09-1.6-12.54-1.13-18.31,1.41l-13.33,5.87v-19.75l19.25-23.44Z"></path>
  <path class="cls-7" d="M406.53,110.19c-14.19,29.53-50.94,30.69-56.99,25.4-26.79-23.41-49.24-17.61-72.78-7.83v-55.73c16.08-3.33,33.73-2.39,50.86,15.07,7.15,7.29,31.8,36.49,31.8,23.12"></path>
  <g>
    <path class="cls-9" d="M365.98,350.84c.35-5.56-7.11-8.74-16.3-11.24-11.64-3.17-29.87-5.01-32.21-11.84-6.58,0-12.3,0-16.94,0,0,8.56-11.91,20.03-11.91,30.24h77.35s0-7.16,0-7.16Z"></path>
    <path class="cls-14" d="M351.94,351.15c-14.65-6.32-41.02-4.91-41.02-18"></path>
    <path class="cls-14" d="M351.94,355.97c.12,0,.12-10.25,0-10.25"></path>
    <line class="cls-14" x1="290.22" y1="355.97" x2="365.98" y2="355.97"></line>
    <polyline class="cls-9" points="317.66 328.32 317.66 310.53 300.54 313.23 300.54 327.76"></polyline>
  </g>
  <path class="cls-9" d="M264.9,354.05h39.41c1.07,0,1.93,.87,1.93,1.93h0c0,1.07-.87,1.93-1.93,1.93h-39.41v-3.87h0Z" transform="translate(571.13 711.97) rotate(-180)"></path>
  <g>
    <path d="M370.61,207.97c-11.12-7.44-35.29,.22-35.29,.11l-3.46-8.26s-2.33-5.55-5.14-12.48c0,0-10.98-1.06-11.75-.93-.77,.13,6.88,21.14,6.88,21.14l4.21,10.04,14.38,8.7c0,4.02-2.73,7.4-6.43,8.4-1.31,.35-2.27,1.48-2.27,2.84,0,1.96,1.9,3.35,3.78,2.79,.29-.09,.59-.19,.89-.3l-.32,.84h11.28c7.27,0,13.22-5.92,13.12-13.19-.07-5.52-.94-11-1.09-13.21,10.06,6.09,.58,25.53,10.64,28.24,14.08,3.79,11.7-27.29,.58-34.72Z"></path>
    <path class="cls-14" d="M326.72,187.34c2.82,6.93,5.14,12.48,5.14,12.48l3.46,8.26c0,.11,24.17-7.54,35.29-.11,11.12,7.44,13.5,38.51-.58,34.72-10.06-2.71-.58-22.15-10.64-28.24,.15,2.21,1.02,7.69,1.09,13.21,.1,7.27-5.85,13.19-13.12,13.19h-11.28"></path>
    <path class="cls-14" d="M352.62,214.45c.15,2.21,1.02,7.69,1.09,13.21,.1,7.27-5.85,13.19-13.12,13.19"></path>
    <polygon class="cls-9" points="331.86 199.82 323.52 211.52 321.85 207.55 331.86 199.82"></polygon>
  </g>
  <path class="cls-9" d="M317.68,321.17c12.79-28.64,22.63-52.6,23.88-75.25l-3.23-5.78-35.62,5.46-39.83,75.57h54.8Z"></path>
  <path class="cls-10" d="M242.1,348.56c0,41.42-33.58,75-75,75s-75-33.58-75-75,33.58-75,75-75,75,33.58,75,75Z"></path>
  <path class="cls-10" d="M404.03,273.56c-41.42,0-75,33.58-75,75s33.58,75,75,75,75-33.58,75-75-33.58-75-75-75Z"></path>
  <path class="cls-13" d="M209.74,234.04l3.3,8.28-54.4,96.62,4.92,1.38,51.84-92.08,42.56,106.76c1.01,2.52,4.24,3.24,6.22,1.38l85.69-80.82,4.18,10.48c8.23,20.65,20.42,39.04,36.23,54.66l7.98,7.89c.97,.96,2.55,.95,3.51-.02h0c.96-.97,.95-2.55-.02-3.51l-7.98-7.89c-15.32-15.14-27.13-32.96-35.11-52.97l-15.22-38.18h-5.34l9.8,24.58-85.93,81.04-42.52-106.66h80.82l-.86-4.96h-81.94l-2.17-5.45"></path>
  <rect x="248.41" y="240.01" width="8.31" height="4.93"></rect>
  <path class="cls-9" d="M240.89,225.59l-16.42,7.01c-6.82,2.91-14.6,2.58-21.14-.91l-15.47-8.26c-1-.53-1.62-1.57-1.62-2.7v-.18c0-1.69,1.37-3.06,3.06-3.06h45.16"></path>
  <path class="cls-12" d="M231.78,170.53c-5.27,5.71-8.49,13.34-8.49,21.73,0,7.31,2.45,14.04,6.56,19.43l34.56,43.59-52.81,18.11,26.51,56.68s65.94-17.73,83.82-46.94c12.12-19.8,9.33-40.04,3.66-54.47l-19.47-41.99-74.33-16.11"></path>
  <polygon points="231.24 229.71 240.89 225.59 234.46 217.49 231.24 217.49 231.24 229.71"></polygon>
  <g>
    <path class="cls-5" d="M364.81,213.13c-11.12-7.44-35.29,.22-35.29,.11l-3.46-8.26s-2.33-5.55-5.14-12.48c0,0-10.98-1.06-11.75-.93-.77,.13,6.88,21.14,6.88,21.14l4.21,10.04,14.38,8.7c0,4.02-2.73,7.4-6.43,8.4-1.31,.35-2.27,1.48-2.27,2.84,0,1.96,1.9,3.35,3.78,2.79,.29-.09,.59-.19,.89-.3l-.32,.84h11.28c7.27,0,13.22-5.92,13.12-13.19-.07-5.52-.94-11-1.09-13.21,10.06,6.09,.58,25.53,10.64,28.24,14.08,3.79,11.7-27.29,.58-34.72Z"></path>
    <path class="cls-5" d="M330.45,229.15h24.17v3.09c0,7.6-6.17,13.78-13.78,13.78h-10.39v-16.87h0Z"></path>
    <path class="cls-14" d="M320.91,192.5c2.82,6.93,5.14,12.48,5.14,12.48l3.46,8.26c0,.11,24.17-7.54,35.29-.11,11.12,7.44,13.5,38.51-.58,34.72-10.06-2.71-.58-22.15-10.64-28.24,.15,2.21,1.02,7.69,1.09,13.21,.1,7.27-5.85,13.19-13.12,13.19h-11.28"></path>
    <path class="cls-14" d="M346.82,219.61c.15,2.21,1.02,7.69,1.09,13.21,.1,7.27-5.85,13.19-13.12,13.19"></path>
    <path class="cls-6" d="M316.05,212.7l4.21,10.04,14.38,8.7c0,4.02-2.73,7.4-6.43,8.4-1.31,.35-2.27,1.48-2.27,2.84h0c0,1.96,1.9,3.35,3.78,2.79,5.49-1.62,11.9-6.68,11.82-12.64-.07-5.52-.94-11-1.09-13.21"></path>
    <polygon class="cls-9" points="326.06 204.98 317.71 216.68 316.05 212.7 326.06 204.98"></polygon>
  </g>
  <g>
    <path class="cls-9" d="M312.22,222.74h13.71c4.8,0,8.7,3.89,8.7,8.7s-3.89,8.7-8.7,8.7h-13.71"></path>
    <path class="cls-4" d="M312.22,240.14c-3.43,0-6.21-3.89-6.21-8.7s2.78-8.7,6.21-8.7h.02c3.43,0,6.21,3.89,6.21,8.7,0,4.8-2.78,8.7-6.21,8.7h-.02Z"></path>
    <path d="M326.76,240l7.46-7.46c.84,1.53-2.3,7.46-7.46,7.46Z"></path>
  </g>
  <g>
    <path class="cls-11" d="M337.96,180.56l-69.43,48.61-52.35-83.51c51.32,.26,84.6-52.1,133.35-10.06v22.73c0,8.86-4.32,17.15-11.57,22.23Z"></path>
    <line class="cls-14" x1="263.22" y1="220.69" x2="346.22" y2="162.57"></line>
    <path class="cls-9" d="M283.67,175.45l-4.46-11.65c-5.06,12.62,1.7,39.35,6.01,53.7l17.49-12.25-19.04-29.79Z"></path>
    <path class="cls-9" d="M231.79,170.56c-2.65,2.88-4.78,6.24-6.24,9.94l32.32,31.67-26.08-41.61Z"></path>
    <polygon class="cls-9" points="326.06 145.91 313 170.98 311.1 166.03 326.06 145.91"></polygon>
    <path d="M356.2,137.89l-6.38,10.35-.1-11.99c1.84,.87,4.55,1.84,6.48,1.64Z"></path>
    <path class="cls-11" d="M312.13,132.76c-8.51,5.16-32.52,14.19-35.59,32.11-3.22,18.83,22.18,59.96,22.18,59.96l27.34-19.86-14.96-38.94,14.96-20.12"></path>
  </g>
  <path class="cls-13" d="M258.15,375.48l-97.04-19.32c-4.73-.94-8.14-5.1-8.14-9.92h0c0-5.59,4.53-10.12,10.12-10.12h98.06c10.93,0,19.79,8.86,19.79,19.79s-8.86,19.79-19.79,19.79c-1.02,0-2.02-.08-3-.23"></path>
  <path class="cls-14" d="M349.54,153.38l13.33-5.87c5.77-2.54,12.22-3.01,18.31-1.41,2.62,.69,5.42,.94,8.31,.68,12.88-1.17,22.87-12.84,21.57-26.1h0c5.35-1.4,9.65-5.36,11.52-10.48h-16.05"></path>
  <path class="cls-14" d="M406.53,110.19c-14.19,29.53-50.94,30.69-56.99,25.4-26.79-23.41-49.24-17.61-72.78-7.83v-55.73c16.08-3.33,33.73-2.39,50.86,15.07,7.15,7.29,31.8,36.49,31.8,23.12"></path>
  <path class="cls-14" d="M360.98,101.27c.84-14.06,10.5-13.68,15.05-14.84,5.53-1.41,17.31-12.19,26.4,7.93"></path>
  <path class="cls-14" d="M276.8,113.01c35.43-15.74,48.95-3.55,67.22,11.03,8.76,6.99,36.04,13.82,44.89-13.85"></path>
  <path class="cls-14" d="M276.8,90.4c27.48-11.4,49.84,8.09,65.72,23.33,12.62,12.11,25.75,13.28,29.74-2.9"></path>
  <path class="cls-14" d="M422.57,110.19h-63.15v-7.06c0-.74,.43-1.4,1.11-1.68,10.57-4.36,41.4-8.2,43.99-5.96,3.59,3.1,3.71,11.82,1.87,14.7"></path>
  <line class="cls-4" x1="202.42" y1="355.68" x2="262.88" y2="355.68"></line>
  <path class="cls-13" d="M272.26,355.98c0,6.15-4.98,11.13-11.13,11.13s-11.13-4.98-11.13-11.13,4.98-11.13,11.13-11.13,11.13,4.98,11.13,11.13Z"></path>
  <path class="cls-13" d="M220.7,354.05h39.41c1.07,0,1.93,.87,1.93,1.93h0c0,1.07-.87,1.93-1.93,1.93h-39.41v-3.87h0Z"></path>
  <g>
    <polygon points="227.45 333.88 238.01 329.73 230.71 314.49 227.45 315.75 227.45 333.88"></polygon>
    <g>
      <path class="cls-4" d="M218.72,388.28c5.35-1.53,5.85-9.63,5.13-19.12-.91-12.03-5.29-29.82,.37-34.31-2.2-6.2-4.12-11.59-5.67-15.96-6.22,2.21-16.44-1.66-25.2-1.99l25.37,71.38h0Z"></path>
      <path class="cls-4" d="M193.35,316.9c-2.6-.1-5.08,.12-7.28,.9l25.91,72.88,6.74-2.4-25.37-71.38Z"></path>
    </g>
    <line class="cls-14" x1="189.59" y1="317.02" x2="208.42" y2="369.98"></line>
    <path class="cls-14" d="M218.56,373.43c1.05-15.92-9.11-40.3,3.22-44.68"></path>
    <path class="cls-14" d="M214.02,375.05c.04,.11,9.7-3.32,9.66-3.43"></path>
    <line class="cls-14" x1="193.35" y1="316.9" x2="218.72" y2="388.28"></line>
    <g>
      <line class="cls-14" x1="230.84" y1="314.52" x2="218.55" y2="318.88"></line>
      <line class="cls-14" x1="223.76" y1="335.21" x2="238.63" y2="329.92"></line>
    </g>
  </g>
  <rect class="cls-9" x="193.49" y="350.57" width="7.22" height="22.32" transform="translate(-109.52 86.62) rotate(-19.52)"></rect>
  <polygon class="cls-9" points="204.23 371.04 197.43 373.46 184.18 336.09 191.88 336.11 204.23 371.04"></polygon>
  <path class="cls-14" d="M163.83,251.13h17.89c6.93,0,13.58,2.75,18.48,7.65l5.82,5.82"></path>
  <line class="cls-14" x1="160.03" y1="336.52" x2="160.23" y2="236.99"></line>
  <path class="cls-14" d="M157.73,337.65l-46.88-70.25c-4.64-6.95,.34-16.27,8.7-16.27h0"></path>
  <path class="cls-14" d="M345.93,171.83c.8-1.45,1.26-3.13,1.26-4.91,0-5.6-4.54-10.15-10.15-10.15v-30.15"></path>
  <g>
    <path class="cls-5" d="M162.92,182.36c0-2.49-1.86-2.49-1.86-4.97s1.86-2.49,1.86-4.97-1.86-2.48-1.86-4.97v-2.04h12.03c8.75-4.92,14.52-15.8,11.75-25.39-.47-1.63-2.52-2.17-3.72-.97l-7.15,7.16c-1.37,1.37-3.72,.4-3.72-1.54v-2l-31.64,1.65c-6.06,11.1-10.43-7.02-26.22-7.02v23.07c7.72,1.98,14.46,2.41,22.6,3.56l-.03,.13c-1.92,13.41-15.15,17.42-21.63,29.57,0,0,39.27-.91,50.69,.09,5.4,17.54,15.29,13.13,16.65,6.43,1.97-9.67-9.34-15.99-17.76-17.77Z"></path>
    <path d="M146.74,161.33l-5.86,13.26-2.58-7.65c2.62-.37,5.28-3.01,8.44-5.61Z"></path>
    <path d="M138.86,139.03c.58-9.72,7.26-9.46,10.4-10.26,3.83-.98,11.97-8.43,18.26,5.48"></path>
    <path d="M181.45,145.2h-43.67v-4.89c0-.51,.3-.97,.77-1.16,7.31-3.01,28.63-5.67,30.42-4.12,2.48,2.14,2.56,8.17,1.29,10.17"></path>
    <path class="cls-14" d="M112.29,163.5c14.75-7.98,20.34,19.88,39.98-10.09"></path>
    <path class="cls-14" d="M138.38,144.31c-6.03,11.41-8.77-7.24-25.89-7.24"></path>
    <path class="cls-14" d="M112.49,152.58c14.71,0,17.1,24.84,36.32-4.02"></path>
    <path class="cls-14" d="M112.49,144.43c15.73,0,19.5,23.9,35.8-6.06"></path>
    <path class="cls-14" d="M138.86,139.03c.58-9.72,7.26-9.46,10.4-10.26,3.83-.98,11.97-8.43,18.26,5.48"></path>
    <path class="cls-14" d="M137.79,145.2v-4.89c0-.51,.3-.97,.77-1.16,7.31-3.01,28.63-5.67,30.42-4.12,2.48,2.14,2.56,8.17,1.29,10.17h-32.48Z"></path>
    <path class="cls-14" d="M173.1,165.69c8.75-5.21,14.52-16.09,11.75-25.68-.47-1.63-2.52-2.17-3.72-.97l-7.15,7.16c-1.37,1.37-3.72,.4-3.72-1.54v-2"></path>
    <path class="cls-14" d="M157.25,165.69c2.16-1.44,3.86-3.3,4.64-5.41"></path>
    <path class="cls-14" d="M153.31,165.69c2.16-1.44,3.86-3.3,4.64-5.41"></path>
    <path class="cls-14" d="M161.18,165.69c2.16-1.44,3.86-3.3,4.64-5.41"></path>
    <path class="cls-14" d="M165.12,165.69c2.16-1.44,3.86-3.3,4.64-5.41"></path>
    <path class="cls-14" d="M169.05,165.69c2.16-1.44,3.86-3.3,4.64-5.41"></path>
    <path d="M162.92,182.23c9.57,.55,20.89,11.52,17.63,19.47,.1-.04,.21-.07,.31-.11h0c3.69-1.46,5.66-5.58,4.31-9.31-2.91-8.05-10.62-13.8-19.67-13.8-1.51,0-2.99,.16-4.41,.47,.1,.5,1.85,2.74,1.82,3.28Z"></path>
    <path d="M177.89,142.25h7.16c.15-2.27-1.49-7.42-7.16,0Z"></path>
    <path class="cls-14" d="M134.97,164.05c-1.92,13.41-15.15,17.42-21.63,29.57"></path>
    <path class="cls-14" d="M162.92,182.36c0-2.49-1.86-2.49-1.86-4.97,0-2.49,1.86-2.49,1.86-4.97s-1.86-2.49-1.86-4.97"></path>
  </g>
  <g>
    <path class="cls-4" d="M100.06,160.23h38.28c4.61,0,8.35,3.74,8.35,8.35v56.5c0,4.61-3.74,8.35-8.35,8.35h-38.28c-4.61,0-8.35-3.74-8.35-8.35v-56.5c0-4.61,3.74-8.35,8.35-8.35Z" transform="translate(-50.4 41.32) rotate(-16.28)"></path>
    <path class="cls-14" d="M144.41,227.6c4.43-1.29,6.97-5.93,5.67-10.36l-15.84-54.23c-1.26-4.31-5.69-6.82-10.01-5.76"></path>
    <ellipse cx="115.55" cy="192.62" rx="3.72" ry="3.83" transform="translate(-40.34 30.9) rotate(-12.99)"></ellipse>
  </g>
  <g>
    <path class="cls-1" d="M176,205.72c-1.8,10.27-1.69,22.57-1.67,36.96,0,4.66-3.78,8.44-8.44,8.44H97.86c-4.66,0-8.44-3.78-8.44-8.44v-29.2c0-.66-.09-1.31-.28-1.94l-3.79-13.02c-.64-2.19,.81-4.44,3.07-4.76l1-.14h74.14c1.56,4.22,3.72,14.05,12.45,12.1Z"></path>
    <line class="cls-14" x1="88.96" y1="210.63" x2="174.87" y2="210.63"></line>
    <line class="cls-14" x1="131.93" y1="210.63" x2="131.93" y2="251.13"></line>
    <path class="cls-2" d="M131.88,227.13c-12.68,0-23-10.32-23-23,0-1.54,1.25-2.79,2.79-2.79s2.79,1.25,2.79,2.79c0,9.61,7.82,17.42,17.42,17.42s17.42-7.82,17.42-17.42c0-1.54,1.25-2.79,2.79-2.79s2.79,1.25,2.79,2.79c0,12.68-10.32,23-23,23Z"></path>
    <path class="cls-14" d="M168.89,193.62h6.02c2.6,0,4.42,2.56,3.57,5.01l-1.3,3.75c-1.9,5.48-2.86,11.24-2.86,17.05v3.32s0,19.94,0,19.94c0,4.66-3.78,8.44-8.44,8.44H97.86c-4.66,0-8.44-3.78-8.44-8.44v-23.25c0-5.8-.97-11.56-2.86-17.05l-1.3-3.75c-.85-2.45,.97-5.01,3.57-5.01h74.73"></path>
  </g>
  <g>
    <path class="cls-5" d="M157.24,193.02s1.54,.03,6.24,.03c4.18,17.62,15.85,13.79,17.21,7.09,1.97-9.67-9.34-15.99-17.76-17.77l-5.68,10.65Z"></path>
    <path class="cls-14" d="M162.07,190.19l4.89,11.3c1.6,3.69,5.83,5.44,9.57,3.96h0c3.69-1.46,5.66-5.58,4.31-9.31-2.91-8.05-10.62-13.8-19.67-13.8-4.79,0-9.21,1.61-12.73,4.32"></path>
    <polygon points="161.77 189.93 158.16 193.34 163.19 193.34 161.77 189.93"></polygon>
    <path class="cls-14" d="M176.23,205.51c.64-2.3,1.37-4.96,1.37-7.67"></path>
    <path class="cls-14" d="M171.65,205.66c.61-2.2,1.26-4.71,1.26-7.26"></path>
  </g>
</svg>
