<svg xmlns="http://www.w3.org/2000/svg" width="83" height="78" viewBox="0 0 83 78"><path fill="#ACE3FE" d="M31.8886756,14.0729367 C25.0019194,15.3704415 20.1612284,20.3608445 17.3666027,29.0441459 C15.9692898,33.3358925 15.2706334,37.5777351 15.2706334,41.7696737 C15.2706334,42.268714 15.2955854,42.6928983 15.3454894,43.0422265 C15.3953935,43.3915547 15.4702495,44.1650672 15.5700576,45.3627639 L31.8886756,45.3627639 L31.8886756,78 L0,78 L0,47.9078695 C0,33.1362764 2.94433781,21.7581574 8.83301344,13.7735125 C14.7216891,5.78886756 22.4069098,1.19769674 31.8886756,0 L31.8886756,14.0729367 Z M82.3416507,14.0729367 C76.8522073,14.9712092 72.6852207,18.0652591 69.840691,23.3550864 C66.9961612,28.6449136 65.5738964,34.7332054 65.5738964,41.6199616 C65.5738964,42.21881 65.5988484,42.8176583 65.6487524,43.4165067 C65.6986564,44.0153551 65.8234165,44.6641075 66.0230326,45.3627639 L82.3416507,45.3627639 L82.3416507,78 L50.303263,78 L50.303263,47.9078695 C50.303263,36.0307102 52.7984645,25.4261036 57.7888676,16.0940499 C62.7792706,6.76199616 70.9635317,1.39731286 82.3416507,0 L82.3416507,14.0729367 Z"/></svg>