<svg width="1544" height="62" viewBox="0 0 1544 62" preserveAspectRatio="none" fill="none" xmlns="http://www.w3.org/2000/svg">
<path d="M1498.13 61.2295C1491.94 60.1629 1508.25 59.3719 1508.53 59.5742C1508.76 59.859 1501.39 61.7872 1498.13 61.2295ZM1462.99 59.6641C1457.64 58.2208 1482.24 59.2712 1482.94 59.5234C1483.31 59.6555 1483.55 59.7785 1483.69 59.8818C1484.6 59.4581 1489.25 59.441 1489.78 60.5498C1488.38 60.4402 1484.58 60.4871 1484.14 60.3594C1483.95 60.3049 1483.8 60.254 1483.71 60.2031C1482.06 61.1371 1464.01 59.9365 1462.99 59.6641ZM1544 51.0146C1537.51 50.686 1531.52 50.2958 1529.46 50.4033C1523.41 50.7139 1518.01 53.0117 1516.69 52.9961C1512.37 52.9361 1515.98 51.781 1515.02 51.3242C1514.04 50.8708 1501.71 53.0095 1501.1 52.875C1498.73 52.3332 1501.16 50.9379 1500.92 50.8623C1497.98 49.9458 1481.44 50.8437 1476.82 50.4531C1476.96 51.3812 1486.24 51.5758 1480.42 52.9883C1473.65 54.6348 1473.32 50.5508 1473.14 50.3652C1442.22 50.0078 1411.29 49.6921 1380.36 49.4131C1380.73 51.5889 1400.96 50.1638 1401.42 50.4561C1404.1 52.1759 1369.94 51.7862 1365.75 50.9814C1368.93 51.4824 1372.11 51.9837 1375.29 52.4854C1369.83 54.9281 1357.83 51.5632 1349.96 52.5918C1347.43 52.9249 1352.28 53.9342 1352.19 54.001C1349.32 54.9439 1344.75 54.1532 1348.19 52.8828C1341.21 54.0653 1342.25 52.698 1336.9 52.5449C1336.62 52.5381 1338.91 53.5672 1334.67 53.9463C1332.68 54.1227 1322.1 54.0309 1320.68 54.9004C1320.09 55.2665 1325.42 59.2242 1326.11 55.8652C1337.61 57.6094 1329.81 54.3655 1334.28 54.4834C1334.96 54.5075 1333.38 56.3699 1344.63 55.5908C1342.47 58.9573 1329.51 56.3054 1327.29 56.6963C1322.7 57.4979 1341.59 59.4181 1345.06 56.8115C1343.42 59.4395 1346.39 57.1804 1350.59 57.3291C1355.19 57.491 1353.18 58.2588 1355.67 58.2871C1362.48 58.3729 1359.68 56.4795 1365.28 58.2168C1359.85 52.9556 1374.9 57.6253 1379.29 59.0352C1372.12 59.2261 1364.97 59.4185 1357.81 59.6133C1358.22 59.8906 1358.62 60.1679 1359.03 60.4453C1357.14 60.3882 1355.26 60.3322 1353.38 60.2754C1353.68 60.0163 1353.99 59.7562 1354.29 59.4971C1344.56 61.1076 1342.21 59.1724 1341.42 59.1436C1331.21 58.8261 1319.41 58.7371 1309.1 58.6426C1307.56 58.6286 1308.6 60.3405 1297.35 58.9121C1293.76 58.4575 1297.16 57.1598 1293.09 57.3252C1287.95 60.886 1288.07 58.013 1286.55 57.9961C1282.19 57.9614 1279.52 58.8333 1279.11 58.8398C1273.73 58.9364 1265.85 58.7259 1259.95 58.8145C1259.84 58.8278 1262.9 59.9577 1259.07 59.6016C1257.71 59.4743 1245.71 54.659 1235.09 56.125C1237.84 56.4633 1240.59 56.8018 1243.35 57.1406C1240.1 56.6701 1217.43 57.7058 1222.96 59.0088C1226.35 59.8046 1234.67 56.8168 1235.56 59.752C1227.99 58.8177 1186.44 59.8606 1183.15 59.1641C1182.7 59.0642 1185.47 58.1314 1184.85 58.0059C1184.37 57.9101 1174.83 58.0782 1173.56 57.7061C1172.81 57.4848 1177.03 56.9264 1176.69 56.582C1176.39 56.3359 1164.49 55.8604 1163.8 57.0479C1166.72 56.5862 1174.94 57.0514 1170.62 58.0303C1170.07 58.1517 1167.2 57.3673 1166.53 57.5215C1160.28 58.9448 1178.94 58.7021 1181.84 58.7324C1170.06 60.1786 1152.06 58.2876 1138.37 59.2051C1132.87 58.1846 1146.54 57.7323 1140.31 56.8779C1127.41 55.1081 1136.86 58.2284 1136.47 58.3545C1133.25 59.3376 1122.37 53.922 1122.34 58.002C1117.68 57.3645 1119.19 56.8568 1112.61 57.3584C1113.47 57.6451 1114.33 57.932 1115.2 58.2188C1107.91 60.5454 1092.39 54.5128 1093.55 54.0625C1096.69 52.8595 1104.81 54.7963 1105.47 54.7539C1106.49 54.691 1109.31 50.5645 1120.44 54.3213C1125.02 51.5668 1102.79 52.3599 1112.91 50.5166C1106.15 50.7926 1077.84 48.7317 1073.83 49.9346C1073.35 50.0929 1075.58 52.867 1068.64 51.4297C1065.35 50.7452 1073.3 50.747 1071.79 50.1104C1067.22 48.1501 1003.96 49.1452 991.847 49.2139C991.066 49.2144 991.355 48.3569 990.588 48.3623C988.229 48.3785 979.653 49.6309 975.459 49.2227C984.142 50.8394 967.301 50.9103 962.942 50.7227C956.36 50.4366 956.775 48.9264 953.937 48.5967C942.975 47.3257 926.205 50.8671 917.713 47.4912C918.164 50.8209 902.989 45.8214 896.133 45.7754C890.751 45.7383 882.97 47.922 890.207 49.2812C880.976 49.1054 871.152 49.7035 862.392 49.8857C860.947 49.9163 862.938 48.9362 860.473 49.0195C860.249 49.0342 859.937 49.9982 857.822 50.0938C840.396 50.8954 848.887 48.8647 845.63 48.2549C843.813 47.9135 842.472 47.743 841.489 47.6855C851.59 47.519 863.346 47.1666 866.497 47.1465C863.798 45.01 843.943 47.5042 838.193 46.9189C837.993 46.8977 838.693 45.7256 838.489 45.7168C838.485 45.7168 838.481 45.7168 838.477 45.7168C836.377 45.6222 822.364 46.0256 825.247 47.4316C825.994 47.8072 832.523 47.8198 839.993 47.709C837.956 47.9671 839.473 49.2851 839.114 49.3408C834.82 49.9815 823.925 48.6753 820.121 48.4941C819.247 48.4543 819.307 49.2961 819.164 49.2979C815.688 49.099 817.118 46.6969 813.553 49.1699C807.27 46.1583 825.344 48.7496 824.085 46.7998C822.999 45.2977 783.176 46.0206 783.137 48.3828C782.998 48.1299 782.444 47.815 781.308 47.4561C778.78 46.6582 767.603 46.8831 765.688 47.3145C765.364 47.3994 765.489 49.6912 765.087 49.7129C764.043 49.7634 750.604 47.9389 745.406 49.2832C748.194 49.6103 750.937 49.9368 753.657 50.2637C738.087 50.2503 739.304 50.854 744.132 51.5039L745.142 51.6338C745.421 51.6406 745.692 51.7284 745.959 51.7383C750.345 52.2542 755.703 52.7535 755.81 52.9346C756.228 53.6255 727.833 53.9503 733.308 51.835C734.056 51.546 747.18 52.5204 740.683 50.9893C739.541 50.7211 731.135 51.1359 730.699 50.9678C727.739 49.8495 746.114 48.4103 743.88 46.8252C739.401 48.3206 733.679 47.5168 728.588 47.8945C726.271 48.0653 725.702 49.2133 725.416 49.2344C721.154 49.5254 723.548 48.3255 722.126 48.3525C721.356 48.3725 712.991 50.9178 714.58 47.3857C686.781 49.9264 707.036 49.9692 723.868 49.8057C718.47 51.0821 708.14 50.4364 703.273 50.7246C701.562 50.8294 702.572 52.0116 699.684 52.2412C693.623 52.7137 665.836 51.2942 658.257 50.9551C662.798 50.5494 661.473 49.2607 657.97 49.3408C654.47 49.4215 657.405 51.1444 656.722 51.3271C655.996 51.5084 640.967 50.7333 637.377 50.8584C649.141 50.2608 646.325 48.9998 636.079 48.8398C637.575 48.4748 639.073 48.1102 640.573 47.7451C634.546 48.2481 621.641 46.2569 618.063 46.8281C617.506 46.92 619.505 48.0025 619.193 48.0547C616.059 48.5038 605.515 47.3732 605.034 47.7393C604.618 48.0442 609.103 48.9617 607.436 49.4014C607.086 49.4936 602.763 48.0237 598.529 48.3682C596.958 48.4949 597.9 49.5172 597.505 49.5752C594.198 50.0549 596.196 48.3456 590.113 48.6016C585.595 48.7909 582.232 50.4571 576.055 49.8799C596.416 52.0884 579.245 51.1374 570.812 51.7549C569.463 51.8533 570.594 53.7081 562.559 52.7773C579.693 49.4951 557.704 50.9917 553.195 50.9365C552.943 50.9242 552.859 49.7033 550.607 49.6748C550.418 49.6758 550.685 50.501 548.597 50.5557C528.872 51.07 541.49 50.191 537.751 49.3623C536.155 49.0093 526.667 50.1332 524.144 50.1494C523.561 50.1492 523.831 49.2944 521.58 49.3174C517.652 49.3606 513.847 50.2534 511.185 50.3125C510.873 50.3151 510.856 48.9635 505.772 49.376C504.345 49.4912 502.743 49.9632 504.765 50.3623C511.505 51.6758 524.275 49.5247 531.728 50.833C538.53 52.0255 517.114 52.039 515.826 52.0381C515.404 52.0403 519.721 51.3893 515.34 51.2354C511.598 51.1067 504.793 53.4076 499.319 52.8701C498.899 52.8302 494.543 50.8273 494.747 50.7129C494.927 50.6296 501.644 50.2352 500.674 49.6572C500.555 49.5914 496.285 49.5819 495.734 49.1523C495.056 48.6291 493.252 43.5244 492.348 43.3916C490.027 43.0632 491.531 44.2335 490.032 44.1445C486.927 43.9574 475.428 42.3827 475.067 44.1455C476.949 44.2618 478.836 44.3781 480.729 44.4941C470.218 44.6128 474.705 45.3915 473.214 45.7139C471.62 46.0621 472.072 44.5127 468.567 44.3447C467.773 44.3087 453.26 44.5361 453.545 45.1885C461.529 44.2065 458.568 46.1047 458.933 46.1416C460.336 46.2758 462.139 45.2113 464.034 45.2451C477.41 45.4992 463.902 47.1114 467.059 47.5684C468.144 47.7222 470.321 46.8177 470.785 46.8672C472.29 47.0287 472.308 48.2323 473.315 48.1416C475.669 47.9303 472.934 46.2105 473.121 46.123C475.218 45.0713 483.499 46.4462 478.329 48.2676C481.421 48.9535 481.801 46.7041 484.263 47.6182C489.032 49.4276 481.848 48.9292 479.825 49.2129C472.722 50.2375 470.611 49.361 460.741 49.5918C457.192 49.6726 453.02 50.7374 451.395 50.7861C450.312 50.8168 440.336 46.9394 440.015 52.8906C436.151 52.2856 430.176 48.3149 426.274 48.4619C422.771 48.5968 423.869 50.7132 423.541 50.792C423.03 50.9158 418.859 50.7139 417.315 50.998C415.578 51.3346 416.434 52.1467 413.688 52.4502C406.874 53.2025 407.097 51.0538 406.399 50.9072C398.389 49.2169 401.881 52.3075 400.103 52.5361C398.578 52.751 375.161 51.3302 370.326 52.042C372.307 51.6345 374.299 51.2265 376.301 50.8184C372.74 49.4372 368.977 51.5799 368.939 49.1748C368.144 53.0483 361.042 50.367 358.767 50.4375C357.874 50.4675 357.935 51.1303 356.82 51.1445C352.443 51.2056 342.837 50.5467 340.57 50.8486C330.641 52.1522 355.973 54.914 358.197 55.0801C353.938 54.9895 331.346 55.5376 341.696 57.5518C343.295 57.8626 346.184 56.165 347.098 56.1094C353.287 55.7461 348.404 57.2363 348.884 57.3916C349.702 57.6419 353.818 56.1905 354.908 56.3838C355.275 56.446 352.9 57.8264 358.903 57.9326C355.852 59.2644 339.319 57.9245 337.259 58.2119C336.431 58.3138 341.438 61.3134 327.18 58.2568C327.342 58.5306 327.506 58.8044 327.669 59.0781C319.591 59.0629 311.986 59.0454 304.083 59.0098C304.974 58.4016 309.562 57.2307 303.813 57.3906C300.523 57.4829 302.928 58.9199 302.628 58.9551C301.455 59.0853 292.42 58.9356 282.002 58.6807C265.655 58.2857 245 57.6601 239.153 57.6084C235.899 57.5798 226.368 58.4606 225.697 58.4639C221.476 58.471 206.421 57.3525 203.403 57.4287C201.529 57.4803 203.276 58.6898 201.607 58.5908C200.058 58.4972 201.694 57.4167 201.235 57.3574C197.559 56.8581 168.31 57.5247 161.39 56.2559C165.636 56.7013 186.718 55.0456 186.345 54.2393C186.25 54.128 181.15 53.1313 180.093 53.5186C178.369 52.4969 172.413 55.2941 169.075 54.6162C168.71 54.539 170.202 52.9198 164.371 52.4502C162.346 52.2887 157.152 53.4348 151.904 51.8262C144.142 52.309 104.028 48.8905 101.27 50.5742C101.183 50.6663 106.774 51.4639 102.957 52.0723C97.8814 52.8803 102.583 49.7516 96.6318 49.2715C95.6045 49.1966 79.3745 48.9802 78.6777 49.1572C73.6027 50.8259 87.997 52.0667 87.7627 52.2715C87.2731 52.7957 75.28 52.7115 74.7715 52.5654C74.3151 52.4159 84.2177 50.3191 72.3936 50.835C73.7248 51.1732 75.0634 51.5112 76.4092 51.8496C70.8368 52.2249 70.405 50.5198 69.0791 50.3701C65.0835 49.903 60.2498 52.2983 53.7949 48.8945C52.0841 47.9912 55.0089 47.1632 54.7969 47.0293C52.717 45.822 50.0511 48.7533 46.8408 46.376C46.6317 46.1983 54.0999 45.122 41.0908 44.6377C41.9698 44.887 42.8525 45.1373 43.7393 45.3867C41.8919 45.8038 28.8077 45.5984 27.0254 45.4141C21.9302 44.8841 26.4216 43.502 21.333 43.4912C24.6487 45.7526 8.6807 45.4056 9.75879 43.6113C8.60287 44.7502 4.54363 44.6915 0 44.3232V40.4023C1.49888 40.3764 2.75889 40.3665 3.2959 40.4043C2.65646 40.0249 1.43122 39.7753 0 39.6318V0H1544V51.0146ZM1255.34 59.8945C1235.24 60.676 1232.63 56.5691 1251.04 58.3184C1251.4 58.3554 1256.57 59.4891 1255.34 59.8945ZM1454.64 58.9932C1454.89 58.9513 1460.05 59.1216 1460.26 59.1787C1464.47 60.3898 1449.88 59.913 1454.64 58.9932ZM1422.23 57.7627C1428.39 55.8045 1429.44 59.2651 1428.91 59.3701C1422.21 60.7045 1426.6 58.2114 1426.39 58.0898C1425.93 57.8864 1421.16 59.0122 1422.25 57.7627C1422.24 57.7626 1422.23 57.7628 1422.23 57.7627ZM407.75 55.459C408.707 54.8305 414.861 55.2264 416.277 55.501C416.519 55.5531 415.446 57.2191 418.243 57.1182C420.464 57.0337 417.244 55.2904 421.441 55.6006C425.691 55.9118 420.002 57.0869 420.372 57.1777C420.86 57.2966 427.463 56.5806 427.258 57.5762C427.073 58.3142 420.087 57.7566 418.25 57.8975C415.93 58.0793 418.726 59.3354 414.861 59.0371C412.438 58.8505 413.802 56.697 413.291 56.583C412.851 56.4914 404.439 57.6601 407.764 55.4658C407.759 55.4635 407.754 55.4613 407.75 55.459ZM1189.21 57.3145C1187.08 57.1665 1185.64 58.7081 1186 58.8398C1187.64 59.4417 1191.63 58.2123 1189.21 57.3145ZM1082.55 57.8271C1080.66 56.0361 1086.94 55.7771 1091.07 56.5322C1092 56.7024 1095.45 58.5244 1091.5 58.8594C1091.64 56.6993 1085.54 55.8458 1082.55 57.8271ZM364.408 57.9121C364.716 57.7587 360.603 53.8051 370.402 56.4932C371.845 56.8869 366.666 57.8469 367.181 57.9932C368.25 58.2794 369.099 58.4173 369.783 58.4482C365.181 58.7183 360.487 58.8121 360.038 58.5693C357.898 57.4229 364.274 57.9753 364.408 57.9121ZM319.485 56.7793C314.502 56.818 318.053 59.4584 321.191 58.4482C321.387 58.3832 319.813 56.7788 319.485 56.7793ZM1155.05 57.6416C1153.16 57.4963 1148.42 57.4288 1147.88 58.0527C1147.23 58.8328 1154.19 58.6044 1155.05 57.6416ZM315.946 56.6504C312.121 54.2754 304.438 58.8192 310.508 58.457C311.091 58.4202 316.116 56.7662 315.946 56.6504ZM371.029 58.3672C372.966 57.9819 373.026 56.445 375.335 56.6523C382.247 57.2721 377.118 57.963 371.029 58.3672ZM1209.3 56.6416C1215.27 58.1556 1208.64 56.684 1208.89 58.2383C1212.91 58.3202 1222.94 58.4636 1216.06 56.8906C1214.72 56.5863 1211.17 56.7543 1209.3 56.6416ZM1379.46 58.2432C1379.94 57.1598 1381.09 56.3697 1385.5 56.8223C1384.13 57.3549 1381.31 57.7961 1379.46 58.2432ZM1203.78 56.0859C1203.14 56.5849 1198.82 58.1435 1202.54 58.0537C1204.27 58.0098 1207.05 56.2652 1203.78 56.0859ZM325.942 57.0068C325.44 56.8748 333.43 53.1974 321.871 55.8682C327.991 56.416 321.516 56.7259 321.611 57.0605C321.781 58.022 332.338 57.2682 334.442 57.7119C336.271 56.0259 327.655 57.4411 325.956 57.0068C325.952 57.0068 325.947 57.0069 325.942 57.0068ZM477.198 57.5234C478.575 56.5276 483.083 56.8775 485.973 56.9531C484.68 57.9501 480.155 57.6005 477.198 57.5234ZM281.649 56.501C281.231 56.3715 275.577 56.4283 275.731 57.0459C277.989 57.7638 281.837 57.3215 282.043 56.8154C282.053 56.7895 282.054 56.7634 282.045 56.7373C282.016 56.6575 281.89 56.5769 281.649 56.501ZM1200.84 56.4092C1200.02 56.1631 1178.03 55.1246 1179.35 57.0498C1181.21 56.8333 1206.16 57.9748 1200.84 56.4092ZM1393.98 57.0752C1390.43 56.3074 1398.76 56.155 1401.22 56.5039C1401.23 57.1981 1394.49 57.1873 1393.98 57.0752ZM1223.7 55.8145C1222.3 55.7935 1216.63 55.9603 1216.5 56.2168C1216.11 57.1041 1223.08 56.6621 1223.7 55.8145ZM240.048 56.5088C240.361 55.8218 223.974 55.4532 222.903 56.3418C225.415 56.0179 239.943 57.1333 240.048 56.5088ZM480.378 56.3877C479.088 56.019 485.784 55.4114 487.666 55.7803C487.535 56.5356 481.244 56.6277 480.378 56.3877ZM1037.04 55.124C1040.91 55.1538 1036.68 56.9452 1034.62 56.2637C1033.86 56.0104 1036.07 55.1177 1037.04 55.124ZM1067.93 56.2871C1054.65 57.3272 1057.8 51.6099 1075.08 53.6182C1074.54 53.871 1074 54.1231 1073.46 54.376C1093.44 55.3229 1074.81 54.7857 1069.93 55.0859C1068.07 55.2 1069.62 56.1626 1067.94 56.2939C1067.94 56.2917 1067.93 56.2894 1067.93 56.2871ZM1050.6 55.04C1051.34 54.9243 1056.98 55.7751 1058.97 55.6484C1056.17 57.0258 1045.65 55.8271 1050.6 55.04ZM1137.18 55.1592C1136.52 55.0214 1119.81 54.8456 1125.58 56.0762C1127.31 56.4467 1142.54 56.3732 1137.18 55.1592ZM1016.75 54.9395C1003.99 50.8272 1028.37 53.5625 1035.42 53.0605C1028.6 54.714 1019.75 54.4272 1031.79 56.1914C1014.18 56.4584 1021.52 54.8665 1020.82 54.7285C1019.98 54.5745 1017.3 55.116 1016.75 54.9395ZM379.255 55.5547C381.25 54.3882 387.635 55.3032 390.792 55.5137C388.924 56.4738 382.107 55.9588 379.255 55.5547ZM1378.87 53.5C1384.33 53.6453 1383.2 51.3476 1386.66 52.418C1387.22 52.5988 1389 57.3779 1383.01 55.5322C1381.94 55.2005 1386.17 54.1126 1378.87 53.5ZM1319.06 55.249C1317.43 55.2895 1312.4 54.8181 1311.98 55.2422C1311.44 55.7958 1318.71 56.2111 1319.06 55.249ZM359.509 55.1377C359.284 54.425 367.257 53.8389 367.821 55.6016C366.078 55.4543 359.749 55.5864 359.509 55.1377ZM1195.42 52.6426C1194.36 52.6564 1195.63 51.2429 1192.08 51.7539C1190.4 51.996 1195.56 53.5337 1194.41 53.8193C1193.66 53.997 1189.91 53.4094 1188.71 53.873C1188.37 54.0218 1192.19 55.4591 1193.3 55.4053C1194.87 55.3334 1193.35 54.2098 1195.07 54.2129C1200.78 54.2246 1205.78 55.051 1211.12 55.0674C1211.6 55.0667 1207.87 54.256 1211.98 54.2939C1212.61 54.2986 1216.41 55.4941 1221.33 55.3535C1232.19 51.7987 1240.22 55.4172 1253.95 54.21C1253.43 53.8641 1243.17 52.873 1242.55 52.835C1231 52.1547 1210.37 51.9508 1198.35 51.8682C1195.26 51.8456 1196.75 52.6228 1195.42 52.6426ZM137.931 55.0859C133.496 54.2429 137.026 51.512 140.67 52.8027C141.078 52.9506 143.963 56.2212 137.931 55.0859ZM1356.41 53.9258C1360.3 53.9161 1363.99 54.2336 1367.56 54.6641C1366.8 55.4252 1356.81 54.5039 1356.41 53.9258ZM196.141 54.6973C201.611 53.584 190.565 53.3368 190.542 54.2373C190.579 54.5791 195.947 54.7424 196.141 54.6973ZM438.039 54.4551C437.838 54.4085 437.166 52.9908 440.452 53.3184C444.186 53.689 440.506 54.9302 438.039 54.4551ZM180.093 53.5186C180.376 53.6881 180.552 53.9452 180.563 54.3594C179.818 53.8859 179.758 53.6408 180.093 53.5186ZM24.1562 52.9385C25.1889 52.8363 29.3816 53.3421 31.2412 53.3525C29.0506 54.7737 20.4022 53.3101 24.1562 52.9385ZM1269.26 52.6299C1266 52.3011 1266.66 53.7153 1266.87 53.7607C1269.32 54.2358 1272.95 53.0013 1269.26 52.6299ZM121.834 53.459C122.362 52.5899 127 53.1625 129.007 53.4365C128.922 54.2428 123.768 53.4212 121.834 53.459ZM1077.9 53.6777C1079.3 52.6857 1083.63 53.0006 1086.57 53.0938C1085.91 53.8324 1079.99 53.6156 1077.9 53.6777ZM348.341 53.3506C344.286 54.2877 345.165 50.9687 348.656 52.1582C348.793 52.2051 348.5 53.3139 348.341 53.3506ZM1376.46 53.3184C1377.38 53.3664 1378.18 53.4419 1378.87 53.5C1378.18 53.4817 1377.39 53.4261 1376.46 53.3184ZM454.051 50.8662C454.815 50.8313 455.821 52.02 456.086 52.0352C456.68 52.0571 470.853 51.6949 465.427 53.1777C464.506 53.4279 444.195 52.7055 441.394 52.5322C440.358 50.9016 449.202 52.5106 451.39 52.3584C451.758 52.3287 452.002 50.9731 454.045 50.873C454.047 50.8709 454.049 50.8684 454.051 50.8662ZM90.5576 52.2227C90.7495 52.1918 94.6726 52.3981 94.8164 52.4473C98.3067 53.704 86.4625 53.0746 90.5576 52.2227ZM757.19 52.5752C756.581 51.0648 765.471 52.0594 767.162 52.1982C766.532 52.8676 757.632 53.6629 757.19 52.5752ZM628.015 52.3115C631.024 52.1446 633.934 51.7085 634.933 52.8633C633.061 52.6818 627.695 53.1133 628.015 52.3115ZM1316.88 52.7617C1318.15 52.0474 1311.82 51.7988 1309.95 52.1689C1309.37 53.0497 1316.71 52.8614 1316.88 52.7617ZM1168.13 50.7217C1167.45 50.5657 1158.25 51.5356 1162.04 52.5732C1164.67 53.2943 1165.1 51.8572 1165.72 51.8564C1166.41 51.8651 1181.19 53.7131 1168.13 50.7217ZM1528.88 52.6094C1528.82 51.1596 1540.43 52.2035 1543.29 51.9062C1540.24 52.961 1533.29 52.8547 1528.88 52.6094ZM1463.47 52.4238C1470.33 52.1698 1463.99 51.0211 1470.83 51.4639C1469.17 52.6509 1468.1 52.7804 1463.47 52.4238ZM534.176 51.7119C534.337 51.6742 538.249 51.7672 538.398 51.8125C541.892 52.9673 530.147 52.6828 534.176 51.7119ZM726.111 51.6895C726.348 51.6447 731.508 51.7633 731.741 51.8184C735.971 52.9862 721.359 52.6579 726.111 51.6895ZM39.4531 49.7969C37.2178 51.031 31.5904 49.8295 28.2246 50.0703C23.637 50.4137 15.648 55.1752 19.2256 50.2295C25.8402 50.0857 32.8989 49.9537 39.4531 49.7969ZM1437.88 52.4062C1435.46 52.1444 1438.33 50.1766 1440.98 51.2939C1441.81 51.6487 1439.23 52.5489 1437.88 52.4062ZM1027.48 50.8633C1029.05 50.5652 1032.69 51.5619 1031.41 52.1562C1029.75 52.9181 1027.08 50.9488 1027.48 50.8633ZM1003 52.2871C998.885 50.8941 1015.66 49.3505 1019.11 50.252C1019.38 51.1045 1003.62 52.4776 1003 52.2871ZM1486.56 51.1758C1489.13 51.211 1492.74 51.2581 1493.4 52.2031C1491.68 52.0363 1486.5 51.8615 1486.56 51.1758ZM597.158 50.3877C598.99 49.4805 611.176 50.2552 613.939 51.1777C611.259 52.5057 594.85 51.5215 597.158 50.3877ZM1367.6 49.0244C1365.4 48.5389 1358.36 49.6419 1356.82 50.6963C1356.53 50.4868 1355.77 50.2091 1354.36 49.8721C1354.37 49.8721 1354.37 49.872 1354.38 49.8721C1352.51 49.4146 1295.61 48.4321 1333.75 50.834C1334.95 50.9109 1333.32 49.9365 1338.19 50.1504C1338.51 50.1664 1338.66 50.9507 1339.65 50.998C1341.94 51.1016 1354.07 51.7098 1356.52 51.1035C1356.54 51.2489 1356.69 51.3886 1357.03 51.5186C1360.01 52.6768 1369.31 49.3988 1367.6 49.0244ZM909.521 51.1406C913.012 50.7665 917.24 51.2228 920.908 51.2051C919.408 51.8172 911 51.9628 909.521 51.1406ZM393.312 51.1504C398.093 50.0885 388.3 49.646 384.888 50.6934C386.414 50.639 393.006 51.2204 393.312 51.1504ZM1356.82 50.6963C1357.07 50.882 1356.94 50.9993 1356.52 51.1035C1356.5 50.9667 1356.61 50.8386 1356.82 50.6963ZM921.189 50.1943C923.277 49.7848 927.058 50.2376 929.645 50.1963C929.202 50.8693 922.091 50.8816 921.189 50.1943ZM1374.57 49.6348C1374.36 49.5736 1367.92 49.0764 1368.79 50.0547C1370.06 51.4892 1376.38 50.1805 1374.57 49.6348ZM45.2656 49.7109C45.2555 49.0052 52.2559 49.214 52.5732 49.3291C54.8659 50.0808 47.9679 50.6867 45.2656 49.7109ZM773.77 49.1016C777.941 49.5108 783.1 49.3373 783.182 48.5127C783.268 48.6417 783.472 48.7788 783.809 48.917C784.148 49.0539 788.646 48.6802 790.605 48.9658C802.233 50.6619 745.61 49.8556 778.405 47.5938C776.858 48.0964 775.313 48.5989 773.77 49.1016ZM405.181 49.0908C404.243 48.6826 381.562 48.2117 394.432 49.582C395.153 49.6606 407.728 50.3358 405.181 49.0908ZM378.078 49.0811C377.748 48.0814 370.708 49.2037 372.196 49.6914C373.129 50.0021 378.264 49.7024 378.078 49.0811ZM671.678 48.0547C671.005 47.8744 664.504 48.5617 664.322 49.0898C668.136 49.6564 674.851 48.8947 671.678 48.0547ZM580.554 48.3916C578.17 47.3795 571.532 48.6142 573.253 49.0156C574.443 49.2909 582.931 49.4107 580.554 48.3916ZM562.389 47.1504C560.917 46.9934 559.038 48.6054 559.21 48.6768C560.698 49.2731 564.858 48.061 562.389 47.1504ZM684.422 47.9414C683.122 47.6482 679.021 47.9142 678.596 48.6045C680.622 48.9482 687.434 48.6256 684.422 47.9414ZM783.137 48.3828C783.164 48.4315 783.186 48.4678 783.182 48.5127C783.152 48.4683 783.139 48.4261 783.137 48.3828ZM548.089 47.4092C546.164 46.3782 540.795 46.4311 542.391 47.4678C542.548 47.5644 547.294 48.1613 548.089 47.4092ZM585.015 47.6816C589.73 46.3734 580.06 46.6486 576.705 46.6826C576.505 47.4453 584.674 47.77 585.015 47.6816ZM660.948 45.3975C648.89 42.4433 655.448 47.7933 657.586 47.3301C657.887 47.2639 661.238 45.4691 660.948 45.3975ZM404.491 46.248C401.827 45.6547 395.151 46.6515 397.161 47.2363C398.376 47.5965 407.546 46.9298 404.491 46.248ZM538.311 46.5752C536.553 46.4864 532.723 45.8056 531.378 45.998C527.585 46.5424 536.975 47.5836 538.311 46.5752ZM635.876 45.791C637.787 46.1113 638.33 47.1627 639.22 46.9141C639.523 46.8288 639.575 45.8277 640.611 45.5713C639.03 45.6446 637.452 45.7178 635.876 45.791ZM496.823 41.9121C505.219 46.085 504.377 42.8999 505.106 42.9199C506.697 42.9726 510.402 44.107 513.431 43.9385C509.962 44.3864 506.512 44.8342 503.08 45.2812C505.799 45.5955 529.384 47.2279 529.794 46.5586C530.493 45.6084 523.168 45.8742 522.962 45.7891C522.656 45.666 521.53 43.0121 520.855 42.9082C519.794 42.7434 499.875 42.589 496.823 41.9121ZM572.646 45.7793C572.248 45.7066 564.053 45.2953 564.123 45.9746C566.268 46.5007 577.268 46.69 572.646 45.7793ZM354.67 45.9004C355.985 45.3184 352.271 44.2875 350.684 44.5693C350.26 44.6445 352.968 46.6503 354.67 45.9004ZM481.771 45.5391C479.401 44.3014 490.103 44.8284 490.409 44.9668C492.187 45.8065 483.855 46.5515 481.771 45.5391ZM641.892 45.5059C644.765 45.6303 650.227 46.6531 649.605 45.1436C649.601 45.1435 649.597 45.1436 649.593 45.1436C647.019 45.2646 644.452 45.385 641.892 45.5059ZM363.327 45.7773C366.144 45.144 359.766 43.0135 356.516 44.5566C354.924 45.3484 362.923 45.8849 363.327 45.7773ZM35.4746 43.915C32.3849 43.7211 26.2834 43.0776 28.1152 44.293C28.2968 44.3976 35.4788 44.5578 35.4746 43.915ZM373.152 42.708C367.84 40.2437 370.319 43.3094 375.063 44.1387C376.518 43.0767 374.025 43.1089 373.152 42.708ZM37.0918 43.1885C35.7984 41.7189 30.4834 42.4187 27.2637 42.2217C28.3113 43.5441 34.0317 42.7591 37.0918 43.1885ZM20.1328 42.2129C19.6825 42.0833 10.3336 41.916 11.3584 42.4844C13.2029 43.5578 21.5075 42.6561 20.1328 42.2129ZM356.078 40.709C354.496 40.2592 339.091 40.5204 341.44 41.8232C342.241 42.2886 351.122 41.268 351.555 41.3604C352.18 41.4989 349.297 42.8679 354.089 42.6523C353.813 42.1723 356.597 40.8601 356.078 40.709ZM368.754 41.1191C363.505 39.2294 362.301 42.5834 366.244 42.6406C367.788 42.6652 369.503 41.392 368.754 41.1191ZM390.662 41.6475C388.848 41.3094 383.518 40.7877 379.979 41.8691C384.725 42.0171 389.632 42.1643 394.181 42.3057C394.722 41.6762 392.301 41.9453 390.649 41.6475C390.654 41.6475 390.658 41.6474 390.662 41.6475ZM23.6289 39.9951C24.4791 41.0332 30.8096 40.9926 33.4385 40.958C32.3179 39.6435 26.721 40.4176 23.6289 39.9951Z" fill="#ED2A38"/>
</svg>
