<?xml version="1.0" encoding="UTF-8"?>
<svg xmlns="http://www.w3.org/2000/svg" xmlns:xlink="http://www.w3.org/1999/xlink" id="Layer_1" viewBox="0 0 600 550">
  <defs>
    <style>.cls-1{mask:url(#mask);}.cls-2,.cls-3{fill:#fe8f71;}.cls-4,.cls-5,.cls-6,.cls-7{fill:#fff;}.cls-8,.cls-9{fill:#f2d8d8;}.cls-10,.cls-11{fill:#fece00;}.cls-12,.cls-13{fill:#c5724a;}.cls-14,.cls-13,.cls-3,.cls-11,.cls-5,.cls-6,.cls-9,.cls-7,.cls-15,.cls-16,.cls-17,.cls-18,.cls-19{stroke-linecap:round;stroke-linejoin:round;stroke-width:.8px;}.cls-14,.cls-13,.cls-3,.cls-9,.cls-7,.cls-15{stroke:#000;}.cls-11,.cls-6,.cls-19{stroke:#fece00;}.cls-5,.cls-17{stroke:#fe8f71;}.cls-15,.cls-16,.cls-17,.cls-18,.cls-19{fill:none;}.cls-16{stroke:#fff;}.cls-18{stroke:#f2d8d8;}</style>
    <mask id="mask" x="288.59" y="273.19" width="169.17" height="134.74" maskUnits="userSpaceOnUse">
      <g>
        <g>
          <path class="cls-4" d="M445.23,368.29c-50.12-94.99-105.8-86.48-145.87,1.31-4.49,9.84,26.86,20.31,52.41,19.22l-.22,19.11c30.79-2.18,74.68-16.05,93.68-39.64Z"></path>
          <path class="cls-4" d="M445.23,368.29c-50.12-94.99-105.8-86.48-145.87,1.31-4.49,9.84,26.86,20.31,52.41,19.22l-.22,19.11c30.79-2.18,74.68-16.05,93.68-39.64Z"></path>
        </g>
        <path class="cls-4" d="M373.14,301.44c13.59-2.46,37.18-24.16,38-28.25,15.31,12.12,23.88,36.3,20.23,59.83-3.28,.82-33.74,6.44-33.74,6.44l-24.49-38.02Z"></path>
      </g>
    </mask>
  </defs>
  <circle class="cls-2" cx="285.77" cy="150.98" r="113.03"></circle>
  <circle class="cls-10" cx="162.76" cy="361.3" r="93.68"></circle>
  <path d="M266.6,177.08h-29.97c4.42-7.41,4.86-13.63,4.86-22.71,5.24,15.96,21.95,11.92,25.11,22.71Z"></path>
  <g>
    <path class="cls-8" d="M291.76,138.64c0,13.77-13.05,31.15-26.82,31.15s-24.39-10.52-25.05-24.28c-.78-16.07,13.16-31.81,26.94-31.81s24.94,11.17,24.94,24.94Z"></path>
    <path class="cls-8" d="M248.64,162.47s9.87,3.33,10.2,7.21c12.19,4.54,8.87,19.73,8.87,19.73l20.29,3.33c-.55-10.53,3.21-37.58,8.76-41.35,.22-3.55-4.99-12.75-4.99-12.75l-43.12,23.83Z"></path>
    <path d="M296.57,145.53h-4.22c-20.17,0-35.84-18.75-35.84-38.93v-1.49l5.84-.42h22.12c25.39,0,32.26,20.31,32.26,40.95,0,14.98-3.39,31.45-3.39,31.45h-24.46c.82-11.91,2.78-17.01,7.1-24.33l.59-7.23Z"></path>
    <path d="M241.49,123.71c0-12.56,9.39-19.02,15.94-19.02h7.7l-6.06,10.15c-4.5,.08-15.48,11.76-17.69,19.38,.25-2.95,.11-10.52,.11-10.52Z"></path>
    <path d="M321.62,230.03c-.37-30.65-29.15-32.26-32.92-42.09h-20.92c-1.97,14.75-23.96,36.69-23.96,36.69,17.29,90.68,78.45,59.62,77.8,5.4Z"></path>
    <path class="cls-8" d="M220.81,214.71c-11.12-2.65-27.4-4.03-37.18,5.85-13.58,13.71-2.68,18.94,.82,17.81l2.88-.41c.04,10.64,8.5,11.24,15.16,5.23,0,0,.66,5.55,1.86,6.22,6.22,3.49,10.7-3.71,15.4-6.11,2.07,4.8,18.39,34.68,42.75,42.09,11.12,2.47,28.99,2.95,47.33-14.58-1.69-4.16,9.82-19.86,3.6-29.48-11.06-17.12-25.71-11.14-25.71-11.14,0,0-13.22,15.92-17.69,17.69-10.71-12.12-26.37-27.73-49.22-33.17Z"></path>
    <path class="cls-15" d="M292.19,192.68c-2.28-2.33-3.81-1.83-3.81-4.82,0-10.05,.72-24.41,6.5-33.03"></path>
    <path class="cls-18" d="M269.91,247.99c7.83-5.1,19.76-17.8,24.68-30.74"></path>
    <path class="cls-15" d="M187.46,237.76c-18.21,5.1-11.29-21.34,11.9-24.38,17.48-2.29,47.23,3.93,72.22,36.99"></path>
    <path class="cls-15" d="M209.05,219.45c-32.32,10.63-22.39,35.96-8.85,25.15"></path>
    <path class="cls-15" d="M219.15,225.4c-15.68,5.12-19.81,20.56-14.26,24.44,5.3,3.71,14.74-7.75,18.13-10.15"></path>
    <path class="cls-15" d="M257.87,114.85c-21.84,15.61-22.19,34.4-11.79,47.06,8.03,9.77,22.82,3.51,21.62,26.44-.36,6.8-11.1,22.84-23.96,35.94"></path>
    <path class="cls-15" d="M264.15,142.94c0-2.46,1.99-4.45,4.45-4.45s4.45,1.99,4.45,4.45"></path>
    <path class="cls-15" d="M245.81,142.94c0-2.46,1.99-4.45,4.45-4.45,2.19,0,4.01,1.58,4.38,3.67"></path>
    <path class="cls-15" d="M271.16,152.32c0,3.39-2.75,6.13-6.13,6.13-3.39,0-6.13-2.75-6.13-6.13"></path>
    <polyline class="cls-15" points="269.21 129.97 251.53 144.82 259.64 147.93"></polyline>
    <path class="cls-19" d="M221.16,266.94l-37.82-14.07v-68.7c0-3.44-2.14-6.53-5.37-7.73l-68.17-25.46c-3.39-1.27-7.01,1.24-7.01,4.86v70.53c0,2.44,1.52,4.62,3.8,5.48l112.05,41.79c2.34,.87,4.83-.86,4.83-3.36h0c0-1.5-.93-2.83-2.33-3.36Z"></path>
    <line class="cls-6" x1="183.34" y1="260.48" x2="183.34" y2="244.82"></line>
    <line class="cls-15" x1="164.98" y1="150.78" x2="169.38" y2="133.42"></line>
    <line class="cls-15" x1="175.9" y1="154.73" x2="188.24" y2="141.76"></line>
    <polyline class="cls-15" points="198.61 159.8 181.38 164.66 198.85 159.88"></polyline>
    <path class="cls-15" d="M256.51,105.12v1.49c0,20.17,15.66,36.53,35.84,36.53h4.22"></path>
    <path class="cls-15" d="M266.44,177.08h-29.81c3.36-5.44,4.86-10.76,4.86-22.71"></path>
    <path class="cls-15" d="M241.49,133.76v-10.6c0-12.12,9.17-18.47,15.72-18.47h27.25c22.69,0,32.67,21.71,32.35,41.89-.33,20.64-3.44,30.5-3.44,30.5h-24.42"></path>
    <path class="cls-15" d="M255.03,132.86c-1.19-1.29-2.88-2.11-4.78-2.11s-3.59,.82-4.78,2.11"></path>
    <path class="cls-9" d="M291.13,145.12c1.52-3.77,5.81-5.59,9.58-4.07,3.77,1.52,5.59,5.81,4.07,9.58-1.52,3.77-5.81,5.59-9.58,4.07-.71-.29-1.36-.67-1.92-1.14"></path>
  </g>
  <g>
    <path class="cls-12" d="M354.71,467.69c-2-1.76-3.16-4.27-3.16-6.93v-90.51l-45.76,9.01c-3.16,37.94,.55,90.83,8.85,115.46,3.38,10.05,11.9,12.67,14.07,11.55v-.02c4.18,5.22,9.37,7.97,14.37,5.23l-.35-.8c3.07,4.04,6.55,6.34,10.18,4.57,7.92-3.88-3.28-29.32-3.93-38.49l1.36,6.06s11.03,8.84,15.18,1.53c2.15-3.79-4.59-11.18-10.82-16.66Z"></path>
    <path class="cls-12" d="M453.85,212.91c1.21-.78,2.27-2.16,2.93-4.34l.42-.07c5.3-1.1,5.8-15.21-2.71-18.4l-12.37,.27c2.9-4.25,2.2-9.38-.42-10.99-5.05-3.1-8.07,4.26-12.51,5.21-3.82,1.04-6.31-.97-9.06-.27-5.4,1.38-13.06,17.64-5.26,29.67-2.53,2.68-3.05,6.47,.89,13.13,9.25,15.63,7.39,53.05-39.26,73.66l55.94,22.84c28.29-19.32,40.22-73.38,21.42-110.71Z"></path>
    <g>
      <path class="cls-4" d="M445.23,368.29c-50.12-94.99-105.8-86.48-145.87,1.31-4.49,9.84,26.86,20.31,52.41,19.22l-.22,19.11c30.79-2.18,74.68-16.05,93.68-39.64Z"></path>
      <path class="cls-4" d="M445.23,368.29c-50.12-94.99-105.8-86.48-145.87,1.31-4.49,9.84,26.86,20.31,52.41,19.22l-.22,19.11c30.79-2.18,74.68-16.05,93.68-39.64Z"></path>
    </g>
    <path class="cls-4" d="M373.14,301.44c13.59-2.46,37.18-24.16,38-28.25,15.31,12.12,23.88,36.3,20.23,59.83-3.28,.82-33.74,6.44-33.74,6.44l-24.49-38.02Z"></path>
    <g class="cls-1">
      <g>
        <line class="cls-19" x1="302.09" y1="344.27" x2="430.93" y2="283.56"></line>
        <line class="cls-19" x1="288.99" y1="371.78" x2="439.23" y2="291.42"></line>
        <line class="cls-19" x1="292.04" y1="379.32" x2="444.47" y2="313.15"></line>
        <line class="cls-19" x1="326.55" y1="394.71" x2="448.4" y2="327.67"></line>
        <line class="cls-19" x1="331.35" y1="403.01" x2="457.35" y2="351.26"></line>
      </g>
    </g>
    <path class="cls-15" d="M351.55,388.87c-25.27,.56-56.58-9.66-52.19-19.27,38.63-84.64,91.78-95.59,140.46-11.14"></path>
    <path class="cls-15" d="M376.5,300.77c46.65-20.61,48.51-58.03,39.26-73.66-4.75-8.03-3.02-11.9,.9-14.66,3.09-2.17,5.77-.86,8.72-4.14,2.95-3.28,1.78-10.23,8.69-10.07,9.01,.21,9.43,15.9-1.7,23.32"></path>
    <path class="cls-15" d="M432.43,323.62c28.36-19.37,40.48-73.25,21.48-110.59"></path>
    <path class="cls-15" d="M413.41,210.43c-3.52-9.76-1.12-20.58,4.31-24.76,4.26-3.28,7.28-.2,11.46-1.09,4.44-.95,7.46-8.31,12.51-5.21,4.74,2.91,3.21,17.44-14.7,17.22"></path>
    <path class="cls-15" d="M438.13,215.62c1.96,3.5,9.15,5.28,12.14-3.29,3.3-9.45-1.5-15.68-3.02-16.55"></path>
    <path class="cls-15" d="M449.79,213.56c2.76,.69,6.16-.67,7.31-6.22,1.77-8.59-4.06-14.51-5.32-15.06"></path>
    <path class="cls-15" d="M457.2,208.5c5.3-1.1,5.8-15.21-2.71-18.4"></path>
    <path class="cls-15" d="M468.65,172.01l-8.24,3.61c-1.38,.6-2.68,1.37-3.89,2.28l-49.4,37.28c-1.83,1.38-2.19,3.98-.81,5.8h0c1.38,1.83,3.98,2.19,5.81,.81l49.4-37.28c1.2-.91,2.29-1.95,3.25-3.11l5.73-6.93c1.06-1.28-.33-3.12-1.85-2.45Z"></path>
    <path class="cls-7" d="M468.65,172.01l-8.24,3.61c-1.38,.6-2.68,1.37-3.89,2.28l-49.4,37.28c-1.83,1.38-2.19,3.98-.81,5.8h0c1.38,1.83,3.98,2.19,5.81,.81l49.4-37.28c1.2-.91,2.29-1.95,3.25-3.11l5.73-6.93c1.06-1.28-.33-3.12-1.85-2.45Z"></path>
    <path class="cls-13" d="M429.18,184.58c4.44-.95,7.46-8.31,12.51-5.21,4.74,2.91,3.21,17.44-14.7,17.22"></path>
    <path class="cls-15" d="M457.47,177.17c-1.83,1.38-2.19,3.98-.81,5.8h0c1.38,1.83,3.98,2.19,5.81,.81"></path>
    <path class="cls-14" d="M468.65,172.01l-6.36,2.79c-.33,1.2-.14,2.53,.67,3.59h0c.74,.98,1.83,1.52,2.96,1.62l4.58-5.54c1.06-1.28-.33-3.12-1.85-2.45Z"></path>
    <path class="cls-13" d="M415.75,227.11c-4.75-8.03-3.51-12.39,.41-15.15,3.09-2.17,6.26-.37,9.21-3.64,2.95-3.28,1.78-10.23,8.69-10.07,9.01,.21,9.43,15.9-1.7,23.32"></path>
    <g>
      <path class="cls-17" d="M496.83,268.28c-8.96,24.19-6.1,51.77,8.61,73.8"></path>
      <polyline class="cls-17" points="502.38 281.87 496.82 268.3 484.69 276.53"></polyline>
    </g>
    <g>
      <path class="cls-15" d="M562.64,263.4c-11.42-7.11-24.39-11.25-37.67-12.17"></path>
      <polyline class="cls-15" points="548.21 266.12 562.62 263.39 556.99 249.85"></polyline>
    </g>
    <polyline class="cls-15" points="377.17 169.72 363.55 175.18 361.02 160.73"></polyline>
    <ellipse class="cls-11" cx="577.62" cy="275.94" rx="11.45" ry="11.42" transform="translate(-55.28 179.86) rotate(-16.9)"></ellipse>
    <g>
      <line class="cls-15" x1="499.82" y1="238.91" x2="513.91" y2="257.14"></line>
      <line class="cls-15" x1="515.98" y1="240.98" x2="497.75" y2="255.07"></line>
    </g>
    <path class="cls-15" d="M580.74,252.55c4.59-43.24-9.17-90.41-45.86-108.1-48.86-23.56-84.43,27.69-68.42,35.61,20.45,10.13,40.11-58.27-29.29-59.84-23.03-.52-58.58,19.57-73.13,54.45"></path>
    <polygon class="cls-5" points="516.66 384.9 489.94 359.15 526.1 348.37 516.66 384.9"></polygon>
    <path class="cls-15" d="M411.49,273.13c13.21,8.3,23.97,35.38,20.15,59.62"></path>
    <g>
      <path class="cls-12" d="M318.01,291.8c8.13,17.17,29.46,24.65,47.21,15.45,17.9-9.29,23.39-30.96,12.85-47.19-9.79-15.08-29.94-19.73-45.51-11.37-15.45,8.3-22.12,27.14-14.56,43.11Z"></path>
      <path d="M365.49,307.58c-.08-.02-.16-.04-.24-.06-7.81,3.85-15.74,4.51-23.48,3.09-4.39,3.19-8.71,7.11-12.93,11.74,16.23-.93,29.69-6.24,36.66-14.77Z"></path>
      <path class="cls-15" d="M318.01,291.8c8.13,17.17,29.46,24.65,47.21,15.45,17.9-9.29,23.39-30.96,12.85-47.19-9.79-15.08-29.94-19.73-45.51-11.37-15.45,8.3-22.12,27.14-14.56,43.11Z"></path>
      <path class="cls-15" d="M341.82,273.75c3.26,3.84,12.82,7.3,20.82,5.92"></path>
      <circle cx="364.96" cy="258.52" r="1.31" transform="translate(23.08 546.88) rotate(-75.46)"></circle>
      <circle cx="350.32" cy="269.37" r="1.31" transform="translate(1.62 540.83) rotate(-75.46)"></circle>
      <path class="cls-15" d="M347.95,254.63c8.84,9.66,17.44,6.63,19.24,9.91,.91,2.96-2.29,5.73-8.76,4.18"></path>
      <path class="cls-15" d="M342.19,268.97c.81,1.62,.58,3.64-.74,5.03-1.19,1.25-2.93,1.66-4.48,1.2"></path>
      <path class="cls-14" d="M318.01,291.8c-7.57-15.98-.89-34.81,14.56-43.11,7.13-3.83,15.23-4.92,22.85-3.54l.72,.14c4.09-9.74-1.88-22.77-13.43-22.19-6.87,.34-5.4,3.77-11.38,5.16-4.25,.99-6.55-2-11.87,1.88-5.16,3.77-3.16,7.89-6.14,10.73-3.36,3.19-6.31-.9-10.15,5.08-4.02,6.24-.21,10.83-1.15,14.99-.74,3.28-6.06,3.85-6.14,10.32-.09,6.8,4.34,8.84,4.59,11.55,.25,2.7-2.05,5.17-.41,9.42,2.21,5.73,9.17,4.67,14.9,5.16l6.5,.11c-1.31-1.75-2.46-3.65-3.43-5.68Z"></path>
      <path d="M356.3,245.67c-11.74,.82-28.33,7.52-31.45,22.04l2.28,1.65c1.8,1.3,2.43,3.71,1.45,5.7-2.45,4.96-3.36,12.17,1.68,18.28,1.08,1.32,.53,3.31-1.08,3.89l-8.8,3.19-6.88-12.99s-7.86-30.46,8.13-39.53c16-9.06,30.08-4.2,30.08-4.2l4.59,1.97Z"></path>
      <path class="cls-13" d="M329.55,296.65c-1.23-1.95-3.28-3.37-5.76-3.72-4.48-.63-8.65,2.48-9.3,6.95-.66,4.47,2.44,8.61,6.92,9.25,4.48,.63,8.65-2.48,9.3-6.95"></path>
    </g>
    <g>
      <path class="cls-15" d="M305.79,379.27c-3.16,37.94,.55,90.83,8.85,115.46,3.38,10.05,11.9,12.67,14.07,11.55"></path>
      <path class="cls-15" d="M351.55,370.26v90.51c0,2.66,1.17,5.17,3.16,6.93,6.23,5.48,12.96,12.87,10.82,16.66-4.15,7.32-15.18-1.53-15.18-1.53"></path>
      <path class="cls-15" d="M348.98,476.77c.66,9.17,11.85,34.61,3.93,38.49-9.76,4.78-18.51-19.98-20.8-28.61"></path>
      <path class="cls-15" d="M320.32,485.45c1.64,14.58,12.61,31.61,22.77,26.04"></path>
    </g>
  </g>
  <g>
    <g>
      <rect class="cls-14" x="225.51" y="318.69" width="33.81" height="64.37" rx="6.03" ry="6.03" transform="translate(2 -1.37) rotate(.33)"></rect>
      <rect class="cls-3" x="230.61" y="318.71" width="28.71" height="64.37" rx="5.53" ry="5.53" transform="translate(2 -1.39) rotate(.33)"></rect>
      <path class="cls-4" d="M238.86,336.12c-3.43,8.42,12.13,5.17,17.3,11.81h0c-11.18-3.42-24.89,2.41-16.76,12.23l-.43,.25c-3.23,3.26-1.98,7.94,1.24,11.47l.45-.11c-.72,1.67-1.41,3.88,.43,6,2.32,2.66,11.54-1.62,18.1,1.76,.24-.25,1.37-1.58,1.37-1.89l.24-40.81c-11.25-6.88-20.65-3.9-21.96-.7Z"></path>
      <circle cx="239.02" cy="326.85" r="3.01" transform="translate(-130.44 492.57) rotate(-77.98)"></circle>
    </g>
    <path class="cls-15" d="M140.51,447.25c4.51-13.33,9.43-24.67,14.62-34.24"></path>
    <path d="M189.7,375.93c-13.59-4.56-30.9-2.74-49.96,10.93,26.73,2.31,45.68-4.12,49.96-10.93Z"></path>
    <path class="cls-16" d="M117.12,408.03c-5.57,12.34,3.53,18.73,7.86,17.91,8.63-1.64,5.09-18.89,.11-17.47-5.24,1.5,3.96,21.07,17.2,14.91,12.89-6-2.38-27-7.19-20.86-3.61,4.61,14.24,12.04,20.58,6.1,5.99-5.61-.78-13.04-15.19-15.55"></path>
    <path class="cls-16" d="M184.71,388.16c-8.98,11.73-2.27,21.1,5.9,20.8,13.59-.49,15.24-18.94,9.26-19.68-6.29-.77-6.34,26.43,10.64,25.83,6.3-.22,9.21-4.63,9.95-9.77"></path>
    <path class="cls-16" d="M181.93,456.02c13.76-5.4,13.43-21.62,5.4-25.39-8.88-4.17-29.76,10.82-20.31,16.71,7.37,4.59,17.14-19.9,.16-20.47-6.3-.21-10.91,5.16-12,10.23"></path>
    <g>
      <path class="cls-15" d="M255.84,347.96c-5.08-6.71-20.68-3.68-17.13-12.06,2.67-6.29,37.42-9.12,41.54,45.27,1.15,15.19-1.67,39.09-13.56,55.43-9.98,13.71-31.26,9.91-36.13-6.34-9.35-31.24-23.94-48.26-38.59-53.5-21.69-8.67-53.8-.9-87.51,47.95"></path>
      <path class="cls-15" d="M255.84,347.96c-11.13-3.58-23.42,3.16-16.93,11.99"></path>
      <path class="cls-15" d="M257.43,357.83c-20.42-5.02-24.22,8.03-17.09,14.65"></path>
      <path class="cls-15" d="M257.3,367.68c-10.64-3.16-21.6,4.54-15.92,10.11,3.52,3.45,11.46-2.6,17.98,2.19"></path>
    </g>
    <path class="cls-9" d="M140.15,354.69c4.04,18.92,23.42,31.33,43.16,26.36,19.92-5.01,30.42-25.2,23.79-43.75-6.17-17.24-25.05-26.56-42.43-21.92s-28.28,21.71-24.52,39.31Z"></path>
    <path class="cls-9" d="M177.02,326.24c2.81,5.84,5.5,9.42,11.41,13.2l-8.2,4.5"></path>
    <path class="cls-15" d="M136.64,358.29c-9.99-25.72,10.03-52.61,33.84-53.32,6.21-.19,6.93-4.91,10.16-4.97,2.41-.04,4.38,2.52,4.85,4.69,.7-1.73,4.36-7.61,9.91-6.99,4.84,.54,5.6,6.3,3.6,9.96,1.48-2.78,7.42-5.46,10.92-1.59,2.35,2.59,1.08,8.54-4.84,8.91"></path>
    <path class="cls-15" d="M140.41,355.7c6.55,12.64,21.69,18.49,35.26,13.72"></path>
    <g>
      <path class="cls-14" d="M170.4,347.91c-1.77-.39-3.43,1.12-3.12,2.91,.62,3.63,3.36,6.69,7.17,7.52,3.69,.8,7.35-.71,9.46-3.57,1.17-1.58,.36-3.83-1.56-4.25l-11.94-2.6Z"></path>
      <path class="cls-7" d="M183.61,355.13l-16.16-3.52c-.07-.26-.12-.52-.17-.79-.31-1.78,1.36-3.29,3.12-2.9l12.05,2.63c1.77,.39,2.66,2.45,1.63,3.94-.15,.22-.31,.43-.48,.64Z"></path>
    </g>
    <circle cx="172.4" cy="339.55" r="1.47"></circle>
    <path class="cls-15" d="M174.87,332.41c-.84-1-2.11-1.64-3.52-1.58-1.56,.06-2.89,.92-3.63,2.18"></path>
    <path class="cls-15" d="M193.64,330.85c-.84-1-2.11-1.64-3.52-1.58-1.56,.06-2.89,.92-3.63,2.18"></path>
    <circle cx="191.23" cy="337.44" r="1.47"></circle>
    <ellipse class="cls-14" cx="139.75" cy="359.23" rx="8.59" ry="11.18" transform="translate(-128.13 82.07) rotate(-22.77)"></ellipse>
    <ellipse cx="173.84" cy="369.51" rx="5.63" ry="4.11" transform="translate(-62.25 36.31) rotate(-10.12)"></ellipse>
  </g>
  <path class="cls-15" d="M105.22,311.21c4.18-2.69,8.28-5.71,12.24-9.08,33.59-28.57,44.75-70.63,24.92-93.93-19.82-23.3-63.12-19.03-96.71,9.55C12.08,246.33,.92,288.38,20.74,311.68c13.98,16.43,39.63,19.13,65.32,9.29l38.22,11.7-19.07-21.46Z"></path>
  <path class="cls-18" d="M330.5,227.57c-4.25,.99-6.63-1.81-11.96,2.07-5.16,3.77-3.08,8.08-6.06,10.92"></path>
  <path class="cls-15" d="M82.57,226.81c-17.75,2.19-21.94,20.73-8.46,29.89,11.41,7.75,38.64-6.63,28.75-17.52-7.6-8.37-24.25,22.92-2.52,29.04,8.07,2.27,14.53-3.94,16.05-9.78"></path>
  <g>
    <circle class="cls-2" cx="53.73" cy="283.83" r="19.82"></circle>
    <g>
      <circle cx="47.17" cy="281.86" r="1.88"></circle>
      <circle cx="58.28" cy="278.72" r="1.88"></circle>
    </g>
    <path class="cls-15" d="M44.21,288.95c3.08,2.76,7.46,3.94,11.74,2.73,4.28-1.21,7.39-4.51,8.57-8.47"></path>
  </g>
  <g>
    <rect class="cls-19" x="336.09" y="69.12" width="85.23" height="46.16" transform="translate(1.8 191.51) rotate(-28.44)"></rect>
    <polygon class="cls-19" points="380.59 95.67 330.24 92.21 405.18 51.61 380.59 95.67"></polygon>
    <polygon class="cls-19" points="380.59 95.67 373.24 95.16 352.23 132.8 427.17 92.2 384.17 89.24 380.59 95.67"></polygon>
  </g>
</svg>
