<?xml version="1.0" encoding="UTF-8"?>
<svg xmlns="http://www.w3.org/2000/svg" xmlns:xlink="http://www.w3.org/1999/xlink" id="Layer_1" viewBox="0 0 500 500">
  <defs>
    <style>.cls-1{mask:url(#mask);}.cls-2,.cls-3{fill:#0074bf;}.cls-4{fill:#fff;}.cls-5,.cls-6{fill:#f5abbb;}.cls-7,.cls-8{fill:#f2d8d8;}.cls-9{fill:#ace3fe;}.cls-10,.cls-11{fill:#29ae81;}.cls-12,.cls-11,.cls-6,.cls-8,.cls-3,.cls-13{stroke:#000;stroke-linecap:round;stroke-linejoin:round;stroke-width:.8px;}.cls-13{fill:none;}</style>
    <filter id="luminosity-noclip-2" x="204.83" y="-10442" width="45.67" height="32766" color-interpolation-filters="sRGB" filterUnits="userSpaceOnUse">
      <feFlood flood-color="#fff" result="bg"></feFlood>
      <feBlend in="SourceGraphic" in2="bg"></feBlend>
    </filter>
    <mask id="mask" x="204.83" y="-10442" width="45.67" height="32766" maskUnits="userSpaceOnUse"></mask>
  </defs>
  <circle class="cls-9" cx="146.68" cy="223.29" r="62.9"></circle>
  <path class="cls-9" d="M211.34,157.78c-38.49-38.49-18.77-104.79,34.66-115.21,59.93-11.69,124.41,5.68,170.83,52.1,46.42,46.42,63.79,110.9,52.1,170.83-10.42,53.43-76.71,73.15-115.21,34.66L211.34,157.78Z"></path>
  <g>
    <path class="cls-2" d="M420.2,315.22c-2.9-5.43-18.95,7.19-32.25-5.71-5.23-5.08-19.65-21.55-35.2-29.82l-17.93,40.77c23.78,11.15,44,65.17,55.16,59.64,4.58-2.27,3.6-5.41,2.06-11.56,3.55,6.64,7.14,8.55,10.25,7.03,2.95-1.45,4.03-7.28,2.79-13.38,3.5,4.71,6.13,7.26,9,5.65,6.55-3.68,1.43-24.52-5.86-37.36,10.55-2.16,16.04-7.66,11.97-15.26Z"></path>
    <path class="cls-13" d="M352.69,279.53c14.72,6.95,34.99,31.98,41.67,34.33,14.33,5.05,23.16-3.44,26.28,2.09,4.23,7.51-3.92,12.97-14.27,15.36"></path>
    <path class="cls-13" d="M400.82,331.42c-4.17,3.84-11.94,6.22-19.6-.29"></path>
    <path class="cls-13" d="M394.97,339.48c6.45,12.31,11.21,30.11,17.77,28.84,8.91-1.73,2.68-23.99-4.62-37.46"></path>
    <path class="cls-13" d="M383.32,350.46c5.17,8.66,10.47,27.98,17.94,25.49,5.55-1.85,5.09-10.19,2.88-16.04"></path>
    <path class="cls-13" d="M327.42,317.94c28.15,4.38,50,66.28,62.29,62.38,3.91-1.24,4.75-5.43,2.71-11.01"></path>
  </g>
  <g>
    <path class="cls-2" d="M286.44,334.23c10.95,53.28,58.75,123.9,73.42,126.52,10.09,1.81,38.01-34.52,35.76-41.36-3.84-11.7-20.2,1.19-27.64,7.27-18.67-22.91-49.5-66.42-58.66-100.24"></path>
    <path class="cls-13" d="M367.97,426.66c-18.64-22.28-49.98-65.84-58.66-100.26"></path>
    <path class="cls-13" d="M286.44,334.23c10.77,48.84,46.67,104.58,68.95,124.59,2.5,2.24,6.16,2.51,8.98,.7,14.67-9.41,35.51-35.53,30.17-43.05-4.83-6.79-23.84,6.62-30.04,13.65"></path>
    <path class="cls-13" d="M386.16,420.15c-7.99,6.06-17.59,15.26-23.33,23.53"></path>
    <path d="M289.84,348.07l12.4-16.69c-7.99,1.79-15.73,2.41-15.73,2.41l3.34,14.27Z"></path>
  </g>
  <path class="cls-2" d="M210.02,296.32c-10.01,12.4-35.03,27.24-51.61,26.34l-5.36-47.56c17.28,8.58,24.08,2.5,32.43-5.43l24.55,26.65Z"></path>
  <path class="cls-2" d="M146.82,323.59l2.38-34.93c-7.51,.43-15.41-1.66-22.99-8.17-7.79,6.51-13.92,14.69-16.86,26.09,12.5,11.06,25.29,15.98,37.46,17.01Z"></path>
  <path class="cls-2" d="M91.54,288.4l13.62-10.34,.49-2.68c-5.98-2.02-13.91-4.71-19.03-6.45-.94,5.85,.21,12.2,4.92,19.47Z"></path>
  <path class="cls-13" d="M126.21,280.49c23.91,20.55,50.91-2.88,59.26-10.81"></path>
  <path class="cls-4" d="M170.21,265.21c-1.19-4.7,.13-7.09,.13-7.09,0,0,8.22-2.27,12.07-3.04l-5.27-21.46c-14.98,3.81-29.41,7.77-42.24,13.81,6.19,4.7,8.12,11.09,3.55,14.92-6.01,5.04-15.22-1.35-23.61-4.75-2.53,1.83-4.89,4.09-7.14,6.68l-2.54,13.77-8.79,3.25c-.98,1.8-5.61,9.82-6.62,11.68-6.32,10.25-9.83,26.11-11.74,31.92-2.14,6.54-4.71,27.84,.77,28.74,1.02,.17,2.87-.65,3.22-4.69l9.39-10.86c-.58,4.51-.36,19.82,5.05,19.98,6.07,.18,2.93-13.01,5.1-18.64,8.39,.77,11.71-2.66,10.85-5.01-.96-2.63-9.06-3.41-9.34-6.86-.64-8.08,12.91-40.48,26.16-49.72,3.93-2.74,9.54,2.74,5.96,6.56-6.17,6.58-5.93,15.21,3.81,14.9l38.05-11.41c12.84-11.18-5.46-17.31-6.82-22.68Z"></path>
  <polygon points="178.27 243.97 186.81 254 175.67 256.61 178.27 243.97"></polygon>
  <path class="cls-12" d="M159.07,241.33l-3.7-.87c-3.87,1.41-8.07,2.09-11.87,3.33-2.93,1.14-5.82,2.34-8.61,3.65,.93,.71,2.3,3.42,3.03,4.19,9.42,1.88,17.92-3.9,21.14-10.3Z"></path>
  <path class="cls-2" d="M314.94,329.06c-54.38,18.46-110.83-9.46-130.68-62.13-20.32-53.91,6.9-114.08,60.81-134.4,53.91-20.32,114.08,6.9,134.4,60.81,19.24,51.05-4.15,107.71-52.46,130.84"></path>
  <g>
    <path class="cls-3" d="M250.67,326.6c-10.19,57.04-71.59,78.27-83.81,89.46-1.34,1.22-1.88,3.09-1.4,4.84,4.69,16.85,20.58,42.07,29.05,39.78,5.36-1.45,4.48-11.9,1.98-21.15,8.5-3.01,44.29-38.54,53.65-49.8,13.73-16.53,25.64-47.02,25.22-57.23"></path>
    <line class="cls-3" x1="194.42" y1="440.14" x2="196.65" y2="439.51"></line>
    <path class="cls-13" d="M171.1,421.72c3.66,10.75,12.81,31.35,23.78,33.38"></path>
  </g>
  <path class="cls-13" d="M109.36,306.58c45.06,39.87,93.89-.05,103.68-13.95"></path>
  <path class="cls-4" d="M206.29,436.43c4.27,10.76,12.93,24.63,15.41,24.39,15.97-1.55,40.11-25,41.93-29.21,1.19-2.75-1.03-7.15-4.98-8.55-10.03-3.55-28.25,5.01-34.06-1.16-3.67,.63-17.2,5.91-18.3,14.53Z"></path>
  <path class="cls-13" d="M185.37,269.74c-22.37-54.61,4.86-116.54,59.7-137.22,53.91-20.32,114.08,6.9,134.4,60.81,25.23,66.92-22.81,143.49-104.2,141.5"></path>
  <g class="cls-1">
    <path class="cls-13" d="M250.1,329.49c-17.02-5.45-32.55-15.23-44.87-28.55"></path>
  </g>
  <path d="M213.48,292.75l2.85,18.21c-3.61-2.18-7.97-6.52-11-9.83,2.12-2.2,8.15-8.37,8.15-8.37Z"></path>
  <path class="cls-11" d="M243.28,257.23c-5.49,1.37-14.66,13.95-12.87,24.32,1.79,10.37,27.54,23.24,30.4,25.75s17.98,22.53,30.04,18.6c16.45-5.36,12.95-48.37,6.08-54.36-5.9-5.14-22.93-2.8-34.69-5.36-10.33-2.25-15.61-9.78-18.95-8.94Z"></path>
  <path class="cls-11" d="M359.07,300.3c22.72-25.04,32.51-60.37,24.2-94.62-13.34-2.61-36.63-5.43-41.3-3.88-5.36,1.79-22.36,28.1-18.24,43.98,2.5,9.66,26.1,4.65,29.68,6.08,3.31,1.32-2.24,35.62,5.66,48.43Z"></path>
  <path class="cls-11" d="M209.3,253.74c12.19-3.86,1.97-15.41,3.58-19.52,1.61-4.11,23.78-24.2,26.1-29.38,2.32-5.19,7.12-23.13-2.26-27.95-8.34-4.29-12.99,6.91-19.19,1.31-6.57-5.93,5.32-17.02-5.43-25.65-.51,.46-1.01,.93-1.52,1.4-24.39,22.84-36.72,56.53-32.09,90.27,13.89-3.66,18.75,13.35,30.82,9.53Z"></path>
  <path class="cls-11" d="M256.15,140.11c9.11-6.07,31.65,2.15,32.72,8.22,1.68,9.52-22.18,19.17-28.25,18.77-13.59-.89-15.2-19.85-4.47-27Z"></path>
  <path class="cls-11" d="M377.17,187.75c-10.66-24.02-29.47-42.19-51.89-52.46-.34,12.74-1.72,20.26,.42,21.63,2.5,1.61,11.26,1.61,13.41,5.19s-13.05,18.6-4.65,27.18c7.47,7.63,14.3-5.72,42.71-1.54Z"></path>
  <g>
    <path class="cls-13" d="M274.73,220.84c-.25-3.54,2.42-6.6,5.96-6.85s6.6,2.42,6.85,5.96"></path>
    <path class="cls-13" d="M304.43,218.85c-.25-3.54,2.42-6.6,5.96-6.85s6.6,2.42,6.85,5.96"></path>
    <path class="cls-13" d="M294.92,229.07c9.83-3.69,8.87-10.44,3.54-10.31-2.29,.05-4.3-1.23-5.43-3.12"></path>
    <path class="cls-13" d="M260.6,230.7c5.56,7.82,24.63,16.04,39.53,12.7"></path>
    <path class="cls-13" d="M261.83,223.51c.33,1.16,.38,2.42,.08,3.68-.93,3.9-4.85,6.31-8.75,5.38"></path>
  </g>
  <g>
    <path class="cls-4" d="M97.15,401.9c-10.95,3.77-24.02,8.21-24.5,10.65-1.39,6.99,10.01,43.15,21.16,47.92,2.76,1.18,7.18,.3,8.76-3.58,4.01-9.85-3.52-28.01,2.32-34.39"></path>
    <path class="cls-13" d="M104.74,397.46c-18.29,10.48-31.3,11.52-32.18,15.65-1.48,6.97,12.55,45.37,21.24,47.45,2.91,.7,7.24,.06,8.82-3.81,4.01-9.85-5.22-31.53,5.23-36.81,2.04-1.03,8.92-4.5,10.37-4.89"></path>
    <path class="cls-5" d="M162.87,319.46c9.41,19.84,27.05,79.14,40.36,119.79-1.06-10.21,16.85-19.71,30.04-18.36-18.74-34.26-34.04-94.33-58.23-137.26-11.79,.97-24.52,4.09-34.43,10.21-5.74,45.46-19.74,80.5-54.67,109.89,7.48,10.91,15.76,17.4,26.1,22.35,19.37-18.3,44.84-68.98,50.83-106.61Z"></path>
    <path class="cls-13" d="M140.41,294.18c-5.74,45.46-16.33,75.51-54.47,109.54,7.48,10.91,15.76,17.4,26.1,22.35,22-22,51.96-81.1,51.32-119.14"></path>
    <path class="cls-13" d="M162.64,318.35c15.08,40.79,25.72,75.15,40.7,121.13-2.66-8.17,15.26-19.91,29.44-18.48-26.69-60.76-42.21-109.53-57.34-137.44"></path>
    <path class="cls-13" d="M176.63,283.2c-14.12,1.19-27.66,4.88-38.9,12.33"></path>
    <path class="cls-13" d="M93.37,397.62c6.71,8.79,15.92,15.78,26.42,19.15"></path>
    <path class="cls-13" d="M199.25,426.89c5.23-10.07,15.61-15.61,27.48-15.45"></path>
    <path class="cls-13" d="M221.45,460.67c-1.18-9.45,30.99-36.15,41.97-30.73"></path>
    <path d="M211.69,447.17c-1.43-8.58,6.91-20.32,15.32-23.72-1.26-.94-3.21-1.6-2.74-1.66-12.69,1.43-19.84,11.85-19.84,11.85l7.25,13.54Z"></path>
    <path d="M102.65,436.12l-6.65-20.76c3.88,4.31,8.79,7.26,8.79,7.26-2.58,1.04-2.15,9.3-2.15,13.5Z"></path>
    <path class="cls-13" d="M205.54,435.6c5.49,10.4,12.16,25.42,16.4,25.1,13.33-1,42.2-24.79,41.84-29.44-1.33-17.23-34.33-1.91-39.34-9.66"></path>
  </g>
  <path d="M203.18,439.87c1.92,1.34,4.81,1.4,5.59,.8-.18-.36-4.06-7.65-4.06-7.65-.18-.48-1.7,3.58-1.53,6.85Z"></path>
  <path d="M231.65,424.11c1.55-.83,1.93-2.26,1.49-3.13-.24-.16-8.16,.01-8.52,.69-.29,1.07,5.06,2.58,7.03,2.44Z"></path>
  <path class="cls-7" d="M112.38,334.42c-.96-2.63-9.06-3.41-9.34-6.86-.11-1.34,.43-5.56,.86-7.49-7.1-5.37-16.09-8.05-21.9-8.31-2.25,5.16-2.9,9.81-3.99,13.14-2.14,6.54-5.05,27.97,.43,28.88,1.02,.17,2.86-.68,3.21-4.73l.02-1.7c.37,5.14,1.59,10.28,5.06,10.23,3.09-.04,3.09-4.11,3.84-8.62,1.14,4.71,3.07,9.06,5.55,9.13,6.07,.18,2.87-12.45,5.46-18.57,8.39,.77,11.66-2.75,10.8-5.1Z"></path>
  <path class="cls-13" d="M91.39,338.09c-.58,4.51-.36,19.82,5.05,19.98,6.07,.18,2.93-13.01,5.1-18.64,8.39,.77,11.71-2.66,10.85-5.01-.96-2.63-9.06-3.41-9.34-6.86-.64-8.08,12.59-40.36,25.92-49.48,4.53-3.1,10.49,2.86,5.24,7.51-5.63,4.99-4.89,15.62,5.6,13.59"></path>
  <path class="cls-13" d="M81.79,337.23s-1.61,20.8,5.26,20.44c5.15-.27,3.13-15.73,4.29-19.67"></path>
  <path class="cls-13" d="M82,348.95c-.35,4.05-2.2,4.86-3.22,4.69-5.48-.91-2.91-22.2-.77-28.74,2.12-6.47,10.6-33.76,18.14-43.04"></path>
  <path class="cls-13" d="M170.45,258.24s3.77-1.12,10.13-2.8"></path>
  <path class="cls-13" d="M177.03,287.89c12.96-11.71-4.37-16.21-6.62-22.35-1.25-3.44-.65-6.64,.02-8.62"></path>
  <path class="cls-13" d="M163.77,237.03c4.59-1.29,9.22-2.44,13.82-3.4"></path>
  <path class="cls-13" d="M104.17,320.08c-3.22-3.4-19.7-9.74-22.08-8.4"></path>
  <path class="cls-6" d="M390.65,156.11c8.27,2.38,14.78,8.89,17.16,17.16,.29,.99,1.66,.99,1.95,0,2.38-8.27,8.89-14.78,17.16-17.16,.99-.29,.99-1.66,0-1.95-8.27-2.38-14.78-8.89-17.16-17.16-.29-.99-1.66-.99-1.95,0-2.38,8.27-8.89,14.78-17.16,17.16-.99,.29-.99,1.66,0,1.95Z"></path>
  <path class="cls-10" d="M28.29,374.96c8.27,2.38,14.78,8.89,17.16,17.16,.29,.99,1.66,.99,1.95,0,2.38-8.27,8.89-14.78,17.16-17.16,.99-.29,.99-1.66,0-1.95-8.27-2.38-14.78-8.89-17.16-17.16-.29-.99-1.66-.99-1.95,0-2.38,8.27-8.89,14.78-17.16,17.16-.99,.29-.99,1.66,0,1.95Z"></path>
  <path class="cls-11" d="M273.52,201.25c-2.6,.97-5.62,3.35-6.32,2.38s1.58-4.08,3.85-5.85c3.74-2.9,7.45,1.62,2.47,3.47Z"></path>
  <path class="cls-11" d="M309.26,198.81c2.71,.6,6.02,2.55,6.59,1.49s-2.12-3.83-4.62-5.27c-4.11-2.37-7.16,2.62-1.97,3.78Z"></path>
  <g>
    <path class="cls-2" d="M115.32,241.49c-9.44,.05-16.45,3.93-22.77,13.59-2.89,4.41-5.14,8.95-5.93,13.84,5.12,1.75,13.05,4.43,19.03,6.45l3.59-19.46c9.6,1.55,21.81,12.63,29.2,6.44,7.93-6.65-3.67-20.97-23.12-20.86Z"></path>
    <path class="cls-13" d="M109.24,255.92c9.6,1.55,21.81,12.63,29.2,6.44,7.93-6.65-3.22-21.93-23.12-20.86-9.43,.51-16.45,3.93-22.77,13.59-6.34,9.69-9.66,19.97-1.01,33.32"></path>
  </g>
  <path class="cls-3" d="M100.89,270.4c8.82,.42,23.33,7.9,28.58,1.58,8.11-9.77-12.87-21.81-25.12-17.52"></path>
  <path class="cls-3" d="M94.5,281.6c5.85-.16,18.93,5.42,22.81-.5,5.57-8.49-9.93-16.97-20.06-12.9"></path>
  <g>
    <ellipse class="cls-8" cx="146.53" cy="220.88" rx="23.26" ry="23.67" transform="translate(-89.28 99.83) rotate(-29.27)"></ellipse>
    <g>
      <path class="cls-13" d="M156.63,221.82c.39,2.82-1.59,5.42-4.41,5.81s-5.42-1.59-5.81-4.41"></path>
      <path class="cls-13" d="M143,217.77c-.33-1.65,.74-3.26,2.38-3.59s3.25,.74,3.59,2.38"></path>
      <path class="cls-13" d="M156.98,215.37c-.33-1.65,.74-3.26,2.38-3.59,1.65-.33,3.25,.74,3.59,2.38"></path>
      <polyline class="cls-13" points="153.73 220.45 156.99 217.99 151.53 213.67"></polyline>
    </g>
    <path class="cls-12" d="M156.79,187.2c-20.87-7.42-22.41,12.74-32.07,18.71-12.26,7.58-6.67,22.98-.87,24.03,.05-.4,.15-3.57,2.7-2.59l2,2.98c6.6-3.37,5.43-9.61,4.13-14.98-1.15-4.74-2.5-8.01,.89-11.95,3.39-3.94,20.95-13.67,32.56,4.63,1.51-2.32,1.83-16.87-9.34-20.84Z"></path>
    <path class="cls-8" d="M129.62,233.68c-1.48,3.22-5.41,3.9-7.83,1.77-2.05-1.8-2.25-4.94-.43-7,2.28-2.6,6.64-2.26,8.32,1.32"></path>
    <path class="cls-12" d="M139.93,199.16c8.48-3.05,13.4,9.02,23.84,3.16,0,0-18.62-11.3-23.84-3.16Z"></path>
  </g>
</svg>
