<?xml version="1.0" encoding="UTF-8"?>
<svg xmlns="http://www.w3.org/2000/svg" width="422" height="400" viewBox="0 0 422 400">
  <g fill="none" fill-rule="evenodd" transform="translate(9.154 10.38)">
    <path fill="#FECE00" fill-rule="nonzero" d="M315.906484,205.53 C251.276484,205.53 198.696484,152.95 198.696484,88.32 C198.696484,40.52 159.946484,1.77 112.146484,1.77 C64.3464841,1.77 25.5964841,40.52 25.5964841,88.32 C25.5964841,127.47 33.2864841,165.5 48.4464841,201.35 C63.0764841,235.93 83.9964841,266.97 110.626484,293.6 C137.256484,320.23 168.296484,341.15 202.876484,355.78 C213.686484,360.35 224.686484,364.23 235.866484,367.44 L235.866484,378.59 L312.576484,378.59 C313.686484,378.6 314.786484,378.63 315.896484,378.63 C363.696484,378.63 402.446484,339.88 402.446484,292.08 C402.446484,244.28 363.696484,205.53 315.896484,205.53 L315.906484,205.53 Z"></path>
    <circle cx="333.106" cy="70.38" r="70.38" fill="#FE8F71" fill-rule="nonzero"></circle>
    <polyline fill="#FFF" fill-rule="nonzero" stroke="#000" stroke-linecap="round" stroke-linejoin="round" stroke-width=".8" points="215.316 254.6 235.216 294.41 288.726 267.66 305.986 302.19 252.486 328.94 277.086 378.15 110.916 378.14 185.476 278.73"></polyline>
    <polygon fill="#C5724A" fill-rule="nonzero" points="189.746 315.97 157.426 302.36 171.226 269.62 204.026 282.05"></polygon>
    <g fill-rule="nonzero" transform="translate(86.863 281.62)">
      <path fill="#F5ABBB" d="M43.8829887,10.38 L77.9629887,1.58 C83.6029887,5.19 81.6829887,16.25 78.1929887,20.88 C69.5029887,18.62 43.8829887,10.38 43.8829887,10.38 Z"></path>
      <path fill="#FFF" d="M107.132989,24.78 C82.0429887,33.07 80.3529887,15.6 68.2729887,10.63 C58.3729887,6.55 44.1129887,10.54 27.9629887,13.08 C21.3129887,14.12 9.79298873,13.05 5.31298873,16.81 L1.79298873,19.91 C-1.14701127,22.51 -0.347011266,27.29 3.28298873,28.79 L86.0329887,62.85 C88.5829887,63.9 91.5129887,62.68 92.5629887,60.13 L117.312989,0"></path>
    </g>
    <polygon fill="#C5724A" fill-rule="nonzero" points="83.456 266.88 71.426 231.15 97.016 206.52 122.266 230.91"></polygon>
    <path fill="#F5ABBB" fill-rule="nonzero" d="M46.2364841,214.06 L80.7664841,220.9 C84.2864841,226.6 77.7664841,235.74 72.6064841,238.39 C65.7564841,232.59 46.2364841,214.06 46.2364841,214.06 Z"></path>
    <path fill="#FFF" fill-rule="nonzero" d="M97.5664841,254.18 C71.3064841,251.22 77.2164841,234.12 68.3264841,224.56 C61.0364841,216.72 46.4164841,214.38 30.6864841,209.94 C24.2064841,208.11 14.1964841,202.31 8.54648412,203.87 L4.05648412,205.22 C0.296484118,206.35 -0.973515882,211.03 1.69648412,213.91 L62.6264841,279.44 C64.5064841,281.46 67.6764841,281.58 69.6964841,279.7 L117.316484,235.42"></path>
    <g fill-rule="nonzero" transform="translate(96.806 177.35)">
      <path fill="#F5ABBB" d="M112.45,0.18 L112.44,0.18 C112.48,0.41 112.53,0.62 112.57,0.84 L113.18,0.16 L112.31,0.16 C112.31,0.16 112.41,0.16 112.46,0.18 L112.45,0.18 Z"></path>
      <path fill="#29AE81" d="M47.74,72.7 C57.83,44.12 66.08,4.78 98.72,0.17 L73.85,0.17 C44.1,0.17 26.56,5.19 0,29.15 L47.19,73.3 L47.73,72.7 L47.74,72.7 Z"></path>
    </g>
    <path fill="#F5ABBB" fill-rule="nonzero" d="M287.846484,165.22 C289.596484,164.05 290.766484,162.08 290.816484,159.83 C291.836484,162.2 294.196484,163.86 296.936484,163.86 C300.616484,163.86 303.606484,160.87 303.606484,157.19 C303.606484,156.8 303.566484,156.42 303.506484,156.05 C304.716484,157.29 306.406484,158.06 308.266484,158.06 C311.946484,158.06 314.936484,155.07 314.936484,151.39 C314.936484,149.87 314.426484,148.47 313.566484,147.35 C314.626484,148.06 315.896484,148.47 317.266484,148.47 C320.946484,148.47 323.936484,145.48 323.936484,141.8 C323.936484,139.07 322.286484,136.72 319.936484,135.69 C320.136484,135.71 320.336484,135.72 320.536484,135.72 C324.216484,135.72 327.206484,132.73 327.206484,129.05 C327.206484,125.98 325.126484,123.4 322.296484,122.62 C325.136484,121.86 327.236484,119.27 327.236484,116.19 C327.236484,112.51 324.246484,109.52 320.566484,109.52 C320.276484,109.52 319.996484,109.54 319.716484,109.58 C321.436484,108.37 322.556484,106.38 322.556484,104.12 C322.556484,100.44 319.566484,97.45 315.886484,97.45 C314.766484,97.45 313.716484,97.73 312.796484,98.21 C313.666484,97.08 314.186484,95.68 314.186484,94.15 C314.186484,90.47 311.196484,87.48 307.516484,87.48 C305.916484,87.48 304.446484,88.04 303.296484,88.98 C303.956484,87.95 304.346484,86.72 304.346484,85.4 C304.346484,81.72 301.356484,78.73 297.676484,78.73 C295.796484,78.73 294.106484,79.51 292.896484,80.76 C293.156484,80.04 293.316484,79.27 293.316484,78.46 C293.316484,74.78 290.326484,71.79 286.646484,71.79 C284.376484,71.79 282.376484,72.93 281.166484,74.66 C281.346484,74.06 281.436484,73.43 281.436484,72.78 C281.436484,69.1 278.446484,66.11 274.766484,66.11 C272.136484,66.11 269.866484,67.64 268.786484,69.85 C268.786484,69.77 268.796484,69.68 268.796484,69.6 C268.796484,65.92 265.806484,62.93 262.126484,62.93 C259.156484,62.93 256.646484,64.87 255.776484,67.56 C255.736484,63.91 252.766484,60.96 249.116484,60.96 C245.756484,60.96 242.986484,63.44 242.526484,66.67 C241.746484,63.85 239.166484,61.78 236.106484,61.78 C232.446484,61.78 229.476484,64.73 229.446484,68.38 C228.586484,65.7 226.066484,63.75 223.096484,63.75 C219.416484,63.75 216.426484,66.74 216.426484,70.42 C216.426484,70.8 216.466484,71.17 216.526484,71.53 C215.336484,69.7 213.276484,68.48 210.936484,68.48 C207.256484,68.48 204.266484,71.47 204.266484,75.15 C204.266484,75.8 204.366484,76.44 204.536484,77.03 C203.336484,75.3 201.326484,74.16 199.056484,74.16 C195.376484,74.16 192.386484,77.15 192.386484,80.83 C192.386484,81.96 192.666484,83.02 193.166484,83.95 C192.006484,82.97 190.506484,82.38 188.876484,82.38 C185.196484,82.38 182.206484,85.37 182.206484,89.05 C182.206484,90.37 182.596484,91.59 183.256484,92.63 C182.106484,91.69 180.636484,91.13 179.036484,91.13 C175.356484,91.13 172.366484,94.12 172.366484,97.8 C172.366484,99.72 173.176484,101.44 174.476484,102.65 C173.686484,102.32 172.826484,102.14 171.916484,102.14 C168.236484,102.14 165.246484,105.13 165.246484,108.81 C165.246484,111.55 166.906484,113.91 169.266484,114.93 C169.216484,114.93 169.156484,114.93 169.106484,114.93 C165.426484,114.93 162.436484,117.92 162.436484,121.6 C162.436484,125.28 165.146484,127.97 168.576484,128.24 C165.956484,129.14 164.066484,131.62 164.066484,134.54 C164.066484,136.76 165.156484,138.73 166.826484,139.94"></path>
    <path fill="#C5724A" fill-rule="nonzero" d="M259.016484,144.84 C255.086484,142.96 253.156484,138.48 254.506484,134.34 C255.826484,130.27 257.986484,125.99 260.636484,122.61 C261.586484,121.36 262.416484,120.02 263.116484,118.6 C263.836484,120.18 265.416484,121.28 267.266484,121.28 C269.786484,121.28 271.836484,119.23 271.836484,116.71 C271.836484,115.07 272.376484,115.51 271.076484,114.71 L271.416484,115.58 C270.646484,115.74 269.846484,115.83 269.026484,115.83 C266.976484,115.83 265.056484,115.29 263.386484,114.36 C263.326484,114.46 263.266484,114.55 263.216484,114.65 L263.216484,114.26 C259.756484,112.25 257.436484,108.52 257.436484,104.24 C257.436484,101.64 258.296484,99.24 259.736484,97.31 L259.786484,97.31 C256.926484,96.69 254.746484,94.24 254.546484,91.24 L254.496484,91.24 C254.266484,94.72 251.376484,97.47 247.836484,97.47 C244.296484,97.47 241.146484,94.48 241.146484,90.78 C241.146484,94.47 238.156484,97.47 234.456484,97.47 C230.756484,97.47 227.766484,94.48 227.766484,90.78 C227.766484,94.47 224.776484,97.47 221.076484,97.47 C220.376484,97.47 219.706484,97.36 219.076484,97.16 L219.076484,97.16 C217.526484,100.38 216.646484,103.99 216.646484,107.8 C216.646484,116.89 221.606484,124.82 228.966484,129.05 C230.406484,130.05 231.636484,131.04 232.696484,131.99 C237.196484,136.03 236.086484,143.35 230.676484,146.07 C230.496484,146.16 230.316484,146.25 230.136484,146.34 L209.246484,177.56 C229.176484,285.6 360.976484,193.54 259.016484,144.86 L259.016484,144.84 Z"></path>
    <path fill="#FFF" fill-rule="nonzero" d="M244.176484,160.73 L262.006484,146.73 C276.566484,152.37 286.606484,163.77 287.396484,165.47 C284.126484,166.6 259.176484,181.05 259.176484,181.05 L244.166484,160.73 L244.176484,160.73 Z"></path>
    <path fill="#29AE81" fill-rule="nonzero" d="M209.236484,177.55 L209.246484,177.55 C161.276484,171.45 154.656484,225.78 141.646484,257.73 L204.536484,281.53 L209.416484,269.46 L209.416484,269.46 L215.156484,254.91 L229.446484,283.49 C233.546484,284.83 237.926484,285.57 242.476484,285.57 C265.676484,285.57 284.486484,266.76 284.486484,243.56 C284.486484,235.31 282.096484,227.63 277.996484,221.14 C255.146484,235.3 218.926484,230.13 209.226484,177.53 L209.236484,177.55 Z"></path>
    <line x1="215.316" x2="235.216" y1="254.6" y2="294.41" fill="#FFF" fill-rule="nonzero" stroke="#000" stroke-linecap="round" stroke-linejoin="round" stroke-width=".8"></line>
    <rect width="54.26" height="10.78" x="165.576" y="162.7" fill="#000" fill-rule="nonzero"></rect>
    <g transform="translate(147.363 136.8)">
      <path fill="#C5724A" fill-rule="nonzero" d="M41.5130082,26.4202728 C41.5130082,28.6502728 42.8130082,32.0302728 45.2330082,34.4702728 L57.9430082,9.60027283 C51.8130082,4.48027283 45.6930082,1.09027283 39.9030082,0.490272831 C25.5730082,-0.979727169 20.5130082,0.510272831 10.8930082,9.74027283 C-10.5669918,30.3402728 4.90300824,40.2902728 13.1130082,32.3702728 L13.1230082,32.3702728 C15.7230082,36.0602728 21.7630082,36.1302728 25.6530082,31.6402728 L25.6530082,31.6402728 C26.2930082,32.8902728 27.2830082,33.8102728 28.4930082,34.3402728 C35.1530082,37.2702728 37.4430082,29.1502728 41.5030082,26.4002728 L41.5130082,26.4202728 Z"></path>
      <path stroke="#000" stroke-linecap="round" stroke-linejoin="round" stroke-width=".8" d="M69.0130082,20.5702728 C59.3830082,9.61027283 49.2030082,1.44027283 39.9130082,0.490272831 C25.5830082,-0.979727169 20.5230082,0.510272831 10.9030082,9.74027283 C-10.5569918,30.3402728 4.91300824,40.2902728 13.1230082,32.3702728"></path>
      <path stroke="#000" stroke-linecap="round" stroke-linejoin="round" stroke-width=".8" d="M22.7530082,9.75027283 C0.67300824,30.9402728 17.6830082,40.8602728 25.6630082,31.6502728"></path>
      <path stroke="#000" stroke-linecap="round" stroke-linejoin="round" stroke-width=".8" d="M35.8530082,9.75027283 C22.0530082,22.9902728 23.3930082,32.1002728 28.5130082,34.3602728 C35.1730082,37.2902728 37.4630082,29.1702728 41.5230082,26.4202728 C41.5230082,30.2602728 45.3330082,37.5202728 52.2230082,37.5202728"></path>
    </g>
    <path stroke="#000" stroke-linecap="round" stroke-linejoin="round" stroke-width=".8" d="M278.536484,221.48 C282.406484,227.85 284.636484,235.33 284.636484,243.33 C284.636484,266.61 265.766484,285.48 242.486484,285.48 C238.056484,285.48 233.796484,284.8 229.786484,283.53"></path>
    <path stroke="#000" stroke-linecap="round" stroke-linejoin="round" stroke-width=".8" d="M272.456484,259.08 C265.346484,259.08 259.586484,253.32 259.586484,246.21"></path>
    <path fill="#000" fill-rule="nonzero" d="M229.576484,283.18 L235.246484,294.35 L256.746484,283.52 C246.076484,285.72 237.616484,286.23 229.576484,283.18 L229.576484,283.18 Z"></path>
    <path stroke="#000" stroke-linecap="round" stroke-linejoin="round" stroke-width=".8" d="M199.916484,177.52 C167.866484,177.52 158.866484,206.97 141.446484,258.17 L204.106484,281.6"></path>
    <line x1="145.846" x2="208.806" y1="245.97" y2="269.52" stroke="#000" stroke-linecap="round" stroke-linejoin="round" stroke-width=".8"></line>
    <path stroke="#000" stroke-linecap="round" stroke-linejoin="round" stroke-width=".8" d="M143.996484,250.65 L96.8064841,206.5 C123.366484,182.54 140.906484,177.52 170.656484,177.52"></path>
    <line x1="149.106" x2="107.976" y1="235.82" y2="197.36" stroke="#000" stroke-linecap="round" stroke-linejoin="round" stroke-width=".8"></line>
    <line x1="204.266" x2="220.876" y1="281.43" y2="241.09" stroke="#000" stroke-linecap="round" stroke-linejoin="round" stroke-width=".8"></line>
    <polyline fill="#000" fill-rule="nonzero" points="221.386 241.09 215.316 254.6 221.386 266.74"></polyline>
    <g transform="translate(172.263 136.81)">
      <path fill="#C5724A" fill-rule="nonzero" d="M39.9030082,0.490272831 C25.5730082,-0.979727169 20.5130082,0.510272831 10.8930082,9.74027283 C-10.5669918,30.3402728 4.90300824,40.2902728 13.1130082,32.3702728 L13.1230082,32.3702728 C15.7230082,36.0602728 21.7630082,36.1302728 25.6530082,31.6402728 L25.6530082,31.6402728 C26.2930082,32.8902728 27.2830082,33.8102728 28.4930082,34.3402728 C35.1530082,37.2702728 37.4430082,29.1502728 41.5030082,26.4002728 C41.5030082,30.2402728 45.3130082,37.5002728 52.2030082,37.5002728 L92.8330082,54.0902728 C78.6130082,30.3902728 57.6430082,2.30027283 39.9030082,0.480272831 L39.9030082,0.490272831 Z"></path>
      <path stroke="#000" stroke-linecap="round" stroke-linejoin="round" stroke-width=".8" d="M92.8330082,54.1002728 C78.6130082,30.4002728 57.6430082,2.31027283 39.9030082,0.490272831 C25.5730082,-0.979727169 20.5130082,0.510272831 10.8930082,9.74027283 C-10.5669918,30.3402728 4.90300824,40.2902728 13.1130082,32.3702728"></path>
      <path stroke="#000" stroke-linecap="round" stroke-linejoin="round" stroke-width=".8" d="M22.7430082,9.74027283 C0.66300824,30.9302728 17.6730082,40.8502728 25.6530082,31.6402728"></path>
      <path stroke="#000" stroke-linecap="round" stroke-linejoin="round" stroke-width=".8" d="M35.8330082,9.74027283 C22.0330082,22.9802728 23.3730082,32.0902728 28.4930082,34.3502728 C35.1530082,37.2802728 37.4430082,29.1602728 41.5030082,26.4102728 C41.5030082,30.2502728 45.3130082,37.5102728 52.2030082,37.5102728"></path>
    </g>
    <path fill="#000" fill-rule="nonzero" d="M210.696484,183.16 L222.996484,177.63 L209.596484,177.57 C209.796484,178.98 209.836484,180.86 210.696484,183.16 Z"></path>
    <g stroke="#000" stroke-linecap="round" stroke-linejoin="round" stroke-width=".8" transform="translate(209.236 97.16)">
      <path d="M62.17,18.43 C63.33,21.51 61.09,24.41 58.16,24.41 C56.15,24.41 54.47,23.04 53.98,21.19"></path>
      <path d="M0 80.39C19.93 188.43 151.73 96.37 49.77 47.69 45.84 45.81 43.91 41.33 45.26 37.19 46.58 33.12 48.74 28.84 51.39 25.46 52.41 24.12 53.3 22.66 54.03 21.12M27.21 0C27.21 2.77 24.49 5.19 21.33 7.05 19.64 8.05 20.33 10.64 22.29 10.64L27.59 10.64"></path>
    </g>
    <path stroke="#000" stroke-linecap="round" stroke-linejoin="round" stroke-width=".8" d="M287.846484,165.22 C289.596484,164.05 290.766484,162.08 290.816484,159.83 C291.836484,162.2 294.196484,163.86 296.936484,163.86 C300.616484,163.86 303.606484,160.87 303.606484,157.19 C303.606484,156.8 303.566484,156.42 303.506484,156.05 C304.716484,157.29 306.406484,158.06 308.266484,158.06 C311.946484,158.06 314.936484,155.07 314.936484,151.39 C314.936484,149.87 314.426484,148.47 313.566484,147.35 C314.626484,148.06 315.896484,148.47 317.266484,148.47 C320.946484,148.47 323.936484,145.48 323.936484,141.8 C323.936484,139.07 322.286484,136.72 319.936484,135.69 C320.136484,135.71 320.336484,135.72 320.536484,135.72 C324.216484,135.72 327.206484,132.73 327.206484,129.05 C327.206484,125.98 325.126484,123.4 322.296484,122.62 C325.136484,121.86 327.236484,119.27 327.236484,116.19 C327.236484,112.51 324.246484,109.52 320.566484,109.52 C320.276484,109.52 319.996484,109.54 319.716484,109.58 C321.436484,108.37 322.556484,106.38 322.556484,104.12 C322.556484,100.44 319.566484,97.45 315.886484,97.45 C314.766484,97.45 313.716484,97.73 312.796484,98.21 C313.666484,97.08 314.186484,95.68 314.186484,94.15 C314.186484,90.47 311.196484,87.48 307.516484,87.48 C305.916484,87.48 304.446484,88.04 303.296484,88.98 C303.956484,87.95 304.346484,86.72 304.346484,85.4 C304.346484,81.72 301.356484,78.73 297.676484,78.73 C295.796484,78.73 294.106484,79.51 292.896484,80.76 C293.156484,80.04 293.316484,79.27 293.316484,78.46 C293.316484,74.78 290.326484,71.79 286.646484,71.79 C284.376484,71.79 282.376484,72.93 281.166484,74.66 C281.346484,74.06 281.436484,73.43 281.436484,72.78 C281.436484,69.1 278.446484,66.11 274.766484,66.11 C272.136484,66.11 269.866484,67.64 268.786484,69.85 C268.786484,69.77 268.796484,69.68 268.796484,69.6 C268.796484,65.92 265.806484,62.93 262.126484,62.93 C259.156484,62.93 256.646484,64.87 255.776484,67.56 C255.736484,63.91 252.766484,60.96 249.116484,60.96 C245.756484,60.96 242.986484,63.44 242.526484,66.67 C241.746484,63.85 239.166484,61.78 236.106484,61.78 C232.446484,61.78 229.476484,64.73 229.446484,68.38 C228.586484,65.7 226.066484,63.75 223.096484,63.75 C219.416484,63.75 216.426484,66.74 216.426484,70.42 C216.426484,70.8 216.466484,71.17 216.526484,71.53 C215.336484,69.7 213.276484,68.48 210.936484,68.48 C207.256484,68.48 204.266484,71.47 204.266484,75.15 C204.266484,75.8 204.366484,76.44 204.536484,77.03 C203.336484,75.3 201.326484,74.16 199.056484,74.16 C195.376484,74.16 192.386484,77.15 192.386484,80.83 C192.386484,81.96 192.666484,83.02 193.166484,83.95 C192.006484,82.97 190.506484,82.38 188.876484,82.38 C185.196484,82.38 182.206484,85.37 182.206484,89.05 C182.206484,90.37 182.596484,91.59 183.256484,92.63 C182.106484,91.69 180.636484,91.13 179.036484,91.13 C175.356484,91.13 172.366484,94.12 172.366484,97.8 C172.366484,99.72 173.176484,101.44 174.476484,102.65 C173.686484,102.32 172.826484,102.14 171.916484,102.14 C168.236484,102.14 165.246484,105.13 165.246484,108.81 C165.246484,111.55 166.906484,113.91 169.266484,114.93 C169.216484,114.93 169.156484,114.93 169.106484,114.93 C165.426484,114.93 162.436484,117.92 162.436484,121.6 C162.436484,125.28 165.146484,127.97 168.576484,128.24 C165.956484,129.14 164.066484,131.62 164.066484,134.54 C164.066484,136.76 165.156484,138.73 166.826484,139.94"></path>
    <path stroke="#000" stroke-linecap="round" stroke-linejoin="round" stroke-width=".8" d="M214.386484 90.78C214.386484 94.47 217.376484 97.47 221.076484 97.47 224.776484 97.47 227.766484 94.48 227.766484 90.78 227.766484 94.47 230.756484 97.47 234.456484 97.47 238.156484 97.47 241.146484 94.48 241.146484 90.78 241.146484 94.47 244.136484 97.47 247.836484 97.47 251.536484 97.47 254.526484 94.48 254.526484 90.78 254.526484 94.47 257.516484 97.47 261.216484 97.47 264.916484 97.47 267.906484 94.48 267.906484 90.78M246.296484 111.08C246.296484 114.58 243.456484 117.42 239.956484 117.42 236.456484 117.42 233.616484 114.58 233.616484 111.08M247.696484 102.61C247.036484 101.48 245.826484 100.71 244.416484 100.71 243.006484 100.71 241.796484 101.48 241.136484 102.61M232.346484 102.61C231.686484 101.48 230.476484 100.71 229.066484 100.71 227.656484 100.71 226.446484 101.48 225.786484 102.61"></path>
    <line x1="244.616" x2="261.996" y1="160.3" y2="146.53" stroke="#000" stroke-linecap="round" stroke-linejoin="round" stroke-width=".8"></line>
    <line x1="259.056" x2="287.596" y1="180.62" y2="165.39" stroke="#000" stroke-linecap="round" stroke-linejoin="round" stroke-width=".8"></line>
    <path stroke="#000" stroke-linecap="round" stroke-linejoin="round" stroke-width=".8" d="M271.406484,115.59 C270.636484,115.75 269.836484,115.84 269.016484,115.84 C262.616484,115.84 257.416484,110.65 257.416484,104.24 C257.416484,101.64 258.276484,99.24 259.716484,97.31"></path>
    <path fill="#000" fill-rule="nonzero" d="M282.106484,228.25 L253.526484,228.25 C266.056484,227.06 272.816484,224.99 278.156484,221.05 C279.296484,222.67 280.656484,225.24 282.106484,228.25 Z"></path>
    <path stroke="#000" stroke-linecap="round" stroke-linejoin="round" stroke-width=".8" d="M230.126484,146.33 C230.306484,146.24 230.486484,146.15 230.666484,146.06 C236.066484,143.34 237.186484,136.02 232.686484,131.98 C231.626484,131.03 230.396484,130.05 228.956484,129.04 L228.956484,129.04 C221.596484,124.81 216.636484,116.89 216.636484,107.79 C216.636484,103.98 217.506484,100.37 219.066484,97.15"></path>
    <path stroke="#000" stroke-linecap="round" stroke-linejoin="round" stroke-width=".8" d="M183.336484 116.55C184.086484 117.16 184.976484 117.62 185.986484 117.87 189.566484 118.74 193.166484 116.54 194.036484 112.96 194.186484 112.35 194.236484 111.74 194.216484 111.14 194.986484 113.09 196.656484 114.65 198.846484 115.18 202.426484 116.05 206.026484 113.85 206.896484 110.27 207.106484 109.38 207.136484 108.5 207.006484 107.65 207.906484 108.84 209.196484 109.74 210.756484 110.11 212.916484 110.63 215.086484 110.04 216.666484 108.7M304.376484 116.55C303.626484 117.16 302.736484 117.62 301.726484 117.87 298.146484 118.74 294.546484 116.54 293.676484 112.96 293.526484 112.35 293.476484 111.74 293.496484 111.14 292.726484 113.09 291.056484 114.65 288.866484 115.18 285.286484 116.05 281.686484 113.85 280.816484 110.27 280.606484 109.38 280.576484 108.5 280.706484 107.65 279.806484 108.84 278.516484 109.74 276.956484 110.11 274.756484 110.64 272.546484 110.02 270.966484 108.63M204.866484 134.11C206.246484 134.71 207.836484 134.86 209.396484 134.4 212.936484 133.37 214.966484 129.68 213.946484 126.14 213.776484 125.54 213.516484 124.98 213.196484 124.47 214.836484 125.78 217.056484 126.31 219.226484 125.68 220.426484 125.33 221.456484 124.67 222.246484 123.82M274.956484 139.47C273.576484 140.07 271.986484 140.22 270.426484 139.76 266.886484 138.73 264.856484 135.04 265.876484 131.5 266.046484 130.9 266.306484 130.34 266.626484 129.83 264.986484 131.14 262.766484 131.67 260.596484 131.04 259.146484 130.62 257.956484 129.75 257.116484 128.63"></path>
    <g transform="translate(165.336 269.27)">
      <polygon fill="#000" fill-rule="nonzero" points="28.37 8.52 34.81 21.84 38.64 12.59"></polygon>
      <line x2="5.73" y1="13.93" stroke="#000" stroke-linecap="round" stroke-linejoin="round" stroke-width=".8"></line>
      <line x1="28.65" x2="38.68" y1="37.13" y2="12.78" stroke="#000" stroke-linecap="round" stroke-linejoin="round" stroke-width=".8"></line>
    </g>
    <g stroke="#000" stroke-linecap="round" stroke-linejoin="round" stroke-width=".8" transform="translate(86.863 263.535)">
      <path d="M107.132989,42.8647312 C82.0429887,51.1547312 80.3529887,33.6847312 68.2729887,28.7147312 C58.3729887,24.6347312 44.1129887,28.6247312 27.9629887,31.1647312 C21.3129887,32.2047312 9.79298873,31.1347312 5.31298873,34.8947312 L1.79298873,37.9947312 C-1.14701127,40.5947312 -0.347011266,45.3747312 3.28298873,46.8747312 L86.0329887,80.9347312 C88.5829887,81.9847312 91.5129887,80.7647312 92.5629887,78.2147312 L107.112989,42.8547312"></path>
      <path d="M1.21298873,38.9447312 L49.0729887,58.6447312 C52.2029887,59.9347312 55.5629887,60.5747312 58.9429887,60.5347312 L67.0929887,60.4347312 C70.4729887,60.3947312 73.8329887,61.0347312 76.9629887,62.3247312 L95.5929887,69.9947312"></path>
      <path d="M7.30298873 33.7047312 40.2129887 47.2547312C41.4629887 47.7747312 42.5329887 48.6547312 43.2829887 49.7847312L49.0629887 58.5847312M27.3229887 31.2547312 27.9929887 32.8647312C29.1029887 35.5247312 31.8629887 37.0947312 34.7129887 36.6747312L57.2729887 33.4147312C59.6029887 33.0747312 61.9729887 33.3747312 64.1529887 34.2647312L67.9929887 35.8447312C70.4929887 36.8747312 73.2529887 37.1047312 75.9029887 36.5047312L77.8129887 36.0747312"></path>
      <path d="M69.3129887 36.5247312 64.2629887 40.7147312C62.2329887 42.4047312 61.8129887 45.3447312 63.2929887 47.5347312L72.3529887 60.9347312M79.6529887 63.4247312C84.8529887 58.0447312 93.0429887 56.1247312 100.362989 59.2947312M39.7729887 29.1247312 78.3929887 19.5747312C83.3229887 25.1747312 82.5229887 29.7847312 79.3029887 37.5947312"></path>
      <polygon points="57.993 39.095 49.263 40.395 48.913 37.865 57.643 36.565"></polygon>
      <path d="M52.4429887,17.4747312 C56.2729887,11.1547312 57.5229887,1.89473122 51.7629887,0.194731224 C42.2929887,-2.60526878 41.1329887,25.7347312 45.8429887,24.5847312 C50.5429887,23.4347312 40.0829887,-0.525268776 30.2529887,5.66473122 C25.8529887,8.43473122 27.7829887,19.0547312 41.9529887,25.8847312"></path>
    </g>
    <g transform="translate(80.946 206.45)">
      <polygon fill="#000" fill-rule="nonzero" points="33.7 16.32 34.05 31.1 41.37 24.27"></polygon>
      <line x1="16.38" x2="41.74" y1="47.73" y2="24.26" stroke="#000" stroke-linecap="round" stroke-linejoin="round" stroke-width=".8"></line>
      <line x2="15.96" y1="14.78" stroke="#000" stroke-linecap="round" stroke-linejoin="round" stroke-width=".8"></line>
    </g>
    <g stroke="#000" stroke-linecap="round" stroke-linejoin="round" stroke-width=".8" transform="translate(0 191.004)">
      <path d="M75.3364841,21.3064876 C83.4864841,15.3564876 90.1464841,4.40648763 83.8164841,0.556487635 C76.0364841,-4.17351237 67.9264841,22.8064876 71.6264841,22.7264876 C75.3264841,22.6464876 74.6464841,-0.723512365 64.0864841,0.236487635 C59.6364841,0.646487635 55.7064841,15.6564876 69.4564841,23.7264876"></path>
      <g transform="translate(0 12.916)">
        <path d="M97.3364841,50.26 C71.0864841,47.25 76.8864841,30.68 68.0164841,21.1 C60.7464841,13.24 46.1264841,10.88 30.4064841,6.4 C23.9264841,4.55 13.9264841,-1.26 8.27648412,0.28 L3.78648412,1.62 C0.0264841175,2.74 -1.25351588,7.42 1.41648412,10.3 L62.2164841,75.96 C64.0964841,77.99 67.2564841,78.11 69.2864841,76.23 L97.3364841,50.25"></path>
        <path d="M2.68648412,2.2 L37.8464841,40.17 C40.1464841,42.65 42.9264841,44.65 46.0164841,46.03 L53.4564841,49.36 C56.5464841,50.74 59.3264841,52.73 61.6264841,55.22 L75.3164841,70.01"></path>
        <path d="M10.4164841 0 34.5964841 26.11C35.5164841 27.1 36.1164841 28.35 36.3164841 29.69L37.8664841 40.1M29.6064841 6.18 29.5364841 7.92C29.4264841 10.8 31.2764841 13.38 34.0364841 14.2L55.8764841 20.71C58.1264841 21.38 60.1564841 22.65 61.7564841 24.37L64.5764841 27.42C66.4164841 29.41 68.8264841 30.78 71.4764841 31.34L73.3964841 31.75"></path>
        <path d="M65.5064841 28.6 59.1664841 30.28C56.6164841 30.96 54.9964841 33.46 55.4164841 36.06L58.0164841 52.03M41.8064841 9.48 80.8664841 17.03C82.9764841 24.14 80.3564841 27.98 74.2364841 33.66"></path>
        <polygon points="54.156 26.18 45.686 23.69 46.426 21.24 54.896 23.73"></polygon>
      </g>
    </g>
    <rect width="4.99" height="3.05" x="163.356" y="174.4" fill="#000" fill-rule="nonzero"></rect>
    <path fill="#FFF" fill-rule="nonzero" stroke="#000" stroke-linecap="round" stroke-linejoin="round" stroke-width=".8" d="M166.296484,174.7 C166.296484,176.25 167.546484,177.5 169.096484,177.5 L221.696484,177.56 C223.256484,177.56 224.526484,176.29 224.526484,174.73 L224.526484,174.73 C224.526484,173.17 223.256484,171.9 221.696484,171.9 L169.096484,171.9 C167.546484,171.9 166.296484,173.15 166.296484,174.7 L166.296484,174.7 L166.296484,174.7 Z"></path>
    <g fill="#FFF" fill-rule="nonzero" stroke="#000" stroke-linecap="round" stroke-linejoin="round" stroke-width=".8" transform="translate(67.68 101)">
      <path d="M53.7958377,-5.68434189e-14 L64.6958377,-5.68434189e-14 C69.6658377,-5.68434189e-14 74.1358377,3.05 75.9458377,7.68 L99.0858377,66.82 C100.905838,71.48 97.4758377,76.52 92.4658377,76.52 L78.1758377,76.52"></path>
      <path d="M0.505837691,9.87 L22.2358377,65.4 C24.8558377,72.1 31.3258377,76.52 38.5258377,76.52 L88.2658377,76.52 C93.3558377,76.52 96.8558377,71.4 94.9958377,66.65 L73.2658377,11.12 C70.6458377,4.42 64.1758377,0 56.9758377,0 L7.23583769,0 C2.14583769,0 -1.35416231,5.12 0.505837691,9.87 L0.505837691,9.87 Z"></path>
    </g>
    <path fill="#F5ABBB" fill-rule="nonzero" stroke="#000" stroke-linecap="round" stroke-linejoin="round" stroke-width=".8" d="M117.356484,127.67 C120.776484,128.55 124.146484,130.98 126.226484,134.06 C126.476484,134.43 126.986484,134.43 126.946484,134.06 C126.636484,130.98 128.116484,128.56 130.846484,127.67 C131.176484,127.56 130.976484,127.05 130.566484,126.95 C127.146484,126.07 123.776484,123.64 121.696484,120.56 C121.446484,120.19 120.936484,120.19 120.976484,120.56 C121.286484,123.64 119.806484,126.06 117.076484,126.95 C116.746484,127.06 116.946484,127.57 117.356484,127.67 Z"></path>
    <g fill-rule="nonzero" transform="translate(73.414 104.427)">
      <ellipse cx="18.983" cy="18.272" fill="#29AE81" stroke="#000" stroke-linecap="round" stroke-linejoin="round" stroke-width=".8" rx="10.66" ry="15.81" transform="rotate(-50.6 18.983 18.272)"></ellipse>
      <g transform="translate(10.002 11.027)">
        <path fill="#000" d="M9.84,12.6461799 C8.58,14.7661799 4.73,14.4761799 4.73,14.4761799 C4.73,14.4761799 2.93,10.7461799 4.19,8.62617987 C5.45,6.50617987 9.3,6.79617987 9.3,6.79617987 C9.3,6.79617987 11.1,10.5261799 9.84,12.6461799 Z"></path>
        <path fill="#FFF" d="M7.76 4.11617987C5.96 7.09617987 1.78 2.69617987 0 5.63617987L4.77 9.05617987 7.75 4.11617987 7.76 4.11617987ZM12.25 7.33617987C10.45 10.3161799 15.82 12.7561799 14.04 15.6961799L9.27 12.2761799 12.25 7.33617987 12.25 7.33617987Z"></path>
        <path fill="#FFF" d="M9.27,12.2761799 L4.77,9.05617987 L9.04,1.98617987 C9.43,1.33617987 10.05,0.856179875 10.82,0.586179875 L12.41,0.0361798748 C12.96,-0.153820125 13.79,0.436179875 13.85,1.06617987 L14.02,2.86617987 C14.1,3.74617987 13.94,4.55617987 13.55,5.20617987 L9.28,12.2761799 L9.27,12.2761799 Z"></path>
        <line x1="10.48" x2="12.37" y1="2.716" y2="4.076" fill="#F5ABBB" stroke="#000" stroke-linecap="round" stroke-linejoin="round" stroke-width=".8"></line>
      </g>
    </g>
    <g transform="translate(86.306 143.34)">
      <path fill="#F5ABBB" fill-rule="nonzero" d="M16.2,0.01 L0,13.82 L3.62,23.06 C3.92,23.83 4.28,24.57 4.68,25.27 L23.87,8.92 L16.21,0 L16.2,0.01 Z"></path>
      <polyline stroke="#FFF" stroke-linecap="round" stroke-linejoin="round" stroke-width=".8" points=".97 16.16 9.02 18.39 8.06 10.12 16.12 12.35 15.15 4.08"></polyline>
    </g>
    <line x1="68.186" x2="89.916" y1="110.87" y2="166.4" fill="#FFF" fill-rule="nonzero" stroke="#000" stroke-linecap="round" stroke-linejoin="round" stroke-width=".8"></line>
    <ellipse cx="115.299" cy="139.773" fill="#000" fill-rule="nonzero" rx="4.15" ry="6.07" transform="rotate(-50.4 115.3 139.773)"></ellipse>
    <path stroke="#000" stroke-linecap="round" stroke-linejoin="round" stroke-width=".8" d="M68.1864841,110.87 L89.9164841,166.4 C92.5364841,173.1 99.0064841,177.52 106.206484,177.52"></path>
  </g>
</svg>
