<?xml version="1.0" encoding="UTF-8"?>
<svg xmlns="http://www.w3.org/2000/svg" viewBox="0 0 341 279">
  <g fill="#00AAE5">
    <path d="M37.7 60.1v61.6h14.1V97.6c2.7 2.9 6.5 4.6 11.4 4.6 10.2 0 20.1-8.2 20.1-21.6 0-13.4-9.9-21.5-20.1-21.5-4.5 0-9.8 2.1-12.2 7v-5.9H37.7v-.1zm22.7 11.8c4.7 0 8.6 3.9 8.6 8.6 0 4.7-3.9 8.6-8.6 8.6-4.7 0-8.6-3.6-8.6-8.3 0-4.7 3.9-8.9 8.6-8.9zM91 60.1v21.7c0 12.8 5.4 20.3 16.4 20.3 3.6 0 10.2-2 11.6-7.3v6.5h14.1V60.1H119v21.7c0 5.3-4.1 6.7-7.3 6.7-2.9 0-6.7-1.7-6.7-7.2V60.1H91zm52.7-21.6v62.9H157v-5.9c2.4 4.9 7.7 6.7 12.2 6.7 10.2 0 20.1-8.1 20.1-21.5s-9.9-21.6-20.1-21.6c-5 0-8.8 1.9-11.4 4.9V38.5h-14.1zm22.7 33.7c4.7 0 8.6 3.9 8.6 8.6 0 4.7-3.9 8.6-8.6 8.6-4.7 0-8.6-3.9-8.6-8.6 0-4.7 3.9-8.6 8.6-8.6zm31.2-33.7h14.1v62.9h-14.1zm31.7 0c-4.6 0-8.5 3.5-8.5 8 0 4.4 3.9 8 8.5 8 4.7 0 8.4-3.6 8.4-8 0-4.6-3.8-8-8.4-8zm-7 21.6h14.1v41.2h-14.1zm67.8 61.6V60.1h-13.3V66c-2.4-4.9-7.7-7-12.2-7-10.2 0-20.1 8.1-20.1 21.5s9.9 21.6 20.1 21.6c5 0 8.8-1.7 11.4-4.6v24.1h14.1v.1zm-22.6-32.6c-4.7 0-8.6-3.9-8.6-8.6 0-4.7 3.9-8.6 8.6-8.6 4.7 0 8.6 4.2 8.6 8.8-.1 4.7-3.9 8.4-8.6 8.4z"></path>
    <path d="M340.6 0H.3v230.2h13.6V13.7h299.5v162h-223l-54.5 54.5h213.7l91.1 48.3V0z"></path>
  </g>
</svg>
