<?xml version="1.0" encoding="UTF-8"?>
<svg xmlns="http://www.w3.org/2000/svg" xmlns:xlink="http://www.w3.org/1999/xlink" id="Layer_1" viewBox="0 0 500 500">
  <defs>
    <style>.cls-1{mask:url(#mask);}.cls-2{filter:url(#luminosity-noclip-2);}.cls-3,.cls-4,.cls-5{fill:#fff;}.cls-6,.cls-7{fill:#f5abbb;}.cls-8{fill:#f2d8d8;}.cls-9{fill:#ace3fe;}.cls-10{fill:#29ae81;}.cls-11,.cls-7,.cls-4,.cls-5,.cls-12,.cls-13{stroke-linecap:round;stroke-linejoin:round;stroke-width:.8px;}.cls-11,.cls-7,.cls-5,.cls-12{stroke:#000;}.cls-4{stroke:#fff;}.cls-12,.cls-13{fill:none;}.cls-13{stroke:#29ae81;}.cls-14{mask:url(#mask-2);}.cls-15{mask:url(#mask-1);}</style>
    <filter id="luminosity-noclip-2" x="317.36" y="180.8" width="192.27" height="236.22" color-interpolation-filters="sRGB" filterUnits="userSpaceOnUse">
      <feFlood flood-color="#fff" result="bg"></feFlood>
      <feBlend in="SourceGraphic" in2="bg"></feBlend>
    </filter>
    <mask id="mask" x="317.36" y="180.8" width="192.27" height="236.22" maskUnits="userSpaceOnUse">
      <g class="cls-2">
        <rect x="418.99" y="338.39" width="109.26" height="40.79" transform="translate(-11.93 701.25) rotate(-72.34)"></rect>
      </g>
    </mask>
    <mask id="mask-1" x="212.32" y="127.3" width="177.76" height="303.59" maskUnits="userSpaceOnUse">
      <path class="cls-4" d="M295.92,127.7h-2.67l-7.31,8.65c-2.27,2.68-5.6,4.22-9.1,4.22h-31.14c-3.51,0-6.84-1.55-9.1-4.22l-7.31-8.65h-2.67c-7.67,0-13.88,6.21-13.88,13.88V416.61c0,7.67,6.21,13.88,13.88,13.88h69.32c7.67,0,13.88-6.21,13.88-13.88V141.58c0-7.67-6.21-13.88-13.88-13.88Z"></path>
    </mask>
    <mask id="mask-2" x="212.32" y="127.3" width="178.16" height="303.59" maskUnits="userSpaceOnUse">
      <path class="cls-4" d="M295.92,127.7h-2.67l-7.31,8.65c-2.27,2.68-5.6,4.22-9.1,4.22h-31.14c-3.51,0-6.84-1.55-9.1-4.22l-7.31-8.65h-2.67c-7.67,0-13.88,6.21-13.88,13.88V416.61c0,7.67,6.21,13.88,13.88,13.88h69.32c7.67,0,13.88-6.21,13.88-13.88V141.58c0-7.67-6.21-13.88-13.88-13.88Z"></path>
    </mask>
  </defs>
  <g class="cls-1">
    <path class="cls-10" d="M317.44,181.44c0-.35,.29-.64,.64-.64,77.1,.39,139.46,63.03,139.41,140.2,0,2.15-.05,4.29-.15,6.41-4.14,90.71-140.04,86.79-139.98-4.02l.08-141.96Z"></path>
  </g>
  <circle class="cls-6" cx="166.26" cy="123.33" r="103.75"></circle>
  <path class="cls-10" d="M295.92,127.7h-2.67l-7.31,8.65c-2.27,2.68-5.6,4.22-9.1,4.22h-31.14c-3.51,0-6.84-1.55-9.1-4.22l-7.31-8.65h-2.67c-7.67,0-13.88,6.21-13.88,13.88V416.61c0,7.67,6.21,13.88,13.88,13.88h69.32c7.67,0,13.88-6.21,13.88-13.88V141.58c0-7.67-6.21-13.88-13.88-13.88Z"></path>
  <g class="cls-15">
    <g>
      <rect x="212.72" y="405.97" width="97.08" height="24.52"></rect>
      <polygon points="212.72 418.61 228.73 406.31 228.51 405.97 212.72 405.97 212.72 418.61"></polygon>
      <rect x="239.48" y="381.45" width="97.08" height="24.52"></rect>
      <rect x="266.24" y="356.92" width="97.08" height="24.52"></rect>
      <rect x="293.01" y="332.4" width="97.08" height="24.52"></rect>
    </g>
  </g>
  <g class="cls-14">
    <g>
      <rect class="cls-13" x="212.72" y="405.97" width="97.08" height="24.52"></rect>
      <rect class="cls-13" x="239.48" y="381.45" width="97.08" height="24.52"></rect>
      <rect class="cls-13" x="266.24" y="356.92" width="97.08" height="24.52"></rect>
      <rect class="cls-13" x="293.01" y="332.4" width="97.08" height="24.52"></rect>
    </g>
  </g>
  <path class="cls-3" d="M229.17,328.36c7.72,2.22,13.8,8.3,16.02,16.02,.27,.93,1.55,.93,1.82,0,2.22-7.72,8.3-13.8,16.02-16.02,.93-.27,.93-1.55,0-1.82-7.72-2.22-13.8-8.3-16.02-16.02-.27-.93-1.55-.93-1.82,0-2.22,7.72-8.3,13.8-16.02,16.02-.93,.27-.93,1.55,0,1.82Z"></path>
  <path class="cls-3" d="M273.63,225.11c4.43,1.27,7.92,4.77,9.2,9.2,.15,.53,.89,.53,1.04,0,1.27-4.43,4.77-7.92,9.2-9.2,.53-.15,.53-.89,0-1.04-4.43-1.27-7.92-4.77-9.2-9.2-.15-.53-.89-.53-1.04,0-1.27,4.43-4.77,7.92-9.2,9.2-.53,.15-.53,.89,0,1.04Z"></path>
  <path d="M311.4,455.03c11.72,3.37,20.96,12.61,24.33,24.33,.4,1.41,2.35,1.41,2.76,0,3.37-11.72,12.61-20.96,24.33-24.33,1.41-.4,1.41-2.35,0-2.76-11.72-3.37-20.96-12.61-24.33-24.33-.4-1.41-2.35-1.41-2.76,0-3.37,11.72-12.61,20.96-24.33,24.33-1.41,.4-1.41,2.35,0,2.76Z"></path>
  <path class="cls-9" d="M295.92,127.7h-2.67l-7.31,8.65c-2.27,2.68-5.6,4.22-9.1,4.22h-31.14c-3.51,0-6.84-1.55-9.1-4.22l-7.31-8.65h-2.67c-7.67,0-13.88,6.21-13.88,13.88v83.06c5.91,8.6,13.61,14.5,13.61,14.5,40.87-7.49,30.99-47.46,83.47-58.16v-39.4c0-7.67-6.21-13.88-13.88-13.88Z"></path>
  <path class="cls-7" d="M268.57,140.58h-22.89c-3.51,0-6.84-1.55-9.1-4.22l-7.31-8.65h-2.67c-7.67,0-13.88,6.21-13.88,13.88v74.54c29.05-14.58,50.31-42.4,55.85-75.54Z"></path>
  <path class="cls-5" d="M295.92,438.49h-69.32c-12.08,0-21.88-9.8-21.88-21.88V141.58c0-12.08,9.8-21.88,21.88-21.88h69.32c12.08,0,21.88,9.8,21.88,21.88V416.61c0,12.08-9.8,21.88-21.88,21.88Zm0-310.79h-2.67l-7.31,8.65c-2.27,2.68-5.6,4.22-9.1,4.22h-31.14c-3.51,0-6.84-1.55-9.1-4.22l-7.31-8.65h-2.67c-7.67,0-13.88,6.21-13.88,13.88V416.61c0,7.67,6.21,13.88,13.88,13.88h69.32c7.67,0,13.88-6.21,13.88-13.88V141.58c0-7.67-6.21-13.88-13.88-13.88Z"></path>
  <path class="cls-12" d="M212.72,224.22c14.29,31.92,70.49,17.96,97.08,72.83"></path>
  <path class="cls-12" d="M309.8,180.99c-52.49,10.7-42.61,50.66-83.47,58.16"></path>
  <polygon points="212.88 305.99 205.12 312.12 205.12 298.34 212.88 299.76 212.88 305.99"></polygon>
  <polygon points="212.88 386.3 205.12 392.43 205.12 371.07 212.88 380.07 212.88 386.3"></polygon>
  <path class="cls-12" d="M295.92,127.7h-2.67l-7.31,8.65c-2.27,2.68-5.6,4.22-9.1,4.22h-31.14c-3.51,0-6.84-1.55-9.1-4.22l-7.31-8.65h-2.67c-7.67,0-13.88,6.21-13.88,13.88V416.61c0,7.67,6.21,13.88,13.88,13.88h69.32c7.67,0,13.88-6.21,13.88-13.88V141.58c0-7.67-6.21-13.88-13.88-13.88Z"></path>
  <g>
    <path d="M141.46,149.99c-2.22-4.45-7.32-6.89-12.17-5.81-1.47,.33-2.78,.92-3.92,1.71-2.21,1.53-4.75,2.62-7.43,2.67-1.17,.02-2.36,.24-3.52,.66-3.29,1.2-5.66,3.82-6.67,6.91-.68,2.08-1.88,3.98-3.57,5.36-3.54,2.88-5.06,7.79-3.4,12.33,.06,.16,.12,.31,.18,.47,.95,2.29,1.05,4.81,.61,7.25-.34,1.87-.19,3.85,.52,5.77,2.02,5.44,8.15,8.43,13.67,6.65,5.97-1.93,9.1-8.41,6.97-14.26-.53-1.45-1.33-2.72-2.32-3.78,1.12-1.79,1.73-3.89,1.69-6.05,2.42-.92,4.33-2.6,5.55-4.67,2.41,.94,5.15,1.06,7.77,.1,6.11-2.23,9.04-9.31,6.06-15.31Z"></path>
    <path class="cls-8" d="M158.39,184c-1.53,13.69-12.14,23.07-25.83,21.54-13.69-1.53-25.27-13.39-23.74-27.08,1.53-13.69,13.87-23.54,27.56-22.01,10.66,1.19,23.54,13.87,22.01,27.56Z"></path>
    <polygon class="cls-8" points="145.11 214 128.34 220.79 125.15 200.47 139.74 201.47 145.11 214"></polygon>
    <path class="cls-8" d="M136.79,156.39c5.33,.56,8.4,3.52,12.42,6.01,2.59,1.6,5.99,2.59,9.27,3.98,2.53,1.07,2.43,4.69-.16,5.62-.96,.34-1.59,.57-1.59,.57"></path>
    <path class="cls-12" d="M156.74,172.56c1.3,3.53,1.82,7.41,1.37,11.41-1.29,11.5-10.17,20.31-21.09,21.98"></path>
    <path class="cls-12" d="M127.89,215.8l-2.49-12.49c-10.56-3.28-18.5-12.21-17.08-24.92,1.57-14.01,17.31-23.83,31.44-22.33,5.66,3.97,11.02,8.19,18.94,10.81,2.38,.78,2.45,4.11,.09,4.95-1.21,.43-2.05,.74-2.05,.74"></path>
    <path class="cls-11" d="M132.71,187.32c-2.37,.32-4.87-.77-6.18-3.15-1.14-2.06-.93-4.69,.5-6.55,1.68-2.18,4.36-2.86,6.67-2.15,1,.31,1.94-.6,1.59-1.59l-2.26-5.88c-2.1-5.45,1.96-11.3,7.8-11.25h.08l-9.29-2.96c-10.82,1.92-22.01,13.21-23.29,24.62-1.42,12.67,6.48,21.58,17,24.89,6.32-4.16,8.55-8.77,8.63-13.91-.13-1-.23-2.19-1.23-2.06Z"></path>
    <line class="cls-12" x1="144.7" y1="212.93" x2="141.4" y2="205.02"></line>
    <path class="cls-12" d="M144.7,174.33c2.92,1.86,6.16,3.39,7.93,3.78"></path>
    <path class="cls-3" d="M120.45,383.32c-8.86,5.75-30.1,35.25-35.27,50.35-.51,1.48,3.01,4.85,4.57,4.9,10.63,.38,38.67,.18,52.47,.07,4.26-.04,7.69-3.5,7.69-7.76v-.58c0-.94-.35-1.84-.97-2.54-6.03-6.75-26.37-10.21-27.99-15.29l16.13-17.46-16.63-11.69Z"></path>
    <path class="cls-12" d="M135.84,438.54h7.87c3.58,0,6.49-2.9,6.49-6.49h0c0-10.64-23.45-10.88-29.65-19.74-12.91,1.57-15.91-6.49-19.86-6.69"></path>
    <line class="cls-12" x1="150.08" y1="431.94" x2="85.46" y2="431.94"></line>
    <path class="cls-12" d="M113.23,390.41c-12.57,14.27-21.83,26.72-27.71,41-1.4,3.4,1.09,7.14,4.76,7.14h45.58"></path>
    <path class="cls-8" d="M120.62,303.9c9.34-8.53,13.94-8.1,24.45-10.03l-11.23-30.62c-18.97,5.64-50.41,24.1-60.06,42.56-4.24,8.25-6.07,11.81-1.66,14.55,2.25,1.07,7.33-10.41,9.06-13.14-6.19,11.7-8.56,17.62-5.32,19.54,5.9,2.58,10.65-12.16,13.09-15.97-6.23,11.69-7.52,19.4-4.36,20.96,5.1,2.23,11.02-13.6,14.92-19.4,.56,6.59,6.2,15.64,10.77,14.33,4.24-1.33,.15-8.85,.36-13.8,.05-1.17,9.11-8.19,9.98-8.98Z"></path>
    <g>
      <g>
        <path class="cls-9" d="M110.68,273.21c3.55,18.73,17.53,22.06,19.84,27.87,3.07,7.71,8.04,18.18,8.04,29.71,0,3.66-29.76,29.6-39.57,45.39l28.88,28.72h0s51.49-54.32,57.09-68.29c5.42-13.53,.78-29.26-7.21-43.67l-23.2-19.36-43.86-.37Z"></path>
        <path class="cls-3" d="M134.07,209.81c-18.85,4.63-12.64,30.82-18.84,37.02-5.48,5.48-19.95,7.32-19.95,26.38h43.12l.11-.08c2.03,4.37,4.37,8.22,7.04,11.11,3.99-3.55,30.43-37.58,30.43-37.58-7.79-4.79-21.42-40.26-41.9-36.86Z"></path>
        <polygon class="cls-9" points="183.46 297.15 176.43 288.6 165.16 293.88 170.68 359.71 186.39 380.94 200.82 370.99 221.94 356.6 183.46 297.15"></polygon>
        <path class="cls-3" d="M264.14,369.02c-1.66-1.42-2.36-2.3-4.21-2.69-5.76-1.22-9.17,.08-19.26,2.52-3.06,.74-9.75,2.38-14.33,2.94l-8.29-12.41-15.19,10.31,22.06,34.64c.98,1.53,6.62,1.75,7.94,.5l31.27-29.81c.96-.91,1-5.13,0-5.99Z"></path>
      </g>
      <polyline class="cls-12" points="169.8 358.52 186.23 381.1 221.91 356.49 181.62 294.3"></polyline>
      <line class="cls-12" x1="226.26" y1="371.68" x2="218.05" y2="359.16"></line>
      <path class="cls-12" d="M202.77,369.69l21.73,33.79c1.9,2.96,6.03,3.46,8.59,1.04l30.31-28.86c2.38-2.25,2.16-6.15-.51-8.04-6.67-4.73-16.95,2.17-36.57,3.97"></path>
      <line class="cls-12" x1="224.63" y1="403.23" x2="262.63" y2="367.85"></line>
      <path class="cls-12" d="M211.07,382.1c5.3-9.15,15.13-4.75,15.21-10.39"></path>
    </g>
    <g>
      <path class="cls-8" d="M227.34,298.55c15.22-1.14,18.51-2.83,18.28-5.52-.36-4.3-13.41-2.25-18.63-2.29,15.24-1.09,21.44-2.18,21.02-6.22-.56-5.48-12.62-3.26-19.66-3.43,16.84-.96,20.66-2.65,19.86-6.55-1.17-5.7-14.3-1.4-23.29-2.54,2.15-1.65,8.3-8.84,3.8-12.87-3.07-2.75-11.19,5.07-16.15,7.9-1.17,.67-2.56,.86-3.86,.5-14.06-3.89-24.34-12.11-32.67-21.19l-23.01,29.75c17.14,15.06,48.62,31.59,72.87,29.49,10.66-.92,14.61-3.8,14.39-5.71-.33-2.85-9.24-1.28-12.96-1.3Z"></path>
      <path class="cls-6" d="M189.11,298.15c7.93-7.17,13.11-18.94,13.8-32.26l-9.32-4.77c-.7,13.45-5.94,25.34-13.95,32.57"></path>
      <path d="M181.13,294.24c7.97-7.2,13.19-19,13.93-32.36l-1.47-.75c-.7,13.45-5.94,25.34-13.95,32.57l9.47,4.45s.07-.07,.11-.11l-8.09-3.81Z"></path>
      <path class="cls-12" d="M153.04,276.07c17.14,15.06,48.62,31.59,72.87,29.49,10.66-.92,14.46-3.47,14.39-5.71-.05-1.51-2.03-2.14-4.69-2.08"></path>
      <path class="cls-12" d="M227.34,298.55c15.22-1.14,18.86-2.89,18.63-5.58-.15-4.8-13.76-2.2-18.98-2.24"></path>
      <path class="cls-12" d="M226.99,290.73c15.24-1.09,22.27-2.06,21.14-6.91-1.13-4.84-12.74-2.57-19.77-2.75"></path>
      <path class="cls-12" d="M228.36,281.08c16.84-.96,21.23-2.47,20.02-7.06-1.34-5.08-14.46-.89-23.45-2.03,2.15-1.65,8.3-8.84,3.8-12.87-3.07-2.75-11.19,5.07-16.15,7.9-1.17,.67-2.56,.86-3.86,.5-42.68-11.8-50.58-63.61-74.66-57.7-18.85,4.63-12.64,30.82-18.84,37.02-5.48,5.48-19.95,7.32-19.95,26.38h43.12"></path>
    </g>
    <path class="cls-12" d="M110.68,273.21c-19.95,12.19-33.7,24.05-40.46,40.35-2.13,5.13,2,9.42,5.1,5.21"></path>
    <path class="cls-12" d="M82.64,306.13c-5.32,5.43-10.94,19.41-6.32,20.95,4.32,1.44,7.32-5.21,7.32-5.21"></path>
    <path class="cls-12" d="M89.16,310.12c-4.55,6.1-8.86,20.3-4.2,21.72,5.46,1.67,10.09-14.52,14.58-18.57"></path>
    <path class="cls-12" d="M91.73,304.69c-.78,3.88,2.83,8.81,7.93,8.42,.72,5.21,3.88,14.74,10.42,13.58,5.81-1.03-.55-9.26,.72-14.24,0,0,11.9-10.74,17.9-13.96"></path>
    <path class="cls-12" d="M127.87,404.9l-28.88-28.72c9.81-15.8,39.57-41.73,39.57-45.39,0-11.54-4.97-22.01-8.04-29.71-2.31-5.81-16.29-9.14-19.84-27.87"></path>
    <path class="cls-12" d="M177.74,292.94c7.98,14.41,12.63,30.14,7.21,43.67-5.6,13.97-57.09,68.28-57.09,68.28"></path>
    <line class="cls-12" x1="128.19" y1="404.56" x2="120.64" y2="412.46"></line>
    <path class="cls-12" d="M181.26,294.63c8.01-7.23,13.25-19.12,13.95-32.57"></path>
    <path class="cls-12" d="M179.76,293.72c8.01-7.23,13.25-19.12,13.95-32.57"></path>
    <path class="cls-12" d="M189.11,298.15c7.93-7.17,13.11-18.94,13.8-32.26"></path>
    <path class="cls-11" d="M202.53,272.53l-3.59-1.57c-4.29-1.88-9.74,1.11-12.18,6.67-2.43,5.56-.93,11.59,3.36,13.47l3.5,1.53"></path>
    <ellipse class="cls-7" cx="197.87" cy="282.48" rx="10.99" ry="8.48" transform="translate(-140.26 350.45) rotate(-66.35)"></ellipse>
    <path d="M113.37,281.83l26.02-6.9-.94-1.61-27.66,.06c-.17,.75,1.33,5.54,2.58,8.45Z"></path>
    <polygon points="106.63 398.09 120.84 398.09 113.2 390.65 106.63 398.09"></polygon>
    <polygon points="183.48 340.58 173.28 363.19 169.62 358.76 183.48 340.58"></polygon>
    <path d="M128.5,232.09l5.68,41.18h4.49c-7.09-15.74-10.84-39.02-10.17-41.18Z"></path>
    <path class="cls-12" d="M128.75,231.37c.39,13.36,5.93,41.12,16.79,52.87,3.99-3.55,30.43-37.58,30.43-37.58"></path>
    <polygon points="128.5 298.29 120.27 304.27 120.27 291.31 125.51 295.79 128.5 298.29"></polygon>
    <polyline class="cls-12" points="140.39 331.07 150.03 334.18 138.61 334.62 143.27 339.16"></polyline>
    <polygon points="136.81 206.27 143.49 210.55 141.37 205.23 136.81 206.27"></polygon>
  </g>
  <line class="cls-3" x1="176.05" y1="246.32" x2="153.04" y2="276.07"></line>
  <line class="cls-5" x1="295.92" y1="438.49" x2="113.86" y2="438.49"></line>
</svg>
