<?xml version="1.0" encoding="UTF-8"?>
<svg id="Layer_1" data-name="Layer 1" xmlns="http://www.w3.org/2000/svg" version="1.1" viewBox="0 0 1080 1080">
  <defs>
    <style>
      .cls-1 {
        fill: #3b8cf7;
      }

      .cls-1, .cls-2 {
        stroke-width: 0px;
      }

      .cls-2 {
        fill: #000;
      }
    </style>
  </defs>
  <path class="cls-1" d="M540,1080c298.2,0,540-241.8,540-540S838.2,0,540,0,0,241.8,0,540s241.8,540,540,540"/>
  <polygon class="cls-2" points="472.2 257.1 472.2 289.4 431.1 289.4 431.1 424.6 396.4 424.6 396.4 289.4 355.2 289.4 355.2 257.1 472.2 257.1"/>
  <polygon class="cls-2" points="564.8 257.1 599.5 257.1 599.5 424.6 564.8 424.6 564.8 356.9 515.9 356.9 515.9 424.6 481.2 424.6 481.2 257.1 515.9 257.1 515.9 324.6 564.8 324.6 564.8 257.1"/>
  <polygon class="cls-2" points="620.7 424.6 620.7 257.1 710.9 257.1 710.9 289.4 655.4 289.4 655.4 325.1 708.5 325.1 708.5 356.4 655.4 356.4 655.4 392.3 710.9 392.3 710.9 424.6 620.7 424.6"/>
  <polygon class="cls-2" points="436.7 454.2 389.3 531.3 435.5 621.7 396 621.7 364.9 558.3 352.2 579.4 352.2 621.7 317.5 621.7 317.5 454.2 352.2 454.2 352.2 514 343.1 537.7 347.9 537.7 398.6 454.2 436.7 454.2"/>
  <rect class="cls-2" x="445.7" y="454.2" width="34.7" height="167.5"/>
  <polygon class="cls-2" points="501.5 621.7 501.5 454.2 552.4 454.2 581.2 549 583.8 599 588.8 599 588.8 454.2 619.7 454.2 619.7 621.7 568.7 621.7 539.8 526.7 537.4 476.9 532.6 476.9 532.6 621.7 501.5 621.7"/>
  <path class="cls-2" d="M675.6,589.4h20.1c12.7,0,22-7.7,26.6-20.6,2.9-8.1,4.1-19.9,4.1-30.9s-1.2-22.7-4.1-30.9c-4.5-12.9-13.9-20.6-26.6-20.6h-20.1v102.9h0ZM640.9,621.7v-167.5h54.3c30.6,0,51.7,14.6,61,40.9,4.3,12,6.2,27,6.2,42.8s-1.9,30.9-6.2,42.8c-9.3,26.3-30.4,40.9-61,40.9h-54.3Z"/>
  <polygon class="cls-2" points="448.5 651.3 401.1 728.4 447.3 818.8 407.8 818.8 376.7 755.4 364 776.5 364 818.8 329.3 818.8 329.3 651.3 364 651.3 364 711.1 354.9 734.8 359.7 734.8 410.4 651.3 448.5 651.3"/>
  <rect class="cls-2" x="457.5" y="651.3" width="34.7" height="167.5"/>
  <g>
    <path class="cls-2" d="M547.9,786.5h20.1c12.7,0,22-7.7,26.6-20.6,2.9-8.1,4.1-19.9,4.1-30.9s-1.2-22.7-4.1-30.9c-4.5-12.9-13.9-20.6-26.6-20.6h-20.1v102.9h0ZM513.2,818.8v-167.5h54.3c30.6,0,51.7,14.6,61,40.9,4.3,12,6.2,27,6.2,42.8s-1.9,30.9-6.2,42.8c-9.3,26.3-30.4,40.9-61,40.9h-54.3Z"/>
    <path class="cls-2" d="M641.6,771.4v-7.2h34.5v6.7c0,14.4,6.9,21.5,19.6,21.5s13.4-2.6,16.3-7.7c1.9-3.1,2.9-6.7,2.9-11.2s-.5-7.9-2.4-11c-2.6-4.1-7.4-7.7-15.8-10l-19.1-6c-12.9-3.8-22.3-10.3-27.8-20.1-4.5-7.7-6.5-16.5-6.5-27.5s2.4-20.8,6.9-28.7c8.4-14.6,24.6-23,47.1-23,34.2,0,53.6,17.7,53.6,51v7.2h-34.5v-6.7c0-14.1-6.7-21.1-19.1-21.1s-13.4,2.6-16.3,7.7c-1.7,3.1-2.6,6.7-2.6,11.2s.5,7.7,2.2,10.5c2.6,4.3,7.4,7.7,15.8,10.1l18.9,6.2c13.2,3.6,22.5,10.5,28.2,20.3,4.3,7.7,6.2,16.8,6.2,27.5s-2.2,21.1-6.7,28.7c-8.6,14.8-24.9,23-47.6,23-34.2,0-53.8-17.9-53.8-51.4"/>
    <path class="cls-2" d="M1019.3,518.5l-49.6,3.9v-1.2l9.1-2.8,38.8-22.4-1-12.4-55.1,4.3.6,7.9,49.6-3.9v1.2l-9.1,2.8-38.8,22.4,1,12.4,55.1-4.3-.6-7.9h0ZM972.5,562l-4.1-.7v-1.2l4.2-.4,19.9-6-.7,15.9-19.3-7.6h0ZM1020,537.3l-56.1,17.3-.5,11.9,54.4,21.9.4-8.4-19.1-7.5.9-20.9,19.6-5.9.4-8.4h0ZM1014.8,607.6l-52-26-1.3,8.7,44.5,21.6,3.2.7-.2,1.2-3.3-.3-48.9,7.6-1.3,8.7,57.4-9.6,1.9-12.6h0ZM945.4,689.4l3.8-11.6c2.6-7.8,8.8-12,16.2-12.2,2.8-.2,5.6.3,8.6,1.3,2.9,1,5.5,2.3,7.6,4,5.9,4.6,8.5,11.7,5.9,19.6l-3.8,11.6-38.3-12.6h0ZM994.4,693.5c3.9-11.9,1.1-22.5-7.7-29.3-2.8-2.2-6.1-3.9-10.1-5.2-3.9-1.3-7.6-1.8-11.1-1.8-11.1.2-19.8,7.2-23.7,19l-6.1,18.4,52.5,17.3,6.1-18.4h0ZM932.7,719.6c1.6-3.5,3.8-5.5,6.8-5.8,1.3,0,2.7.2,4.2.9,1.6.7,2.8,1.7,3.6,2.8,1.6,2.3,1.5,5.4,0,8.8l-5.1,11.1-14.6-6.7,5.1-11.1ZM952.9,729c2.7-6.6,3.2-12.6,0-16.9-1.4-1.9-3.3-3.5-6.1-4.8-3.1-1.4-5.9-1.9-8.4-1.7-5.5.5-9.9,4.7-13.2,11.9l-7.9,17.3,50.3,23,3.3-7.2-22.4-10.2,1.4-3.2,29-4.1,4.2-9.1-27.5,4.2-1.8,1.3-1.1-.5h.1ZM909.3,766.4l-3.2-2.6.6-1,3.8,1.6,20.3,4.2-8.2,13.6-13.3-15.9h0ZM962.9,767.4l-57.5-11.6-6.1,10.2,37.4,45.2,4.3-7.2-13.2-15.7,10.8-18,20.1,4.2,4.3-7.2h0ZM930.8,818.5l-6-4.6-19.8,25.9-.9-.7-6.9-46.3-10.4-7.9-24.1,31.5,6,4.6,20.1-26.3.9.7,7.2,47.2,9.7,7.4,24.1-31.5h.1ZM897.7,859.4l-40.8-37.3-5.3,5.8,40.8,37.3,5.3-5.8ZM851.2,904.9l-23.7-40.2-2.5-3.1.9-.8,2.7,2.8,37.3,28.1,10-8.9-27.3-49.7-6.4,5.7,22.8,40.7,3.1,4-.9.8-3.5-3.6-37-28-9.7,8.7,23.6,40,3.2,3.9-.9.8-3.6-3.6-37.8-27.2-6.4,5.7,46.3,32.8,10-8.9h-.2ZM804,940.7l-3.9-6.4-20.7,12.8-8.7-14.1,20-12.4-3.9-6.4-20,12.4-8.5-13.9,20.7-12.8-3.9-6.4-27.4,16.9,29,47.1,27.4-16.9h0ZM766.9,963l-3.3-6.7-21.9,10.6-20.9-43-7.1,3.5,24.2,49.7,29-14.1ZM687,947.5l-.9-4,1.1-.4,1.9,3.7,13.2,16-14.9,5.5-.4-20.7h0ZM728.2,981.8l-37.6-45.1-11.2,4.1.8,58.7,7.9-2.9-.4-20.5,19.6-7.3,13,15.8,7.9-2.9h0ZM626.3,955.8l1.8,7.3,16.7-4.2,11.6,46.4,7.7-1.9-11.6-46.4,16.7-4.2-1.8-7.3-41.1,10.3h0ZM629.5,1011.1l-10.2-54.4-7.8,1.5,10.2,54.4,7.8-1.5ZM580.8,1019c9.2-.8,15.1-6.4,16.9-15.6h1.2c0,0-.9,12.9-.9,12.9l7.9-.7-2.6-28.5-24.8,2.2.7,7.4,17.3-1.6c0,9.1-6.2,15.5-15.2,16.3-8,.7-14.5-3.3-17.8-10.5-1.4-2.9-2-6.2-2.2-9.1-.3-3.1,0-6,.6-8.7,2.1-8.1,8.2-13.6,17-14.4,8.9-.8,16,3.7,17.7,11.7l8-.7c-1.9-12-12.5-19.7-26.5-18.4-12.4,1.1-21.3,8.7-24.3,19.7-1,3.5-1.2,7.4-.9,11.6.4,3.9,1.4,8.2,3,11.9,4.5,10.1,14.5,15.4,24.8,14.5M542.1,1019.5l.3-55.3h-7.9l-.3,55.3h7.9ZM486.5,968.6l12.2,1.1c8.2.7,13.7,5.8,15.6,13,.8,2.7,1,5.6.7,8.7-.3,3.1-1,5.9-2.2,8.3-3.1,6.8-9.5,10.9-17.7,10.2l-12.2-1.1,3.6-40.1h0ZM493.7,1017.3c12.4,1.1,22.2-4,26.8-14.1,1.5-3.2,2.4-6.8,2.8-11,.4-4.1,0-7.8-.7-11.2-2.8-10.8-11.5-17.7-23.9-18.8l-19.3-1.7-4.9,55.1,19.3,1.7h0Z"/>
    <path class="cls-2" d="M579.8,124.4l6.5-49.3,1.2.2.8,9.6,13.9,42.6,12.3,1.6,7.2-54.8-7.8-1-6.5,49.4-1.2-.2-.8-9.6-13.9-42.6-12.3-1.6-7.2,54.8,7.8,1h0ZM537.9,76.4l.5-4.1h1.2l.6,4.1,7,19.5-15.9.2,6.6-19.7h0ZM565.1,122.5l-20.3-55.1h-11.9c0,0-18.9,55.7-18.9,55.7h8.4c0,0,6.5-19.5,6.5-19.5l20.9-.3,6.9,19.3h8.4,0ZM498.6,124.7l10.6-57.2-8.7,1.1-8.5,48.8.2,3.3-1.2.2-.7-3.3-20.8-44.9-8.7,1.1,25.1,52.5,12.6-1.7h.1ZM395.7,97.5l11.8-3.3c7.9-2.2,14.9.6,19.2,6.6,1.7,2.2,2.9,4.8,3.8,7.9.8,3,1.2,5.8.9,8.5-.5,7.5-4.9,13.6-12.9,15.8l-11.8,3.3-11-38.8ZM419.7,140.4c12-3.4,19.3-11.7,20-22.7.2-3.5-.2-7.3-1.3-11.3-1.1-4-2.7-7.3-4.7-10.2-6.4-9.1-17.1-12.4-29.1-9l-18.6,5.3,15.1,53.2,18.6-5.3ZM357.3,112.2c3.5-1.6,6.5-1.6,9,0,1,.8,1.9,1.9,2.6,3.4.7,1.6,1,3.1.8,4.5-.3,2.8-2.4,5.1-5.8,6.6l-11.1,5-6.6-14.6s11.1-5,11.1-5ZM366.3,132.6c6.4-3.1,10.7-7.4,11.2-12.6.2-2.4-.2-4.9-1.4-7.6-1.4-3.1-3.2-5.3-5.2-6.8-4.5-3.3-10.5-3-17.7.3l-17.3,7.8,22.7,50.5,7.2-3.2-10.1-22.5,3.2-1.4,24.5,16,9.2-4.1-23.4-14.9-2.3-.2-.5-1.1v-.2ZM305.9,139.7l-1.6-3.8,1-.6,2.5,3.3,15.6,13.6-13.8,7.9-3.9-20.4h.2ZM352.2,166.7l-44.5-38.2-10.3,5.9,10.5,57.7,7.3-4.2-3.8-20.1,18.2-10.4,15.5,13.4,7.3-4.2h-.2ZM303.8,195.6l-4.5-6-26,19.6-.7-.9,5.8-46.4-7.9-10.4-31.7,23.9,4.5,6,26.4-19.9.7.9-5.7,47.4,7.4,9.8,31.7-23.9h0ZM265.6,225.8l-36.6-41.5-5.9,5.2,36.6,41.5,5.9-5.2ZM222.6,269.2l-28.4-37.1-2.9-2.7.8-.9,3.1,2.5,40.4,23.5,8.8-10-33.1-46.1-5.6,6.4,27.5,37.7,3.6,3.6-.8.9-3.9-3.2-40.1-23.3-8.6,9.8,28.2,36.8,3.6,3.5-.8.9-4-3.1-40.8-22.5-5.6,6.4,49.9,27,8.8-10h-.1ZM191.5,310l-6.4-3.9-12.6,20.8-14.1-8.6,12.2-20.1-6.4-3.9-12.2,20.1-13.9-8.5,12.6-20.8-6.4-3.9-16.7,27.5,47.3,28.7,16.7-27.6v.2ZM171.3,343.8l-6.8-3.2-10.5,21.9-43.1-20.7-3.4,7.1,49.9,23.9,13.9-29.1h0ZM101.4,389.4l-3.7-1.8.4-1.1,4.1.8,20.7-.2-5.1,15.1-16.4-12.7h0ZM154,378.9l-58.7,1-3.8,11.3,46.2,36.2,2.7-7.9-16.2-12.5,6.7-19.8,20.5-.2,2.7-7.9v-.2ZM75.4,451.7l7.3,1.7,3.9-16.8,46.6,10.8,1.8-7.7-46.6-10.8,3.9-16.8-7.3-1.7-9.5,41.3h-.1ZM128.6,470.5l-54.6-8.5-1.2,7.8,54.6,8.6,1.2-7.8h0ZM124.7,515.6c.5-9.2-4.1-15.9-12.9-19.1v-1.2l12.8,2.8.5-7.9-28.5-1.7-1.5,24.8,7.4.4,1-17.4c8.9,1.5,14.4,8.4,13.8,17.5-.5,8-5.4,13.8-13,16.1-3.1.9-6.4,1-9.3.9-3.2-.2-6-.8-8.5-1.9-7.6-3.3-12.2-10.2-11.7-18.9.5-8.9,6.1-15.2,14.2-15.8l.5-8c-12.1.1-21.3,9.5-22.1,23.4-.7,12.5,5.5,22.3,15.9,26.9,3.3,1.5,7.1,2.3,11.3,2.6,3.9.2,8.3,0,12.2-1.3,10.6-3,17.4-12,18-22.3M122.9,550.2l-55.3,2,.3,7.9,55.3-2s-.3-7.9-.3-7.9ZM80.5,612.2l-1.6-12.1c-1.1-8.1,2.7-14.6,9.3-18,2.5-1.4,5.2-2.2,8.3-2.6,3.1-.4,5.9-.3,8.6.3,7.3,1.6,12.7,6.9,13.8,15.1l1.6,12.1-40,5.3h0ZM126.4,594.6c-1.6-12.4-8.8-20.8-19.6-23.1-3.4-.7-7.2-.9-11.4-.3-4.1.5-7.6,1.6-10.7,3.2-9.9,5.1-14.7,15.1-13.1,27.5l2.5,19.2,54.8-7.2-2.5-19.2h0Z"/>
  </g>
</svg>